<svg width="32" height="27" viewBox="0 0 32 27" fill="none" xmlns="http://www.w3.org/2000/svg">
<g clip-path="url(#clip0_1_1034)">
<path d="M4.67045 8.75842L3.37796 12.531H5.967L4.67045 8.75842ZM6.51569 14.117H2.82927L2.15457 16.0509H-0.137756L3.67467 6.30688H5.66623L9.47865 16.0509H7.18632L6.51569 14.117Z" fill="#00A395"/>
<path d="M12.7871 4.85756V12.5352H10.6817V4.85756H7.6944V2.96094H15.7745V4.85756H12.7871Z" fill="#00A395"/>
<path d="M18.8634 8.75842L17.5669 12.531H20.16L18.8634 8.75842ZM20.7046 14.117H17.0223L16.3476 16.0509H14.0552L17.8677 6.30688H19.8592L23.6757 16.0509H21.3834L20.7046 14.117Z" fill="#00A395"/>
<path d="M26.6346 9.22628C26.6346 9.93441 27.1589 10.0876 28.5124 10.2036C31.3331 10.452 32.1785 11.0649 32.1785 13.0941C32.1785 14.8168 31.0892 16.1958 27.988 16.1958C27.0492 16.1958 25.3949 15.9473 24.7365 15.6409V13.707C25.4884 14.0134 26.7484 14.2826 28.0043 14.2826C29.5447 14.2826 30.0894 13.8809 30.0894 13.0941C30.0894 12.328 29.6016 12.0795 28.2482 11.9636C25.4315 11.7151 24.5861 11.0856 24.5861 9.22628C24.5861 7.32966 25.7526 6.16187 28.5327 6.16187C29.4716 6.16187 30.9388 6.33579 31.7436 6.69607V8.62996C30.8982 8.30696 29.752 8.07506 28.5124 8.07506C27.1223 8.0792 26.6346 8.42291 26.6346 9.22628Z" fill="#00A395"/>
<path d="M23.0335 22.5068C23.1026 22.221 23.2936 22.0512 23.5497 22.0512C23.8383 22.0512 23.9927 22.2045 24.0171 22.5068H23.0335ZM23.5619 21.7821C23.0823 21.7821 22.7206 22.1879 22.7206 22.7221C22.7206 23.2853 23.0823 23.6663 23.6229 23.6663C23.8586 23.6663 24.0781 23.6041 24.2244 23.4923L24.2366 23.4841V23.1735L24.1919 23.2066C24.0171 23.3433 23.8505 23.3971 23.6229 23.3971C23.3262 23.3971 23.0254 23.1818 23.0132 22.7635H24.3097V22.573C24.3097 22.0802 24.0293 21.7821 23.5619 21.7821ZM26.5818 23.6249H26.8744V21.8235H26.5818V23.6249ZM22.4035 21.7945C22.1719 21.7945 21.9483 21.8607 21.7532 21.985L21.741 21.9933V23.6249H22.0337V22.1548C22.1272 22.1051 22.2491 22.0761 22.3913 22.0761C22.4564 22.0761 22.5783 22.0802 22.684 22.1175L22.7206 22.1299V21.8318L22.7002 21.8276C22.5946 21.8069 22.497 21.7945 22.4035 21.7945ZM20.92 23.3888C20.5339 23.3888 20.2697 23.1238 20.2697 22.7262C20.2697 22.2624 20.5867 22.0595 20.9038 22.0595C21.0582 22.0595 21.2249 22.1175 21.3671 22.221L21.4118 22.2541V21.9311L21.3956 21.9229C21.233 21.8276 21.0745 21.7862 20.8916 21.7862C20.4364 21.7862 19.973 22.1092 19.973 22.7262C19.973 23.3433 20.4364 23.6704 20.8916 23.6704C21.0745 23.6704 21.2411 23.629 21.4199 23.5337L21.4362 23.5255V23.2025L21.3915 23.2314C21.2289 23.3391 21.0826 23.3888 20.92 23.3888ZM27.8946 23.4054C27.7401 23.4054 27.6751 23.3226 27.6751 23.1196V22.0844H28.1588V21.8235H27.6751V21.4011H27.3824V21.8235H27.1183V22.0844H27.3824V23.1445C27.3824 23.4799 27.545 23.6663 27.8417 23.6663C27.9799 23.6663 28.1018 23.6373 28.2238 23.5752L28.24 23.5669V23.2894L28.1994 23.3101C28.0815 23.3722 27.9962 23.4054 27.8946 23.4054ZM31.4834 23.3805C31.4022 23.3929 31.3087 23.3971 31.1908 23.3971C30.7437 23.3971 30.4633 23.1403 30.4633 22.7221C30.4633 22.3163 30.7275 22.0554 31.138 22.0554C31.2721 22.0554 31.394 22.0802 31.4834 22.1258V23.3805ZM31.4834 20.9456V21.8442C31.3859 21.8028 31.2436 21.7821 31.138 21.7821C30.5649 21.7821 30.1666 22.1713 30.1666 22.7221C30.1666 23.3018 30.5568 23.6663 31.1908 23.6663C31.3818 23.6663 31.5769 23.6456 31.7558 23.6L31.7761 23.5959V20.9456H31.4834ZM28.6546 22.5068C28.7237 22.221 28.9147 22.0512 29.1708 22.0512C29.4594 22.0512 29.6138 22.2045 29.6382 22.5068H28.6546ZM29.183 21.7821C28.7034 21.7821 28.3417 22.1879 28.3417 22.7221C28.3417 23.2853 28.7034 23.6663 29.244 23.6663C29.4797 23.6663 29.6992 23.6041 29.8455 23.4923L29.8577 23.4841V23.1735L29.813 23.2066C29.6341 23.3433 29.4716 23.3971 29.244 23.3971C28.9472 23.3971 28.6465 23.1818 28.6343 22.7635H29.9308V22.573C29.9308 22.0802 29.6504 21.7821 29.183 21.7821ZM19.3146 23.3888C18.9285 23.3888 18.6643 23.1238 18.6643 22.7262C18.6643 22.2624 18.9813 22.0595 19.2983 22.0595C19.4528 22.0595 19.6194 22.1175 19.7617 22.221L19.8064 22.2541V21.9311L19.7901 21.9229C19.6275 21.8276 19.469 21.7862 19.2861 21.7862C18.8309 21.7862 18.3716 22.1092 18.3716 22.7262C18.3716 23.3433 18.835 23.6704 19.2902 23.6704C19.4731 23.6704 19.6397 23.629 19.8186 23.5337L19.8348 23.5255V23.2025L19.7901 23.2314C19.6235 23.3391 19.4772 23.3888 19.3146 23.3888ZM26.724 21.165C26.6143 21.165 26.5208 21.2603 26.5208 21.3721C26.5208 21.4839 26.6143 21.5791 26.724 21.5791C26.8338 21.5791 26.9272 21.4839 26.9272 21.3721C26.9313 21.2561 26.8378 21.165 26.724 21.165ZM25.8624 23.3805C25.7811 23.3929 25.6876 23.3971 25.5657 23.3971C25.1186 23.3971 24.8381 23.1403 24.8381 22.7221C24.8381 22.3163 25.1023 22.0554 25.5128 22.0554C25.6469 22.0554 25.7689 22.0802 25.8583 22.1258V23.3805H25.8624ZM25.8624 21.8442C25.7648 21.8028 25.6226 21.7821 25.5169 21.7821C24.9438 21.7821 24.5455 22.1713 24.5455 22.7221C24.5455 23.3018 24.9357 23.6663 25.5697 23.6663C25.7607 23.6663 25.9558 23.6456 26.1347 23.6L26.155 23.5959V20.9456H25.8624V21.8442ZM17.8311 23.3805C17.7579 23.3929 17.6847 23.4012 17.6197 23.4012C17.3799 23.4012 17.0954 23.3515 17.0954 23.1114C17.0954 22.8505 17.4612 22.8091 17.6807 22.8091H17.8311V23.3805ZM17.5262 21.7821C17.3393 21.7821 17.1442 21.8318 16.9816 21.9229L16.9653 21.9311V22.2252L17.006 22.2045C17.1401 22.1341 17.2905 22.0678 17.4978 22.0678C17.7132 22.0678 17.8311 22.1796 17.8311 22.3784V22.5606H17.6644C17.1076 22.5606 16.8028 22.7552 16.8028 23.1114C16.8028 23.4675 17.0791 23.658 17.6035 23.658C17.766 23.658 17.953 23.6331 18.0993 23.5917L18.1196 23.5876V22.3618C18.1237 21.9808 17.9164 21.7821 17.5262 21.7821ZM9.77133 21.7945C9.53966 21.7945 9.31611 21.8607 9.12102 21.985L9.10883 21.9933V23.6249H9.40147V22.1548C9.49495 22.1051 9.61688 22.0761 9.75913 22.0761C9.82417 22.0761 9.95016 22.0802 10.0518 22.1175L10.0884 22.1299V21.8318L10.068 21.8276C9.96236 21.8069 9.86887 21.7945 9.77133 21.7945ZM12.4701 23.2936L11.9295 21.8235H11.6206L12.3075 23.6083L12.3157 23.6249H12.6124L13.3074 21.8193H13.0066L12.4701 23.2936ZM8.48291 23.4054C8.32846 23.4054 8.26343 23.3226 8.26343 23.1196V22.0844H8.74709V21.8235H8.26343V21.4011H7.97079V21.8235H7.7066V22.0844H7.97079V23.1445C7.97079 23.4799 8.13337 23.6663 8.43007 23.6663C8.56826 23.6663 8.69019 23.6373 8.81213 23.5752L8.82838 23.5669V23.2894L8.78774 23.3101C8.66987 23.3722 8.58452 23.4054 8.48291 23.4054ZM11.1817 23.3805C11.1085 23.3929 11.0354 23.4012 10.9703 23.4012C10.7305 23.4012 10.446 23.3515 10.446 23.1114C10.446 22.8505 10.8118 22.8091 11.0313 22.8091H11.1817V23.3805ZM10.8728 21.7821C10.6858 21.7821 10.4907 21.8318 10.3282 21.9229L10.3119 21.9311V22.2252L10.3525 22.2045C10.4867 22.1341 10.637 22.0678 10.8443 22.0678C11.0597 22.0678 11.1776 22.1796 11.1776 22.3784V22.5606H11.011C10.4542 22.5606 10.1493 22.7552 10.1493 23.1114C10.1493 23.4675 10.4257 23.658 10.95 23.658C11.1126 23.658 11.2995 23.6331 11.4459 23.5917L11.4662 23.5876V22.3618C11.4703 21.9808 11.263 21.7821 10.8728 21.7821ZM15.2217 23.6249H15.5143V20.9456H15.2217V23.6249ZM13.6935 22.5068C13.7626 22.221 13.9536 22.0512 14.2097 22.0512C14.4982 22.0512 14.6527 22.2045 14.6771 22.5068H13.6935ZM14.1528 21.7821C13.6732 21.7821 13.3114 22.1879 13.3114 22.7221C13.3114 23.2853 13.6732 23.6663 14.2137 23.6663C14.4495 23.6663 14.669 23.6041 14.8153 23.4923L14.8275 23.4841V23.1735L14.7828 23.2066C14.608 23.3433 14.4413 23.3971 14.2137 23.3971C13.917 23.3971 13.6163 23.1818 13.6041 22.7635H14.9006V22.573C14.9006 22.0802 14.6202 21.7821 14.1528 21.7821Z" fill="#00A395"/>
<path d="M13.0919 17.6824L11.7344 16.2993L10.3769 17.6824H-0.0239258V19.3099H10.7874H10.9053L11.7344 18.4693L12.5636 19.3099H12.6814H31.7761V17.6824H13.0919Z" fill="#00A395"/>
</g>
<defs>
<clipPath id="clip0_1_1034">
<rect width="32" height="27" fill="white"/>
</clipPath>
</defs>
</svg>
