<svg width="32" height="32" viewBox="0 0 32 32" fill="none" xmlns="http://www.w3.org/2000/svg">
<mask id="mask0_1_395" style="mask-type:alpha" maskUnits="userSpaceOnUse" x="0" y="0" width="32" height="32">
<rect width="32" height="32" fill="#D9D9D9"/>
</mask>
<g mask="url(#mask0_1_395)">
<path d="M16 30.6666C13.5111 30.6666 11.2222 30.0944 9.13333 28.95C7.04444 27.8055 5.33333 26.2889 4 24.4V26.6666H1.33333V20H8V22.6666H6.06667C7.13333 24.2666 8.53333 25.5555 10.2667 26.5333C12 27.5111 13.9111 28 16 28C17.6667 28 19.2278 27.6833 20.6833 27.05C22.1389 26.4166 23.4056 25.5611 24.4833 24.4833C25.5611 23.4055 26.4167 22.1389 27.05 20.6833C27.6833 19.2278 28 17.6666 28 16H30.6667C30.6667 18.0222 30.2833 19.9222 29.5167 21.7C28.75 23.4778 27.7 25.0333 26.3667 26.3666C25.0333 27.7 23.4778 28.75 21.7 29.5166C19.9222 30.2833 18.0222 30.6666 16 30.6666ZM9.8 5.76665L8.66667 3.29998C9.8 2.65554 10.95 2.16665 12.1167 1.83331C13.2833 1.49998 14.5778 1.33331 16 1.33331C18.4889 1.33331 20.7778 1.90554 22.8667 3.04998C24.9556 4.19442 26.6667 5.71109 28 7.59998V5.33331H30.6667V12H24V9.33331H25.9333C24.8667 7.73331 23.4667 6.44442 21.7333 5.46665C20 4.48887 18.0889 3.99998 16 3.99998C14.8222 3.99998 13.7278 4.16109 12.7167 4.48331C11.7056 4.80554 10.7333 5.23331 9.8 5.76665ZM5.33333 16L3.66667 12.3333L0 10.6666L3.66667 8.99998L5.33333 5.33331L7 8.99998L10.6667 10.6666L7 12.3333L5.33333 16Z" fill="#64D582"/>
<path d="M15.4114 23.8633V21.9522C14.6556 21.7744 14.0032 21.4337 13.4542 20.9299C12.9051 20.4262 12.5023 19.7151 12.2456 18.7966L13.8285 18.1299C14.0424 18.8411 14.3597 19.3818 14.7804 19.7522C15.201 20.1225 15.7536 20.3077 16.4381 20.3077C17.0228 20.3077 17.5183 20.1707 17.9248 19.8966C18.3312 19.6225 18.5344 19.1966 18.5344 18.6188C18.5344 18.1003 18.3775 17.6892 18.0638 17.3855C17.7501 17.0818 17.0228 16.7374 15.882 16.3522C14.6556 15.9522 13.8142 15.4744 13.3579 14.9188C12.9016 14.3633 12.6734 13.6855 12.6734 12.8855C12.6734 11.9225 12.9729 11.1744 13.5718 10.6411C14.1707 10.1077 14.7839 9.80402 15.4114 9.72995V7.86328H17.1226V9.72995C17.8356 9.84847 18.4239 10.1188 18.8873 10.5411C19.3508 10.9633 19.6895 11.4781 19.9034 12.0855L18.3205 12.7966C18.1493 12.3225 17.9069 11.967 17.5932 11.7299C17.2795 11.4929 16.8517 11.3744 16.3098 11.3744C15.6823 11.3744 15.2046 11.5188 14.8766 11.8077C14.5486 12.0966 14.3846 12.4559 14.3846 12.8855C14.3846 13.3744 14.5985 13.7596 15.0264 14.0411C15.4542 14.3225 16.1957 14.6188 17.251 14.9299C18.2349 15.2262 18.98 15.6966 19.4862 16.3411C19.9925 16.9855 20.2456 17.7299 20.2456 18.5744C20.2456 19.6262 19.9461 20.4262 19.3472 20.9744C18.7483 21.5225 18.0067 21.8633 17.1226 21.9966V23.8633H15.4114Z" fill="#64D582"/>
</g>
</svg>
