<svg width="74" height="25" viewBox="0 0 74 25" fill="none" xmlns="http://www.w3.org/2000/svg">
<g clip-path="url(#clip0_1_997)">
<path d="M31.4538 12.8206C31.4538 16.2907 28.7391 18.8478 25.4076 18.8478C22.0761 18.8478 19.3614 16.2907 19.3614 12.8206C19.3614 9.32607 22.0761 6.79346 25.4076 6.79346C28.7391 6.79346 31.4538 9.32607 31.4538 12.8206ZM28.8071 12.8206C28.8071 10.6522 27.2337 9.16846 25.4076 9.16846C23.5815 9.16846 22.0082 10.6522 22.0082 12.8206C22.0082 14.9674 23.5815 16.4728 25.4076 16.4728C27.2337 16.4728 28.8071 14.9647 28.8071 12.8206Z" fill="#EA4335"/>
<path d="M44.4973 12.8206C44.4973 16.2907 41.7826 18.8478 38.4511 18.8478C35.1196 18.8478 32.4049 16.2907 32.4049 12.8206C32.4049 9.32878 35.1196 6.79346 38.4511 6.79346C41.7826 6.79346 44.4973 9.32607 44.4973 12.8206ZM41.8505 12.8206C41.8505 10.6522 40.2772 9.16846 38.4511 9.16846C36.625 9.16846 35.0516 10.6522 35.0516 12.8206C35.0516 14.9674 36.625 16.4728 38.4511 16.4728C40.2772 16.4728 41.8505 14.9647 41.8505 12.8206Z" fill="#FBBC05"/>
<path d="M56.9973 7.15759V17.9782C56.9973 22.4293 54.3723 24.2473 51.269 24.2473C48.3478 24.2473 46.5897 22.2935 45.9266 20.6956L48.231 19.7364C48.6413 20.7174 49.6467 21.875 51.2663 21.875C53.2527 21.875 54.4837 20.6494 54.4837 18.3424V17.4755H54.3913C53.7989 18.2065 52.6576 18.8451 51.2174 18.8451C48.2038 18.8451 45.4429 16.2201 45.4429 12.8424C45.4429 9.4402 48.2038 6.79346 51.2174 6.79346C52.6549 6.79346 53.7962 7.43204 54.3913 8.14128H54.4837V7.1603H56.9973V7.15759ZM54.6712 12.8424C54.6712 10.7201 53.2554 9.16846 51.4538 9.16846C49.6277 9.16846 48.0978 10.7201 48.0978 12.8424C48.0978 14.9429 49.6277 16.4728 51.4538 16.4728C53.2554 16.4728 54.6712 14.9429 54.6712 12.8424Z" fill="#4285F4"/>
<path d="M61.1413 0.815186V18.4782H58.5598V0.815186H61.1413Z" fill="#34A853"/>
<path d="M71.2011 14.8044L73.2554 16.1739C72.5924 17.1549 70.9946 18.8451 68.2337 18.8451C64.8098 18.8451 62.2527 16.1984 62.2527 12.8179C62.2527 9.23371 64.8315 6.79077 67.9375 6.79077C71.0652 6.79077 72.5951 9.2799 73.0951 10.625L73.3696 11.3098L65.3125 14.6468C65.9293 15.856 66.8886 16.4728 68.2337 16.4728C69.5815 16.4728 70.5163 15.8098 71.2011 14.8044ZM64.8777 12.6359L70.2636 10.3995C69.9674 9.64675 69.0761 9.12229 68.0272 9.12229C66.6821 9.12229 64.8098 10.3098 64.8777 12.6359Z" fill="#EA4335"/>
<path d="M9.58967 11.2527V8.69562H18.2065C18.2908 9.14127 18.3342 9.66845 18.3342 10.2391C18.3342 12.1576 17.8098 14.5299 16.1196 16.2201C14.4755 17.932 12.375 18.8451 9.59239 18.8451C4.43478 18.8451 0.0978241 14.644 0.0978241 9.48638C0.0978241 4.32877 4.43478 0.127686 9.59239 0.127686C12.4456 0.127686 14.4783 1.24725 16.0054 2.70649L14.2011 4.51084C13.106 3.48366 11.6223 2.68475 9.58967 2.68475C5.82337 2.68475 2.87772 5.72008 2.87772 9.48638C2.87772 13.2527 5.82337 16.288 9.58967 16.288C12.0326 16.288 13.4239 15.307 14.3152 14.4157C15.038 13.6929 15.5136 12.6603 15.7011 11.25L9.58967 11.2527Z" fill="#4285F4"/>
</g>
<defs>
<clipPath id="clip0_1_997">
<rect width="73.913" height="25" fill="white"/>
</clipPath>
</defs>
</svg>
