<svg width="32" height="32" viewBox="0 0 32 32" fill="none" xmlns="http://www.w3.org/2000/svg">
<mask id="mask0_1_387" style="mask-type:alpha" maskUnits="userSpaceOnUse" x="0" y="0" width="32" height="32">
<rect width="32" height="32" fill="#D9D9D9"/>
</mask>
<g mask="url(#mask0_1_387)">
<path d="M16 32C12.525 31.1055 9.65625 29.0675 7.39375 25.8858C5.13125 22.7041 4 19.1711 4 15.2866V5.93331L16 1.33331L28 5.93331V15.2866C28 19.1711 26.8688 22.7041 24.6063 25.8858C22.3438 29.0675 19.475 31.1055 16 32Z" fill="#64D582"/>
<path d="M15.1658 24V22.0889C14.41 21.9111 13.7576 21.5704 13.2086 21.0667C12.6595 20.563 12.2567 19.8519 12 18.9333L13.5829 18.2667C13.7968 18.9778 14.1141 19.5185 14.5348 19.8889C14.9554 20.2593 15.508 20.4444 16.1925 20.4444C16.7772 20.4444 17.2727 20.3074 17.6791 20.0333C18.0856 19.7593 18.2888 19.3333 18.2888 18.7556C18.2888 18.237 18.1319 17.8259 17.8182 17.5222C17.5045 17.2185 16.7772 16.8741 15.6364 16.4889C14.41 16.0889 13.5686 15.6111 13.1123 15.0556C12.656 14.5 12.4278 13.8222 12.4278 13.0222C12.4278 12.0593 12.7273 11.3111 13.3262 10.7778C13.9251 10.2444 14.5383 9.94074 15.1658 9.86667V8H16.877V9.86667C17.59 9.98519 18.1783 10.2556 18.6417 10.6778C19.1052 11.1 19.4438 11.6148 19.6578 12.2222L18.0749 12.9333C17.9037 12.4593 17.6613 12.1037 17.3476 11.8667C17.0339 11.6296 16.6061 11.5111 16.0642 11.5111C15.4367 11.5111 14.959 11.6556 14.631 11.9444C14.303 12.2333 14.139 12.5926 14.139 13.0222C14.139 13.5111 14.3529 13.8963 14.7807 14.1778C15.2086 14.4593 15.9501 14.7556 17.0053 15.0667C17.9893 15.363 18.7344 15.8333 19.2406 16.4778C19.7469 17.1222 20 17.8667 20 18.7111C20 19.763 19.7005 20.563 19.1016 21.1111C18.5027 21.6593 17.7611 22 16.877 22.1333V24H15.1658Z" fill="white"/>
</g>
</svg>
