<svg width="1024" height="914" viewBox="0 0 1024 914" fill="none" xmlns="http://www.w3.org/2000/svg">
<g style="mix-blend-mode:hard-light" opacity="0.25">
<path opacity="0.35" d="M3.67864 7.32039C5.7103 7.32039 7.35728 5.8519 7.35728 4.04043C7.35728 2.22896 5.7103 0.760468 3.67864 0.760468C1.64698 0.760468 0 2.22896 0 4.04043C0 5.8519 1.64698 7.32039 3.67864 7.32039Z" fill="white"/>
<path opacity="0.35" d="M60.1587 7.32039C62.1903 7.32039 63.8373 5.8519 63.8373 4.04043C63.8373 2.22896 62.1903 0.760468 60.1587 0.760468C58.127 0.760468 56.48 2.22896 56.48 4.04043C56.48 5.8519 58.127 7.32039 60.1587 7.32039Z" fill="white"/>
<path opacity="0.35" d="M116.639 7.32039C118.67 7.32039 120.317 5.8519 120.317 4.04043C120.317 2.22896 118.67 0.760468 116.639 0.760468C114.607 0.760468 112.96 2.22896 112.96 4.04043C112.96 5.8519 114.607 7.32039 116.639 7.32039Z" fill="white"/>
<path opacity="0.35" d="M173.119 7.32039C175.151 7.32039 176.798 5.8519 176.798 4.04043C176.798 2.22896 175.151 0.760468 173.119 0.760468C171.087 0.760468 169.44 2.22896 169.44 4.04043C169.44 5.8519 171.087 7.32039 173.119 7.32039Z" fill="white"/>
<path opacity="0.35" d="M229.599 7.32039C231.631 7.32039 233.278 5.8519 233.278 4.04043C233.278 2.22896 231.631 0.760468 229.599 0.760468C227.568 0.760468 225.921 2.22896 225.921 4.04043C225.921 5.8519 227.568 7.32039 229.599 7.32039Z" fill="white"/>
<path opacity="0.35" d="M286.08 7.32039C288.111 7.32039 289.758 5.8519 289.758 4.04043C289.758 2.22896 288.111 0.760468 286.08 0.760468C284.048 0.760468 282.401 2.22896 282.401 4.04043C282.401 5.8519 284.048 7.32039 286.08 7.32039Z" fill="white"/>
<path opacity="0.35" d="M342.56 7.32039C344.592 7.32039 346.239 5.8519 346.239 4.04043C346.239 2.22896 344.592 0.760468 342.56 0.760468C340.528 0.760468 338.881 2.22896 338.881 4.04043C338.881 5.8519 340.528 7.32039 342.56 7.32039Z" fill="white"/>
<path opacity="0.35" d="M399.04 7.32039C401.072 7.32039 402.719 5.8519 402.719 4.04043C402.719 2.22896 401.072 0.760468 399.04 0.760468C397.008 0.760468 395.361 2.22896 395.361 4.04043C395.361 5.8519 397.008 7.32039 399.04 7.32039Z" fill="white"/>
<path opacity="0.35" d="M455.52 7.32039C457.552 7.32039 459.199 5.8519 459.199 4.04043C459.199 2.22896 457.552 0.760468 455.52 0.760468C453.488 0.760468 451.841 2.22896 451.841 4.04043C451.841 5.8519 453.488 7.32039 455.52 7.32039Z" fill="white"/>
<path opacity="0.35" d="M512 7.32039C514.032 7.32039 515.679 5.8519 515.679 4.04043C515.679 2.22896 514.032 0.760468 512 0.760468C509.968 0.760468 508.321 2.22896 508.321 4.04043C508.321 5.8519 509.968 7.32039 512 7.32039Z" fill="white"/>
<path opacity="0.35" d="M568.48 7.32039C570.512 7.32039 572.159 5.8519 572.159 4.04043C572.159 2.22896 570.512 0.760468 568.48 0.760468C566.449 0.760468 564.802 2.22896 564.802 4.04043C564.802 5.8519 566.449 7.32039 568.48 7.32039Z" fill="white"/>
<path opacity="0.35" d="M624.96 7.32039C626.992 7.32039 628.639 5.8519 628.639 4.04043C628.639 2.22896 626.992 0.760468 624.96 0.760468C622.929 0.760468 621.282 2.22896 621.282 4.04043C621.282 5.8519 622.929 7.32039 624.96 7.32039Z" fill="white"/>
<path opacity="0.35" d="M681.44 7.32039C683.472 7.32039 685.119 5.8519 685.119 4.04043C685.119 2.22896 683.472 0.760468 681.44 0.760468C679.408 0.760468 677.761 2.22896 677.761 4.04043C677.761 5.8519 679.408 7.32039 681.44 7.32039Z" fill="white"/>
<path opacity="0.35" d="M737.921 7.32039C739.952 7.32039 741.599 5.8519 741.599 4.04043C741.599 2.22896 739.952 0.760468 737.921 0.760468C735.889 0.760468 734.242 2.22896 734.242 4.04043C734.242 5.8519 735.889 7.32039 737.921 7.32039Z" fill="white"/>
<path opacity="0.35" d="M794.401 7.32039C796.433 7.32039 798.08 5.8519 798.08 4.04043C798.08 2.22896 796.433 0.760468 794.401 0.760468C792.369 0.760468 790.722 2.22896 790.722 4.04043C790.722 5.8519 792.369 7.32039 794.401 7.32039Z" fill="white"/>
<path opacity="0.35" d="M850.881 7.32039C852.913 7.32039 854.56 5.8519 854.56 4.04043C854.56 2.22896 852.913 0.760468 850.881 0.760468C848.85 0.760468 847.203 2.22896 847.203 4.04043C847.203 5.8519 848.85 7.32039 850.881 7.32039Z" fill="white"/>
<path opacity="0.35" d="M907.361 7.32039C909.393 7.32039 911.04 5.8519 911.04 4.04043C911.04 2.22896 909.393 0.760468 907.361 0.760468C905.33 0.760468 903.683 2.22896 903.683 4.04043C903.683 5.8519 905.33 7.32039 907.361 7.32039Z" fill="white"/>
<path opacity="0.35" d="M963.841 7.32039C965.873 7.32039 967.52 5.8519 967.52 4.04043C967.52 2.22896 965.873 0.760468 963.841 0.760468C961.809 0.760468 960.162 2.22896 960.162 4.04043C960.162 5.8519 961.809 7.32039 963.841 7.32039Z" fill="white"/>
<path opacity="0.35" d="M1020.32 7.32039C1022.35 7.32039 1024 5.8519 1024 4.04043C1024 2.22896 1022.35 0.760468 1020.32 0.760468C1018.29 0.760468 1016.64 2.22896 1016.64 4.04043C1016.64 5.8519 1018.29 7.32039 1020.32 7.32039Z" fill="white"/>
<path opacity="0.35" d="M3.6787 57.6793C5.71036 57.6793 7.35734 56.2108 7.35734 54.3993C7.35734 52.5879 5.71036 51.1194 3.6787 51.1194C1.64704 51.1194 6.10352e-05 52.5879 6.10352e-05 54.3993C6.10352e-05 56.2108 1.64704 57.6793 3.6787 57.6793Z" fill="white"/>
<path d="M60.1587 57.6792C62.1903 57.6792 63.8373 56.2108 63.8373 54.3993C63.8373 52.5878 62.1903 51.1193 60.1587 51.1193C58.127 51.1193 56.48 52.5878 56.48 54.3993C56.48 56.2108 58.127 57.6792 60.1587 57.6792Z" fill="white"/>
<path opacity="0.35" d="M116.639 57.6792C118.67 57.6792 120.317 56.2108 120.317 54.3993C120.317 52.5878 118.67 51.1193 116.639 51.1193C114.607 51.1193 112.96 52.5878 112.96 54.3993C112.96 56.2108 114.607 57.6792 116.639 57.6792Z" fill="white"/>
<path d="M173.119 57.6792C175.151 57.6792 176.798 56.2108 176.798 54.3993C176.798 52.5878 175.151 51.1193 173.119 51.1193C171.087 51.1193 169.44 52.5878 169.44 54.3993C169.44 56.2108 171.087 57.6792 173.119 57.6792Z" fill="white"/>
<path d="M229.599 57.6792C231.631 57.6792 233.278 56.2108 233.278 54.3993C233.278 52.5878 231.631 51.1193 229.599 51.1193C227.568 51.1193 225.921 52.5878 225.921 54.3993C225.921 56.2108 227.568 57.6792 229.599 57.6792Z" fill="white"/>
<path d="M286.08 57.6792C288.111 57.6792 289.758 56.2108 289.758 54.3993C289.758 52.5878 288.111 51.1193 286.08 51.1193C284.048 51.1193 282.401 52.5878 282.401 54.3993C282.401 56.2108 284.048 57.6792 286.08 57.6792Z" fill="white"/>
<path opacity="0.35" d="M342.56 57.6792C344.592 57.6792 346.239 56.2108 346.239 54.3993C346.239 52.5878 344.592 51.1193 342.56 51.1193C340.528 51.1193 338.881 52.5878 338.881 54.3993C338.881 56.2108 340.528 57.6792 342.56 57.6792Z" fill="white"/>
<path opacity="0.35" d="M399.04 57.6792C401.072 57.6792 402.719 56.2108 402.719 54.3993C402.719 52.5878 401.072 51.1193 399.04 51.1193C397.008 51.1193 395.361 52.5878 395.361 54.3993C395.361 56.2108 397.008 57.6792 399.04 57.6792Z" fill="white"/>
<path opacity="0.35" d="M455.52 57.6792C457.552 57.6792 459.199 56.2108 459.199 54.3993C459.199 52.5878 457.552 51.1193 455.52 51.1193C453.488 51.1193 451.841 52.5878 451.841 54.3993C451.841 56.2108 453.488 57.6792 455.52 57.6792Z" fill="white"/>
<path opacity="0.35" d="M512 57.6792C514.032 57.6792 515.679 56.2108 515.679 54.3993C515.679 52.5878 514.032 51.1193 512 51.1193C509.968 51.1193 508.321 52.5878 508.321 54.3993C508.321 56.2108 509.968 57.6792 512 57.6792Z" fill="white"/>
<path d="M568.48 57.6792C570.512 57.6792 572.159 56.2108 572.159 54.3993C572.159 52.5878 570.512 51.1193 568.48 51.1193C566.449 51.1193 564.802 52.5878 564.802 54.3993C564.802 56.2108 566.449 57.6792 568.48 57.6792Z" fill="white"/>
<path d="M624.96 57.6792C626.992 57.6792 628.639 56.2108 628.639 54.3993C628.639 52.5878 626.992 51.1193 624.96 51.1193C622.929 51.1193 621.282 52.5878 621.282 54.3993C621.282 56.2108 622.929 57.6792 624.96 57.6792Z" fill="white"/>
<path opacity="0.35" d="M681.44 57.6792C683.472 57.6792 685.119 56.2108 685.119 54.3993C685.119 52.5878 683.472 51.1193 681.44 51.1193C679.408 51.1193 677.761 52.5878 677.761 54.3993C677.761 56.2108 679.408 57.6792 681.44 57.6792Z" fill="white"/>
<path d="M737.921 57.6792C739.952 57.6792 741.599 56.2108 741.599 54.3993C741.599 52.5878 739.952 51.1193 737.921 51.1193C735.889 51.1193 734.242 52.5878 734.242 54.3993C734.242 56.2108 735.889 57.6792 737.921 57.6792Z" fill="white"/>
<path opacity="0.35" d="M794.401 57.6792C796.433 57.6792 798.08 56.2108 798.08 54.3993C798.08 52.5878 796.433 51.1193 794.401 51.1193C792.369 51.1193 790.722 52.5878 790.722 54.3993C790.722 56.2108 792.369 57.6792 794.401 57.6792Z" fill="white"/>
<path opacity="0.35" d="M850.881 57.6792C852.913 57.6792 854.56 56.2108 854.56 54.3993C854.56 52.5878 852.913 51.1193 850.881 51.1193C848.85 51.1193 847.203 52.5878 847.203 54.3993C847.203 56.2108 848.85 57.6792 850.881 57.6792Z" fill="white"/>
<path opacity="0.35" d="M907.361 57.6792C909.393 57.6792 911.04 56.2108 911.04 54.3993C911.04 52.5878 909.393 51.1193 907.361 51.1193C905.33 51.1193 903.683 52.5878 903.683 54.3993C903.683 56.2108 905.33 57.6792 907.361 57.6792Z" fill="white"/>
<path opacity="0.35" d="M963.841 57.6792C965.873 57.6792 967.52 56.2108 967.52 54.3993C967.52 52.5878 965.873 51.1193 963.841 51.1193C961.809 51.1193 960.162 52.5878 960.162 54.3993C960.162 56.2108 961.809 57.6792 963.841 57.6792Z" fill="white"/>
<path opacity="0.35" d="M1020.32 57.6792C1022.35 57.6792 1024 56.2108 1024 54.3993C1024 52.5878 1022.35 51.1193 1020.32 51.1193C1018.29 51.1193 1016.64 52.5878 1016.64 54.3993C1016.64 56.2108 1018.29 57.6792 1020.32 57.6792Z" fill="white"/>
<path opacity="0.35" d="M3.6787 108.038C5.71036 108.038 7.35734 106.57 7.35734 104.758C7.35734 102.947 5.71036 101.478 3.6787 101.478C1.64704 101.478 6.10352e-05 102.947 6.10352e-05 104.758C6.10352e-05 106.57 1.64704 108.038 3.6787 108.038Z" fill="white"/>
<path opacity="0.35" d="M60.1587 108.038C62.1903 108.038 63.8373 106.57 63.8373 104.758C63.8373 102.947 62.1903 101.478 60.1587 101.478C58.127 101.478 56.48 102.947 56.48 104.758C56.48 106.57 58.127 108.038 60.1587 108.038Z" fill="white"/>
<path opacity="0.35" d="M116.639 108.038C118.67 108.038 120.317 106.57 120.317 104.758C120.317 102.947 118.67 101.478 116.639 101.478C114.607 101.478 112.96 102.947 112.96 104.758C112.96 106.57 114.607 108.038 116.639 108.038Z" fill="white"/>
<path d="M173.119 108.038C175.151 108.038 176.798 106.57 176.798 104.758C176.798 102.947 175.151 101.478 173.119 101.478C171.087 101.478 169.44 102.947 169.44 104.758C169.44 106.57 171.087 108.038 173.119 108.038Z" fill="white"/>
<path d="M229.599 108.038C231.631 108.038 233.278 106.57 233.278 104.758C233.278 102.947 231.631 101.478 229.599 101.478C227.568 101.478 225.921 102.947 225.921 104.758C225.921 106.57 227.568 108.038 229.599 108.038Z" fill="white"/>
<path opacity="0.35" d="M286.08 108.038C288.111 108.038 289.758 106.57 289.758 104.758C289.758 102.947 288.111 101.478 286.08 101.478C284.048 101.478 282.401 102.947 282.401 104.758C282.401 106.57 284.048 108.038 286.08 108.038Z" fill="white"/>
<path opacity="0.35" d="M342.56 108.038C344.592 108.038 346.239 106.57 346.239 104.758C346.239 102.947 344.592 101.478 342.56 101.478C340.528 101.478 338.881 102.947 338.881 104.758C338.881 106.57 340.528 108.038 342.56 108.038Z" fill="white"/>
<path opacity="0.35" d="M399.04 108.038C401.072 108.038 402.719 106.57 402.719 104.758C402.719 102.947 401.072 101.478 399.04 101.478C397.008 101.478 395.361 102.947 395.361 104.758C395.361 106.57 397.008 108.038 399.04 108.038Z" fill="white"/>
<path opacity="0.35" d="M455.52 108.038C457.552 108.038 459.199 106.57 459.199 104.758C459.199 102.947 457.552 101.478 455.52 101.478C453.488 101.478 451.841 102.947 451.841 104.758C451.841 106.57 453.488 108.038 455.52 108.038Z" fill="white"/>
<path opacity="0.35" d="M512 108.038C514.032 108.038 515.679 106.57 515.679 104.758C515.679 102.947 514.032 101.478 512 101.478C509.968 101.478 508.321 102.947 508.321 104.758C508.321 106.57 509.968 108.038 512 108.038Z" fill="white"/>
<path opacity="0.35" d="M568.48 108.038C570.512 108.038 572.159 106.57 572.159 104.758C572.159 102.947 570.512 101.478 568.48 101.478C566.449 101.478 564.802 102.947 564.802 104.758C564.802 106.57 566.449 108.038 568.48 108.038Z" fill="white"/>
<path opacity="0.35" d="M624.96 108.038C626.992 108.038 628.639 106.57 628.639 104.758C628.639 102.947 626.992 101.478 624.96 101.478C622.929 101.478 621.282 102.947 621.282 104.758C621.282 106.57 622.929 108.038 624.96 108.038Z" fill="white"/>
<path opacity="0.35" d="M681.44 108.038C683.472 108.038 685.119 106.57 685.119 104.758C685.119 102.947 683.472 101.478 681.44 101.478C679.408 101.478 677.761 102.947 677.761 104.758C677.761 106.57 679.408 108.038 681.44 108.038Z" fill="white"/>
<path opacity="0.35" d="M737.921 108.038C739.952 108.038 741.599 106.57 741.599 104.758C741.599 102.947 739.952 101.478 737.921 101.478C735.889 101.478 734.242 102.947 734.242 104.758C734.242 106.57 735.889 108.038 737.921 108.038Z" fill="white"/>
<path d="M794.401 108.038C796.433 108.038 798.08 106.57 798.08 104.758C798.08 102.947 796.433 101.478 794.401 101.478C792.369 101.478 790.722 102.947 790.722 104.758C790.722 106.57 792.369 108.038 794.401 108.038Z" fill="white"/>
<path d="M850.881 108.038C852.913 108.038 854.56 106.57 854.56 104.758C854.56 102.947 852.913 101.478 850.881 101.478C848.85 101.478 847.203 102.947 847.203 104.758C847.203 106.57 848.85 108.038 850.881 108.038Z" fill="white"/>
<path opacity="0.35" d="M907.361 108.038C909.393 108.038 911.04 106.57 911.04 104.758C911.04 102.947 909.393 101.478 907.361 101.478C905.33 101.478 903.683 102.947 903.683 104.758C903.683 106.57 905.33 108.038 907.361 108.038Z" fill="white"/>
<path opacity="0.35" d="M963.841 108.038C965.873 108.038 967.52 106.57 967.52 104.758C967.52 102.947 965.873 101.478 963.841 101.478C961.809 101.478 960.162 102.947 960.162 104.758C960.162 106.57 961.809 108.038 963.841 108.038Z" fill="white"/>
<path opacity="0.35" d="M1020.32 108.038C1022.35 108.038 1024 106.57 1024 104.758C1024 102.947 1022.35 101.478 1020.32 101.478C1018.29 101.478 1016.64 102.947 1016.64 104.758C1016.64 106.57 1018.29 108.038 1020.32 108.038Z" fill="white"/>
<path opacity="0.35" d="M3.6787 158.397C5.71036 158.397 7.35734 156.929 7.35734 155.117C7.35734 153.306 5.71036 151.837 3.6787 151.837C1.64704 151.837 6.10352e-05 153.306 6.10352e-05 155.117C6.10352e-05 156.929 1.64704 158.397 3.6787 158.397Z" fill="white"/>
<path d="M60.1587 158.397C62.1903 158.397 63.8373 156.929 63.8373 155.117C63.8373 153.306 62.1903 151.837 60.1587 151.837C58.127 151.837 56.48 153.306 56.48 155.117C56.48 156.929 58.127 158.397 60.1587 158.397Z" fill="white"/>
<path d="M116.639 158.397C118.67 158.397 120.317 156.929 120.317 155.117C120.317 153.306 118.67 151.837 116.639 151.837C114.607 151.837 112.96 153.306 112.96 155.117C112.96 156.929 114.607 158.397 116.639 158.397Z" fill="white"/>
<path opacity="0.35" d="M173.119 158.397C175.151 158.397 176.798 156.929 176.798 155.117C176.798 153.306 175.151 151.837 173.119 151.837C171.087 151.837 169.44 153.306 169.44 155.117C169.44 156.929 171.087 158.397 173.119 158.397Z" fill="white"/>
<path d="M229.599 158.397C231.631 158.397 233.278 156.929 233.278 155.117C233.278 153.306 231.631 151.837 229.599 151.837C227.568 151.837 225.921 153.306 225.921 155.117C225.921 156.929 227.568 158.397 229.599 158.397Z" fill="white"/>
<path opacity="0.35" d="M286.08 158.397C288.111 158.397 289.758 156.929 289.758 155.117C289.758 153.306 288.111 151.837 286.08 151.837C284.048 151.837 282.401 153.306 282.401 155.117C282.401 156.929 284.048 158.397 286.08 158.397Z" fill="white"/>
<path d="M342.56 158.397C344.592 158.397 346.239 156.929 346.239 155.117C346.239 153.306 344.592 151.837 342.56 151.837C340.528 151.837 338.881 153.306 338.881 155.117C338.881 156.929 340.528 158.397 342.56 158.397Z" fill="white"/>
<path opacity="0.35" d="M399.04 158.397C401.072 158.397 402.719 156.929 402.719 155.117C402.719 153.306 401.072 151.837 399.04 151.837C397.008 151.837 395.361 153.306 395.361 155.117C395.361 156.929 397.008 158.397 399.04 158.397Z" fill="white"/>
<path opacity="0.35" d="M455.52 158.397C457.552 158.397 459.199 156.929 459.199 155.117C459.199 153.306 457.552 151.837 455.52 151.837C453.488 151.837 451.841 153.306 451.841 155.117C451.841 156.929 453.488 158.397 455.52 158.397Z" fill="white"/>
<path d="M512 158.397C514.032 158.397 515.679 156.929 515.679 155.117C515.679 153.306 514.032 151.837 512 151.837C509.968 151.837 508.321 153.306 508.321 155.117C508.321 156.929 509.968 158.397 512 158.397Z" fill="white"/>
<path d="M568.48 158.397C570.512 158.397 572.159 156.929 572.159 155.117C572.159 153.306 570.512 151.837 568.48 151.837C566.449 151.837 564.802 153.306 564.802 155.117C564.802 156.929 566.449 158.397 568.48 158.397Z" fill="white"/>
<path opacity="0.35" d="M624.96 158.397C626.992 158.397 628.639 156.929 628.639 155.117C628.639 153.306 626.992 151.837 624.96 151.837C622.929 151.837 621.282 153.306 621.282 155.117C621.282 156.929 622.929 158.397 624.96 158.397Z" fill="white"/>
<path opacity="0.35" d="M681.44 158.397C683.472 158.397 685.119 156.929 685.119 155.117C685.119 153.306 683.472 151.837 681.44 151.837C679.408 151.837 677.761 153.306 677.761 155.117C677.761 156.929 679.408 158.397 681.44 158.397Z" fill="white"/>
<path opacity="0.35" d="M737.921 158.397C739.952 158.397 741.599 156.929 741.599 155.117C741.599 153.306 739.952 151.837 737.921 151.837C735.889 151.837 734.242 153.306 734.242 155.117C734.242 156.929 735.889 158.397 737.921 158.397Z" fill="white"/>
<path opacity="0.35" d="M794.401 158.397C796.433 158.397 798.08 156.929 798.08 155.117C798.08 153.306 796.433 151.837 794.401 151.837C792.369 151.837 790.722 153.306 790.722 155.117C790.722 156.929 792.369 158.397 794.401 158.397Z" fill="white"/>
<path opacity="0.35" d="M850.881 158.397C852.913 158.397 854.56 156.929 854.56 155.117C854.56 153.306 852.913 151.837 850.881 151.837C848.85 151.837 847.203 153.306 847.203 155.117C847.203 156.929 848.85 158.397 850.881 158.397Z" fill="white"/>
<path opacity="0.35" d="M907.361 158.397C909.393 158.397 911.04 156.929 911.04 155.117C911.04 153.306 909.393 151.837 907.361 151.837C905.33 151.837 903.683 153.306 903.683 155.117C903.683 156.929 905.33 158.397 907.361 158.397Z" fill="white"/>
<path opacity="0.35" d="M963.841 158.397C965.873 158.397 967.52 156.929 967.52 155.117C967.52 153.306 965.873 151.837 963.841 151.837C961.809 151.837 960.162 153.306 960.162 155.117C960.162 156.929 961.809 158.397 963.841 158.397Z" fill="white"/>
<path opacity="0.35" d="M1020.32 158.397C1022.35 158.397 1024 156.929 1024 155.117C1024 153.306 1022.35 151.837 1020.32 151.837C1018.29 151.837 1016.64 153.306 1016.64 155.117C1016.64 156.929 1018.29 158.397 1020.32 158.397Z" fill="white"/>
<path opacity="0.35" d="M3.6787 208.756C5.71036 208.756 7.35734 207.288 7.35734 205.476C7.35734 203.665 5.71036 202.196 3.6787 202.196C1.64704 202.196 6.10352e-05 203.665 6.10352e-05 205.476C6.10352e-05 207.288 1.64704 208.756 3.6787 208.756Z" fill="white"/>
<path opacity="0.35" d="M60.1587 208.756C62.1903 208.756 63.8373 207.288 63.8373 205.476C63.8373 203.665 62.1903 202.196 60.1587 202.196C58.127 202.196 56.48 203.665 56.48 205.476C56.48 207.288 58.127 208.756 60.1587 208.756Z" fill="white"/>
<path opacity="0.35" d="M116.639 208.756C118.67 208.756 120.317 207.288 120.317 205.476C120.317 203.665 118.67 202.196 116.639 202.196C114.607 202.196 112.96 203.665 112.96 205.476C112.96 207.288 114.607 208.756 116.639 208.756Z" fill="white"/>
<path opacity="0.35" d="M173.119 208.756C175.151 208.756 176.798 207.288 176.798 205.476C176.798 203.665 175.151 202.196 173.119 202.196C171.087 202.196 169.44 203.665 169.44 205.476C169.44 207.288 171.087 208.756 173.119 208.756Z" fill="white"/>
<path opacity="0.35" d="M229.599 208.756C231.631 208.756 233.278 207.288 233.278 205.476C233.278 203.665 231.631 202.196 229.599 202.196C227.568 202.196 225.921 203.665 225.921 205.476C225.921 207.288 227.568 208.756 229.599 208.756Z" fill="white"/>
<path opacity="0.35" d="M286.08 208.756C288.111 208.756 289.758 207.288 289.758 205.476C289.758 203.665 288.111 202.196 286.08 202.196C284.048 202.196 282.401 203.665 282.401 205.476C282.401 207.288 284.048 208.756 286.08 208.756Z" fill="white"/>
<path opacity="0.35" d="M342.56 208.756C344.592 208.756 346.239 207.288 346.239 205.476C346.239 203.665 344.592 202.196 342.56 202.196C340.528 202.196 338.881 203.665 338.881 205.476C338.881 207.288 340.528 208.756 342.56 208.756Z" fill="white"/>
<path d="M399.04 208.756C401.072 208.756 402.719 207.288 402.719 205.476C402.719 203.665 401.072 202.196 399.04 202.196C397.008 202.196 395.361 203.665 395.361 205.476C395.361 207.288 397.008 208.756 399.04 208.756Z" fill="white"/>
<path opacity="0.35" d="M455.52 208.756C457.552 208.756 459.199 207.288 459.199 205.476C459.199 203.665 457.552 202.196 455.52 202.196C453.488 202.196 451.841 203.665 451.841 205.476C451.841 207.288 453.488 208.756 455.52 208.756Z" fill="white"/>
<path d="M512 208.756C514.032 208.756 515.679 207.288 515.679 205.476C515.679 203.665 514.032 202.196 512 202.196C509.968 202.196 508.321 203.665 508.321 205.476C508.321 207.288 509.968 208.756 512 208.756Z" fill="white"/>
<path opacity="0.35" d="M568.48 208.756C570.512 208.756 572.159 207.288 572.159 205.476C572.159 203.665 570.512 202.196 568.48 202.196C566.449 202.196 564.802 203.665 564.802 205.476C564.802 207.288 566.449 208.756 568.48 208.756Z" fill="white"/>
<path d="M624.96 208.756C626.992 208.756 628.639 207.288 628.639 205.476C628.639 203.665 626.992 202.196 624.96 202.196C622.929 202.196 621.282 203.665 621.282 205.476C621.282 207.288 622.929 208.756 624.96 208.756Z" fill="white"/>
<path opacity="0.35" d="M681.44 208.756C683.472 208.756 685.119 207.288 685.119 205.476C685.119 203.665 683.472 202.196 681.44 202.196C679.408 202.196 677.761 203.665 677.761 205.476C677.761 207.288 679.408 208.756 681.44 208.756Z" fill="white"/>
<path d="M737.921 208.756C739.952 208.756 741.599 207.288 741.599 205.476C741.599 203.665 739.952 202.196 737.921 202.196C735.889 202.196 734.242 203.665 734.242 205.476C734.242 207.288 735.889 208.756 737.921 208.756Z" fill="white"/>
<path opacity="0.35" d="M794.401 208.756C796.433 208.756 798.08 207.288 798.08 205.476C798.08 203.665 796.433 202.196 794.401 202.196C792.369 202.196 790.722 203.665 790.722 205.476C790.722 207.288 792.369 208.756 794.401 208.756Z" fill="white"/>
<path opacity="0.35" d="M850.881 208.756C852.913 208.756 854.56 207.288 854.56 205.476C854.56 203.665 852.913 202.196 850.881 202.196C848.85 202.196 847.203 203.665 847.203 205.476C847.203 207.288 848.85 208.756 850.881 208.756Z" fill="white"/>
<path opacity="0.35" d="M907.361 208.756C909.393 208.756 911.04 207.288 911.04 205.476C911.04 203.665 909.393 202.196 907.361 202.196C905.33 202.196 903.683 203.665 903.683 205.476C903.683 207.288 905.33 208.756 907.361 208.756Z" fill="white"/>
<path opacity="0.35" d="M963.841 208.756C965.873 208.756 967.52 207.288 967.52 205.476C967.52 203.665 965.873 202.196 963.841 202.196C961.809 202.196 960.162 203.665 960.162 205.476C960.162 207.288 961.809 208.756 963.841 208.756Z" fill="white"/>
<path opacity="0.35" d="M1020.32 208.756C1022.35 208.756 1024 207.288 1024 205.476C1024 203.665 1022.35 202.196 1020.32 202.196C1018.29 202.196 1016.64 203.665 1016.64 205.476C1016.64 207.288 1018.29 208.756 1020.32 208.756Z" fill="white"/>
<path opacity="0.35" d="M3.6787 259.115C5.71036 259.115 7.35734 257.647 7.35734 255.835C7.35734 254.024 5.71036 252.555 3.6787 252.555C1.64704 252.555 6.10352e-05 254.024 6.10352e-05 255.835C6.10352e-05 257.647 1.64704 259.115 3.6787 259.115Z" fill="white"/>
<path opacity="0.35" d="M60.1587 259.115C62.1903 259.115 63.8373 257.647 63.8373 255.835C63.8373 254.024 62.1903 252.555 60.1587 252.555C58.127 252.555 56.48 254.024 56.48 255.835C56.48 257.647 58.127 259.115 60.1587 259.115Z" fill="white"/>
<path d="M116.639 259.115C118.67 259.115 120.317 257.647 120.317 255.835C120.317 254.024 118.67 252.555 116.639 252.555C114.607 252.555 112.96 254.024 112.96 255.835C112.96 257.647 114.607 259.115 116.639 259.115Z" fill="white"/>
<path opacity="0.35" d="M173.119 259.115C175.151 259.115 176.798 257.647 176.798 255.835C176.798 254.024 175.151 252.555 173.119 252.555C171.087 252.555 169.44 254.024 169.44 255.835C169.44 257.647 171.087 259.115 173.119 259.115Z" fill="white"/>
<path opacity="0.35" d="M229.599 259.115C231.631 259.115 233.278 257.647 233.278 255.835C233.278 254.024 231.631 252.555 229.599 252.555C227.568 252.555 225.921 254.024 225.921 255.835C225.921 257.647 227.568 259.115 229.599 259.115Z" fill="white"/>
<path opacity="0.35" d="M286.08 259.115C288.111 259.115 289.758 257.647 289.758 255.835C289.758 254.024 288.111 252.555 286.08 252.555C284.048 252.555 282.401 254.024 282.401 255.835C282.401 257.647 284.048 259.115 286.08 259.115Z" fill="white"/>
<path d="M342.56 259.115C344.592 259.115 346.239 257.647 346.239 255.835C346.239 254.024 344.592 252.555 342.56 252.555C340.528 252.555 338.881 254.024 338.881 255.835C338.881 257.647 340.528 259.115 342.56 259.115Z" fill="white"/>
<path d="M399.04 259.115C401.072 259.115 402.719 257.647 402.719 255.835C402.719 254.024 401.072 252.555 399.04 252.555C397.008 252.555 395.361 254.024 395.361 255.835C395.361 257.647 397.008 259.115 399.04 259.115Z" fill="white"/>
<path opacity="0.35" d="M455.52 259.115C457.552 259.115 459.199 257.647 459.199 255.835C459.199 254.024 457.552 252.555 455.52 252.555C453.488 252.555 451.841 254.024 451.841 255.835C451.841 257.647 453.488 259.115 455.52 259.115Z" fill="white"/>
<path d="M512 259.115C514.032 259.115 515.679 257.647 515.679 255.835C515.679 254.024 514.032 252.555 512 252.555C509.968 252.555 508.321 254.024 508.321 255.835C508.321 257.647 509.968 259.115 512 259.115Z" fill="white"/>
<path opacity="0.35" d="M568.48 259.115C570.512 259.115 572.159 257.647 572.159 255.835C572.159 254.024 570.512 252.555 568.48 252.555C566.449 252.555 564.802 254.024 564.802 255.835C564.802 257.647 566.449 259.115 568.48 259.115Z" fill="white"/>
<path opacity="0.35" d="M624.96 259.115C626.992 259.115 628.639 257.647 628.639 255.835C628.639 254.024 626.992 252.555 624.96 252.555C622.929 252.555 621.282 254.024 621.282 255.835C621.282 257.647 622.929 259.115 624.96 259.115Z" fill="white"/>
<path opacity="0.35" d="M681.44 259.115C683.472 259.115 685.119 257.647 685.119 255.835C685.119 254.024 683.472 252.555 681.44 252.555C679.408 252.555 677.761 254.024 677.761 255.835C677.761 257.647 679.408 259.115 681.44 259.115Z" fill="white"/>
<path opacity="0.35" d="M737.921 259.115C739.952 259.115 741.599 257.647 741.599 255.835C741.599 254.024 739.952 252.555 737.921 252.555C735.889 252.555 734.242 254.024 734.242 255.835C734.242 257.647 735.889 259.115 737.921 259.115Z" fill="white"/>
<path opacity="0.35" d="M794.401 259.115C796.433 259.115 798.08 257.647 798.08 255.835C798.08 254.024 796.433 252.555 794.401 252.555C792.369 252.555 790.722 254.024 790.722 255.835C790.722 257.647 792.369 259.115 794.401 259.115Z" fill="white"/>
<path opacity="0.35" d="M850.881 259.115C852.913 259.115 854.56 257.647 854.56 255.835C854.56 254.024 852.913 252.555 850.881 252.555C848.85 252.555 847.203 254.024 847.203 255.835C847.203 257.647 848.85 259.115 850.881 259.115Z" fill="white"/>
<path opacity="0.35" d="M907.361 259.115C909.393 259.115 911.04 257.647 911.04 255.835C911.04 254.024 909.393 252.555 907.361 252.555C905.33 252.555 903.683 254.024 903.683 255.835C903.683 257.647 905.33 259.115 907.361 259.115Z" fill="white"/>
<path d="M963.841 259.115C965.873 259.115 967.52 257.647 967.52 255.835C967.52 254.024 965.873 252.555 963.841 252.555C961.809 252.555 960.162 254.024 960.162 255.835C960.162 257.647 961.809 259.115 963.841 259.115Z" fill="white"/>
<path opacity="0.35" d="M1020.32 259.115C1022.35 259.115 1024 257.647 1024 255.835C1024 254.024 1022.35 252.555 1020.32 252.555C1018.29 252.555 1016.64 254.024 1016.64 255.835C1016.64 257.647 1018.29 259.115 1020.32 259.115Z" fill="white"/>
<path opacity="0.35" d="M3.6787 309.474C5.71036 309.474 7.35734 308.006 7.35734 306.194C7.35734 304.383 5.71036 302.914 3.6787 302.914C1.64704 302.914 6.10352e-05 304.383 6.10352e-05 306.194C6.10352e-05 308.006 1.64704 309.474 3.6787 309.474Z" fill="white"/>
<path d="M60.1587 309.474C62.1903 309.474 63.8373 308.006 63.8373 306.194C63.8373 304.383 62.1903 302.914 60.1587 302.914C58.127 302.914 56.48 304.383 56.48 306.194C56.48 308.006 58.127 309.474 60.1587 309.474Z" fill="white"/>
<path opacity="0.35" d="M116.639 309.474C118.67 309.474 120.317 308.006 120.317 306.194C120.317 304.383 118.67 302.914 116.639 302.914C114.607 302.914 112.96 304.383 112.96 306.194C112.96 308.006 114.607 309.474 116.639 309.474Z" fill="white"/>
<path opacity="0.35" d="M173.119 309.474C175.151 309.474 176.798 308.006 176.798 306.194C176.798 304.383 175.151 302.914 173.119 302.914C171.087 302.914 169.44 304.383 169.44 306.194C169.44 308.006 171.087 309.474 173.119 309.474Z" fill="white"/>
<path opacity="0.35" d="M229.599 309.474C231.631 309.474 233.278 308.006 233.278 306.194C233.278 304.383 231.631 302.914 229.599 302.914C227.568 302.914 225.921 304.383 225.921 306.194C225.921 308.006 227.568 309.474 229.599 309.474Z" fill="white"/>
<path d="M286.08 309.474C288.111 309.474 289.758 308.006 289.758 306.194C289.758 304.383 288.111 302.914 286.08 302.914C284.048 302.914 282.401 304.383 282.401 306.194C282.401 308.006 284.048 309.474 286.08 309.474Z" fill="white"/>
<path d="M342.56 309.474C344.592 309.474 346.239 308.006 346.239 306.194C346.239 304.383 344.592 302.914 342.56 302.914C340.528 302.914 338.881 304.383 338.881 306.194C338.881 308.006 340.528 309.474 342.56 309.474Z" fill="white"/>
<path opacity="0.35" d="M399.04 309.474C401.072 309.474 402.719 308.006 402.719 306.194C402.719 304.383 401.072 302.914 399.04 302.914C397.008 302.914 395.361 304.383 395.361 306.194C395.361 308.006 397.008 309.474 399.04 309.474Z" fill="white"/>
<path opacity="0.35" d="M455.52 309.474C457.552 309.474 459.199 308.006 459.199 306.194C459.199 304.383 457.552 302.914 455.52 302.914C453.488 302.914 451.841 304.383 451.841 306.194C451.841 308.006 453.488 309.474 455.52 309.474Z" fill="white"/>
<path opacity="0.35" d="M512 309.474C514.032 309.474 515.679 308.006 515.679 306.194C515.679 304.383 514.032 302.914 512 302.914C509.968 302.914 508.321 304.383 508.321 306.194C508.321 308.006 509.968 309.474 512 309.474Z" fill="white"/>
<path opacity="0.35" d="M568.48 309.474C570.512 309.474 572.159 308.006 572.159 306.194C572.159 304.383 570.512 302.914 568.48 302.914C566.449 302.914 564.802 304.383 564.802 306.194C564.802 308.006 566.449 309.474 568.48 309.474Z" fill="white"/>
<path opacity="0.35" d="M624.96 309.474C626.992 309.474 628.639 308.006 628.639 306.194C628.639 304.383 626.992 302.914 624.96 302.914C622.929 302.914 621.282 304.383 621.282 306.194C621.282 308.006 622.929 309.474 624.96 309.474Z" fill="white"/>
<path opacity="0.35" d="M681.44 309.474C683.472 309.474 685.119 308.006 685.119 306.194C685.119 304.383 683.472 302.914 681.44 302.914C679.408 302.914 677.761 304.383 677.761 306.194C677.761 308.006 679.408 309.474 681.44 309.474Z" fill="white"/>
<path opacity="0.35" d="M737.921 309.474C739.952 309.474 741.599 308.006 741.599 306.194C741.599 304.383 739.952 302.914 737.921 302.914C735.889 302.914 734.242 304.383 734.242 306.194C734.242 308.006 735.889 309.474 737.921 309.474Z" fill="white"/>
<path opacity="0.35" d="M794.401 309.474C796.433 309.474 798.08 308.006 798.08 306.194C798.08 304.383 796.433 302.914 794.401 302.914C792.369 302.914 790.722 304.383 790.722 306.194C790.722 308.006 792.369 309.474 794.401 309.474Z" fill="white"/>
<path d="M850.881 309.474C852.913 309.474 854.56 308.006 854.56 306.194C854.56 304.383 852.913 302.914 850.881 302.914C848.85 302.914 847.203 304.383 847.203 306.194C847.203 308.006 848.85 309.474 850.881 309.474Z" fill="white"/>
<path opacity="0.35" d="M907.361 309.474C909.393 309.474 911.04 308.006 911.04 306.194C911.04 304.383 909.393 302.914 907.361 302.914C905.33 302.914 903.683 304.383 903.683 306.194C903.683 308.006 905.33 309.474 907.361 309.474Z" fill="white"/>
<path d="M963.841 309.474C965.873 309.474 967.52 308.006 967.52 306.194C967.52 304.383 965.873 302.914 963.841 302.914C961.809 302.914 960.162 304.383 960.162 306.194C960.162 308.006 961.809 309.474 963.841 309.474Z" fill="white"/>
<path opacity="0.35" d="M1020.32 309.474C1022.35 309.474 1024 308.006 1024 306.194C1024 304.383 1022.35 302.914 1020.32 302.914C1018.29 302.914 1016.64 304.383 1016.64 306.194C1016.64 308.006 1018.29 309.474 1020.32 309.474Z" fill="white"/>
<path opacity="0.35" d="M3.6787 359.833C5.71036 359.833 7.35734 358.365 7.35734 356.553C7.35734 354.742 5.71036 353.273 3.6787 353.273C1.64704 353.273 6.10352e-05 354.742 6.10352e-05 356.553C6.10352e-05 358.365 1.64704 359.833 3.6787 359.833Z" fill="white"/>
<path opacity="0.35" d="M60.1587 359.833C62.1903 359.833 63.8373 358.365 63.8373 356.553C63.8373 354.742 62.1903 353.273 60.1587 353.273C58.127 353.273 56.48 354.742 56.48 356.553C56.48 358.365 58.127 359.833 60.1587 359.833Z" fill="white"/>
<path opacity="0.35" d="M116.639 359.833C118.67 359.833 120.317 358.365 120.317 356.553C120.317 354.742 118.67 353.273 116.639 353.273C114.607 353.273 112.96 354.742 112.96 356.553C112.96 358.365 114.607 359.833 116.639 359.833Z" fill="white"/>
<path d="M173.119 359.833C175.151 359.833 176.798 358.365 176.798 356.553C176.798 354.742 175.151 353.273 173.119 353.273C171.087 353.273 169.44 354.742 169.44 356.553C169.44 358.365 171.087 359.833 173.119 359.833Z" fill="white"/>
<path d="M229.599 359.833C231.631 359.833 233.278 358.365 233.278 356.553C233.278 354.742 231.631 353.273 229.599 353.273C227.568 353.273 225.921 354.742 225.921 356.553C225.921 358.365 227.568 359.833 229.599 359.833Z" fill="white"/>
<path opacity="0.35" d="M286.08 359.833C288.111 359.833 289.758 358.365 289.758 356.553C289.758 354.742 288.111 353.273 286.08 353.273C284.048 353.273 282.401 354.742 282.401 356.553C282.401 358.365 284.048 359.833 286.08 359.833Z" fill="white"/>
<path opacity="0.35" d="M342.56 359.833C344.592 359.833 346.239 358.365 346.239 356.553C346.239 354.742 344.592 353.273 342.56 353.273C340.528 353.273 338.881 354.742 338.881 356.553C338.881 358.365 340.528 359.833 342.56 359.833Z" fill="white"/>
<path d="M399.04 359.833C401.072 359.833 402.719 358.365 402.719 356.553C402.719 354.742 401.072 353.273 399.04 353.273C397.008 353.273 395.361 354.742 395.361 356.553C395.361 358.365 397.008 359.833 399.04 359.833Z" fill="white"/>
<path d="M455.52 359.833C457.552 359.833 459.199 358.365 459.199 356.553C459.199 354.742 457.552 353.273 455.52 353.273C453.488 353.273 451.841 354.742 451.841 356.553C451.841 358.365 453.488 359.833 455.52 359.833Z" fill="white"/>
<path opacity="0.35" d="M512 359.833C514.032 359.833 515.679 358.365 515.679 356.553C515.679 354.742 514.032 353.273 512 353.273C509.968 353.273 508.321 354.742 508.321 356.553C508.321 358.365 509.968 359.833 512 359.833Z" fill="white"/>
<path opacity="0.35" d="M568.48 359.833C570.512 359.833 572.159 358.365 572.159 356.553C572.159 354.742 570.512 353.273 568.48 353.273C566.449 353.273 564.802 354.742 564.802 356.553C564.802 358.365 566.449 359.833 568.48 359.833Z" fill="white"/>
<path d="M624.96 359.833C626.992 359.833 628.639 358.365 628.639 356.553C628.639 354.742 626.992 353.273 624.96 353.273C622.929 353.273 621.282 354.742 621.282 356.553C621.282 358.365 622.929 359.833 624.96 359.833Z" fill="white"/>
<path d="M681.44 359.833C683.472 359.833 685.119 358.365 685.119 356.553C685.119 354.742 683.472 353.273 681.44 353.273C679.408 353.273 677.761 354.742 677.761 356.553C677.761 358.365 679.408 359.833 681.44 359.833Z" fill="white"/>
<path opacity="0.35" d="M737.921 359.833C739.952 359.833 741.599 358.365 741.599 356.553C741.599 354.742 739.952 353.273 737.921 353.273C735.889 353.273 734.242 354.742 734.242 356.553C734.242 358.365 735.889 359.833 737.921 359.833Z" fill="white"/>
<path opacity="0.35" d="M794.401 359.833C796.433 359.833 798.08 358.365 798.08 356.553C798.08 354.742 796.433 353.273 794.401 353.273C792.369 353.273 790.722 354.742 790.722 356.553C790.722 358.365 792.369 359.833 794.401 359.833Z" fill="white"/>
<path opacity="0.35" d="M850.881 359.833C852.913 359.833 854.56 358.365 854.56 356.553C854.56 354.742 852.913 353.273 850.881 353.273C848.85 353.273 847.203 354.742 847.203 356.553C847.203 358.365 848.85 359.833 850.881 359.833Z" fill="white"/>
<path opacity="0.35" d="M907.361 359.833C909.393 359.833 911.04 358.365 911.04 356.553C911.04 354.742 909.393 353.273 907.361 353.273C905.33 353.273 903.683 354.742 903.683 356.553C903.683 358.365 905.33 359.833 907.361 359.833Z" fill="white"/>
<path opacity="0.35" d="M963.841 359.833C965.873 359.833 967.52 358.365 967.52 356.553C967.52 354.742 965.873 353.273 963.841 353.273C961.809 353.273 960.162 354.742 960.162 356.553C960.162 358.365 961.809 359.833 963.841 359.833Z" fill="white"/>
<path opacity="0.35" d="M1020.32 359.833C1022.35 359.833 1024 358.365 1024 356.553C1024 354.742 1022.35 353.273 1020.32 353.273C1018.29 353.273 1016.64 354.742 1016.64 356.553C1016.64 358.365 1018.29 359.833 1020.32 359.833Z" fill="white"/>
<path opacity="0.35" d="M3.6787 410.192C5.71036 410.192 7.35734 408.724 7.35734 406.912C7.35734 405.101 5.71036 403.632 3.6787 403.632C1.64704 403.632 6.10352e-05 405.101 6.10352e-05 406.912C6.10352e-05 408.724 1.64704 410.192 3.6787 410.192Z" fill="white"/>
<path opacity="0.35" d="M60.1587 410.192C62.1903 410.192 63.8373 408.724 63.8373 406.912C63.8373 405.101 62.1903 403.632 60.1587 403.632C58.127 403.632 56.48 405.101 56.48 406.912C56.48 408.724 58.127 410.192 60.1587 410.192Z" fill="white"/>
<path opacity="0.35" d="M116.639 410.192C118.67 410.192 120.317 408.724 120.317 406.912C120.317 405.101 118.67 403.632 116.639 403.632C114.607 403.632 112.96 405.101 112.96 406.912C112.96 408.724 114.607 410.192 116.639 410.192Z" fill="white"/>
<path opacity="0.35" d="M173.119 410.192C175.151 410.192 176.798 408.724 176.798 406.912C176.798 405.101 175.151 403.632 173.119 403.632C171.087 403.632 169.44 405.101 169.44 406.912C169.44 408.724 171.087 410.192 173.119 410.192Z" fill="white"/>
<path d="M229.599 410.192C231.631 410.192 233.278 408.724 233.278 406.912C233.278 405.101 231.631 403.632 229.599 403.632C227.568 403.632 225.921 405.101 225.921 406.912C225.921 408.724 227.568 410.192 229.599 410.192Z" fill="white"/>
<path opacity="0.35" d="M286.08 410.192C288.111 410.192 289.758 408.724 289.758 406.912C289.758 405.101 288.111 403.632 286.08 403.632C284.048 403.632 282.401 405.101 282.401 406.912C282.401 408.724 284.048 410.192 286.08 410.192Z" fill="white"/>
<path opacity="0.35" d="M342.56 410.192C344.592 410.192 346.239 408.724 346.239 406.912C346.239 405.101 344.592 403.632 342.56 403.632C340.528 403.632 338.881 405.101 338.881 406.912C338.881 408.724 340.528 410.192 342.56 410.192Z" fill="white"/>
<path opacity="0.35" d="M399.04 410.192C401.072 410.192 402.719 408.724 402.719 406.912C402.719 405.101 401.072 403.632 399.04 403.632C397.008 403.632 395.361 405.101 395.361 406.912C395.361 408.724 397.008 410.192 399.04 410.192Z" fill="white"/>
<path opacity="0.35" d="M455.52 410.192C457.552 410.192 459.199 408.724 459.199 406.912C459.199 405.101 457.552 403.632 455.52 403.632C453.488 403.632 451.841 405.101 451.841 406.912C451.841 408.724 453.488 410.192 455.52 410.192Z" fill="white"/>
<path opacity="0.35" d="M512 410.192C514.032 410.192 515.679 408.724 515.679 406.912C515.679 405.101 514.032 403.632 512 403.632C509.968 403.632 508.321 405.101 508.321 406.912C508.321 408.724 509.968 410.192 512 410.192Z" fill="white"/>
<path opacity="0.35" d="M568.48 410.192C570.512 410.192 572.159 408.724 572.159 406.912C572.159 405.101 570.512 403.632 568.48 403.632C566.449 403.632 564.802 405.101 564.802 406.912C564.802 408.724 566.449 410.192 568.48 410.192Z" fill="white"/>
<path opacity="0.35" d="M624.96 410.192C626.992 410.192 628.639 408.724 628.639 406.912C628.639 405.101 626.992 403.632 624.96 403.632C622.929 403.632 621.282 405.101 621.282 406.912C621.282 408.724 622.929 410.192 624.96 410.192Z" fill="white"/>
<path opacity="0.35" d="M681.44 410.192C683.472 410.192 685.119 408.724 685.119 406.912C685.119 405.101 683.472 403.632 681.44 403.632C679.408 403.632 677.761 405.101 677.761 406.912C677.761 408.724 679.408 410.192 681.44 410.192Z" fill="white"/>
<path opacity="0.35" d="M737.921 410.192C739.952 410.192 741.599 408.724 741.599 406.912C741.599 405.101 739.952 403.632 737.921 403.632C735.889 403.632 734.242 405.101 734.242 406.912C734.242 408.724 735.889 410.192 737.921 410.192Z" fill="white"/>
<path opacity="0.35" d="M794.401 410.192C796.433 410.192 798.08 408.724 798.08 406.912C798.08 405.101 796.433 403.632 794.401 403.632C792.369 403.632 790.722 405.101 790.722 406.912C790.722 408.724 792.369 410.192 794.401 410.192Z" fill="white"/>
<path opacity="0.35" d="M850.881 410.192C852.913 410.192 854.56 408.724 854.56 406.912C854.56 405.101 852.913 403.632 850.881 403.632C848.85 403.632 847.203 405.101 847.203 406.912C847.203 408.724 848.85 410.192 850.881 410.192Z" fill="white"/>
<path opacity="0.35" d="M907.361 410.192C909.393 410.192 911.04 408.724 911.04 406.912C911.04 405.101 909.393 403.632 907.361 403.632C905.33 403.632 903.683 405.101 903.683 406.912C903.683 408.724 905.33 410.192 907.361 410.192Z" fill="white"/>
<path d="M963.841 410.192C965.873 410.192 967.52 408.724 967.52 406.912C967.52 405.101 965.873 403.632 963.841 403.632C961.809 403.632 960.162 405.101 960.162 406.912C960.162 408.724 961.809 410.192 963.841 410.192Z" fill="white"/>
<path opacity="0.35" d="M1020.32 410.192C1022.35 410.192 1024 408.724 1024 406.912C1024 405.101 1022.35 403.632 1020.32 403.632C1018.29 403.632 1016.64 405.101 1016.64 406.912C1016.64 408.724 1018.29 410.192 1020.32 410.192Z" fill="white"/>
<path opacity="0.35" d="M3.6787 460.551C5.71036 460.551 7.35734 459.083 7.35734 457.271C7.35734 455.46 5.71036 453.991 3.6787 453.991C1.64704 453.991 6.10352e-05 455.46 6.10352e-05 457.271C6.10352e-05 459.083 1.64704 460.551 3.6787 460.551Z" fill="white"/>
<path opacity="0.35" d="M60.1587 460.551C62.1903 460.551 63.8373 459.082 63.8373 457.271C63.8373 455.459 62.1903 453.991 60.1587 453.991C58.127 453.991 56.48 455.459 56.48 457.271C56.48 459.082 58.127 460.551 60.1587 460.551Z" fill="white"/>
<path opacity="0.35" d="M116.639 460.551C118.67 460.551 120.317 459.082 120.317 457.271C120.317 455.459 118.67 453.991 116.639 453.991C114.607 453.991 112.96 455.459 112.96 457.271C112.96 459.082 114.607 460.551 116.639 460.551Z" fill="white"/>
<path opacity="0.35" d="M173.119 460.551C175.151 460.551 176.798 459.082 176.798 457.271C176.798 455.459 175.151 453.991 173.119 453.991C171.087 453.991 169.44 455.459 169.44 457.271C169.44 459.082 171.087 460.551 173.119 460.551Z" fill="white"/>
<path opacity="0.35" d="M229.599 460.551C231.631 460.551 233.278 459.082 233.278 457.271C233.278 455.459 231.631 453.991 229.599 453.991C227.568 453.991 225.921 455.459 225.921 457.271C225.921 459.082 227.568 460.551 229.599 460.551Z" fill="white"/>
<path opacity="0.35" d="M286.08 460.551C288.111 460.551 289.758 459.082 289.758 457.271C289.758 455.459 288.111 453.991 286.08 453.991C284.048 453.991 282.401 455.459 282.401 457.271C282.401 459.082 284.048 460.551 286.08 460.551Z" fill="white"/>
<path d="M342.56 460.551C344.592 460.551 346.239 459.082 346.239 457.271C346.239 455.459 344.592 453.991 342.56 453.991C340.528 453.991 338.881 455.459 338.881 457.271C338.881 459.082 340.528 460.551 342.56 460.551Z" fill="white"/>
<path opacity="0.35" d="M399.04 460.551C401.072 460.551 402.719 459.082 402.719 457.271C402.719 455.459 401.072 453.991 399.04 453.991C397.008 453.991 395.361 455.459 395.361 457.271C395.361 459.082 397.008 460.551 399.04 460.551Z" fill="white"/>
<path opacity="0.35" d="M455.52 460.551C457.552 460.551 459.199 459.082 459.199 457.271C459.199 455.459 457.552 453.991 455.52 453.991C453.488 453.991 451.841 455.459 451.841 457.271C451.841 459.082 453.488 460.551 455.52 460.551Z" fill="white"/>
<path opacity="0.35" d="M512 460.551C514.032 460.551 515.679 459.082 515.679 457.271C515.679 455.459 514.032 453.991 512 453.991C509.968 453.991 508.321 455.459 508.321 457.271C508.321 459.082 509.968 460.551 512 460.551Z" fill="white"/>
<path opacity="0.35" d="M568.48 460.551C570.512 460.551 572.159 459.082 572.159 457.271C572.159 455.459 570.512 453.991 568.48 453.991C566.449 453.991 564.802 455.459 564.802 457.271C564.802 459.082 566.449 460.551 568.48 460.551Z" fill="white"/>
<path d="M624.96 460.551C626.992 460.551 628.639 459.082 628.639 457.271C628.639 455.459 626.992 453.991 624.96 453.991C622.929 453.991 621.282 455.459 621.282 457.271C621.282 459.082 622.929 460.551 624.96 460.551Z" fill="white"/>
<path d="M681.44 460.551C683.472 460.551 685.119 459.082 685.119 457.271C685.119 455.459 683.472 453.991 681.44 453.991C679.408 453.991 677.761 455.459 677.761 457.271C677.761 459.082 679.408 460.551 681.44 460.551Z" fill="white"/>
<path opacity="0.35" d="M737.921 460.551C739.952 460.551 741.599 459.082 741.599 457.271C741.599 455.459 739.952 453.991 737.921 453.991C735.889 453.991 734.242 455.459 734.242 457.271C734.242 459.082 735.889 460.551 737.921 460.551Z" fill="white"/>
<path opacity="0.35" d="M794.401 460.551C796.433 460.551 798.08 459.082 798.08 457.271C798.08 455.459 796.433 453.991 794.401 453.991C792.369 453.991 790.722 455.459 790.722 457.271C790.722 459.082 792.369 460.551 794.401 460.551Z" fill="white"/>
<path opacity="0.35" d="M850.881 460.551C852.913 460.551 854.56 459.082 854.56 457.271C854.56 455.459 852.913 453.991 850.881 453.991C848.85 453.991 847.203 455.459 847.203 457.271C847.203 459.082 848.85 460.551 850.881 460.551Z" fill="white"/>
<path d="M907.361 460.551C909.393 460.551 911.04 459.082 911.04 457.271C911.04 455.459 909.393 453.991 907.361 453.991C905.33 453.991 903.683 455.459 903.683 457.271C903.683 459.082 905.33 460.551 907.361 460.551Z" fill="white"/>
<path opacity="0.35" d="M963.841 460.551C965.873 460.551 967.52 459.082 967.52 457.271C967.52 455.459 965.873 453.991 963.841 453.991C961.809 453.991 960.162 455.459 960.162 457.271C960.162 459.082 961.809 460.551 963.841 460.551Z" fill="white"/>
<path opacity="0.35" d="M1020.32 460.551C1022.35 460.551 1024 459.082 1024 457.271C1024 455.459 1022.35 453.991 1020.32 453.991C1018.29 453.991 1016.64 455.459 1016.64 457.271C1016.64 459.082 1018.29 460.551 1020.32 460.551Z" fill="white"/>
<path opacity="0.35" d="M3.6787 510.91C5.71036 510.91 7.35734 509.442 7.35734 507.63C7.35734 505.819 5.71036 504.35 3.6787 504.35C1.64704 504.35 6.10352e-05 505.819 6.10352e-05 507.63C6.10352e-05 509.442 1.64704 510.91 3.6787 510.91Z" fill="white"/>
<path opacity="0.35" d="M60.1587 510.91C62.1903 510.91 63.8373 509.442 63.8373 507.63C63.8373 505.819 62.1903 504.35 60.1587 504.35C58.127 504.35 56.48 505.819 56.48 507.63C56.48 509.442 58.127 510.91 60.1587 510.91Z" fill="white"/>
<path d="M116.639 510.91C118.67 510.91 120.317 509.442 120.317 507.63C120.317 505.819 118.67 504.35 116.639 504.35C114.607 504.35 112.96 505.819 112.96 507.63C112.96 509.442 114.607 510.91 116.639 510.91Z" fill="white"/>
<path d="M173.119 510.91C175.151 510.91 176.798 509.442 176.798 507.63C176.798 505.819 175.151 504.35 173.119 504.35C171.087 504.35 169.44 505.819 169.44 507.63C169.44 509.442 171.087 510.91 173.119 510.91Z" fill="white"/>
<path opacity="0.35" d="M229.599 510.91C231.631 510.91 233.278 509.442 233.278 507.63C233.278 505.819 231.631 504.35 229.599 504.35C227.568 504.35 225.921 505.819 225.921 507.63C225.921 509.442 227.568 510.91 229.599 510.91Z" fill="white"/>
<path opacity="0.35" d="M286.08 510.91C288.111 510.91 289.758 509.442 289.758 507.63C289.758 505.819 288.111 504.35 286.08 504.35C284.048 504.35 282.401 505.819 282.401 507.63C282.401 509.442 284.048 510.91 286.08 510.91Z" fill="white"/>
<path opacity="0.35" d="M342.56 510.91C344.592 510.91 346.239 509.442 346.239 507.63C346.239 505.819 344.592 504.35 342.56 504.35C340.528 504.35 338.881 505.819 338.881 507.63C338.881 509.442 340.528 510.91 342.56 510.91Z" fill="white"/>
<path opacity="0.35" d="M399.04 510.91C401.072 510.91 402.719 509.442 402.719 507.63C402.719 505.819 401.072 504.35 399.04 504.35C397.008 504.35 395.361 505.819 395.361 507.63C395.361 509.442 397.008 510.91 399.04 510.91Z" fill="white"/>
<path opacity="0.35" d="M455.52 510.91C457.552 510.91 459.199 509.442 459.199 507.63C459.199 505.819 457.552 504.35 455.52 504.35C453.488 504.35 451.841 505.819 451.841 507.63C451.841 509.442 453.488 510.91 455.52 510.91Z" fill="white"/>
<path d="M512 510.91C514.032 510.91 515.679 509.442 515.679 507.63C515.679 505.819 514.032 504.35 512 504.35C509.968 504.35 508.321 505.819 508.321 507.63C508.321 509.442 509.968 510.91 512 510.91Z" fill="white"/>
<path opacity="0.35" d="M568.48 510.91C570.512 510.91 572.159 509.442 572.159 507.63C572.159 505.819 570.512 504.35 568.48 504.35C566.449 504.35 564.802 505.819 564.802 507.63C564.802 509.442 566.449 510.91 568.48 510.91Z" fill="white"/>
<path opacity="0.35" d="M624.96 510.91C626.992 510.91 628.639 509.442 628.639 507.63C628.639 505.819 626.992 504.35 624.96 504.35C622.929 504.35 621.282 505.819 621.282 507.63C621.282 509.442 622.929 510.91 624.96 510.91Z" fill="white"/>
<path opacity="0.35" d="M681.44 510.91C683.472 510.91 685.119 509.442 685.119 507.63C685.119 505.819 683.472 504.35 681.44 504.35C679.408 504.35 677.761 505.819 677.761 507.63C677.761 509.442 679.408 510.91 681.44 510.91Z" fill="white"/>
<path opacity="0.35" d="M737.921 510.91C739.952 510.91 741.599 509.442 741.599 507.63C741.599 505.819 739.952 504.35 737.921 504.35C735.889 504.35 734.242 505.819 734.242 507.63C734.242 509.442 735.889 510.91 737.921 510.91Z" fill="white"/>
<path d="M794.401 510.91C796.433 510.91 798.08 509.442 798.08 507.63C798.08 505.819 796.433 504.35 794.401 504.35C792.369 504.35 790.722 505.819 790.722 507.63C790.722 509.442 792.369 510.91 794.401 510.91Z" fill="white"/>
<path opacity="0.35" d="M850.881 510.91C852.913 510.91 854.56 509.442 854.56 507.63C854.56 505.819 852.913 504.35 850.881 504.35C848.85 504.35 847.203 505.819 847.203 507.63C847.203 509.442 848.85 510.91 850.881 510.91Z" fill="white"/>
<path opacity="0.35" d="M907.361 510.91C909.393 510.91 911.04 509.442 911.04 507.63C911.04 505.819 909.393 504.35 907.361 504.35C905.33 504.35 903.683 505.819 903.683 507.63C903.683 509.442 905.33 510.91 907.361 510.91Z" fill="white"/>
<path opacity="0.35" d="M963.841 510.91C965.873 510.91 967.52 509.442 967.52 507.63C967.52 505.819 965.873 504.35 963.841 504.35C961.809 504.35 960.162 505.819 960.162 507.63C960.162 509.442 961.809 510.91 963.841 510.91Z" fill="white"/>
<path opacity="0.35" d="M1020.32 510.91C1022.35 510.91 1024 509.442 1024 507.63C1024 505.819 1022.35 504.35 1020.32 504.35C1018.29 504.35 1016.64 505.819 1016.64 507.63C1016.64 509.442 1018.29 510.91 1020.32 510.91Z" fill="white"/>
<path opacity="0.35" d="M3.6787 561.269C5.71036 561.269 7.35734 559.801 7.35734 557.989C7.35734 556.178 5.71036 554.709 3.6787 554.709C1.64704 554.709 6.10352e-05 556.178 6.10352e-05 557.989C6.10352e-05 559.801 1.64704 561.269 3.6787 561.269Z" fill="white"/>
<path d="M60.1587 561.269C62.1903 561.269 63.8373 559.801 63.8373 557.989C63.8373 556.178 62.1903 554.709 60.1587 554.709C58.127 554.709 56.48 556.178 56.48 557.989C56.48 559.801 58.127 561.269 60.1587 561.269Z" fill="white"/>
<path opacity="0.35" d="M116.639 561.269C118.67 561.269 120.317 559.801 120.317 557.989C120.317 556.178 118.67 554.709 116.639 554.709C114.607 554.709 112.96 556.178 112.96 557.989C112.96 559.801 114.607 561.269 116.639 561.269Z" fill="white"/>
<path opacity="0.35" d="M173.119 561.269C175.151 561.269 176.798 559.801 176.798 557.989C176.798 556.178 175.151 554.709 173.119 554.709C171.087 554.709 169.44 556.178 169.44 557.989C169.44 559.801 171.087 561.269 173.119 561.269Z" fill="white"/>
<path opacity="0.35" d="M229.599 561.269C231.631 561.269 233.278 559.801 233.278 557.989C233.278 556.178 231.631 554.709 229.599 554.709C227.568 554.709 225.921 556.178 225.921 557.989C225.921 559.801 227.568 561.269 229.599 561.269Z" fill="white"/>
<path d="M286.08 561.269C288.111 561.269 289.758 559.801 289.758 557.989C289.758 556.178 288.111 554.709 286.08 554.709C284.048 554.709 282.401 556.178 282.401 557.989C282.401 559.801 284.048 561.269 286.08 561.269Z" fill="white"/>
<path opacity="0.35" d="M342.56 561.269C344.592 561.269 346.239 559.801 346.239 557.989C346.239 556.178 344.592 554.709 342.56 554.709C340.528 554.709 338.881 556.178 338.881 557.989C338.881 559.801 340.528 561.269 342.56 561.269Z" fill="white"/>
<path d="M399.04 561.269C401.072 561.269 402.719 559.801 402.719 557.989C402.719 556.178 401.072 554.709 399.04 554.709C397.008 554.709 395.361 556.178 395.361 557.989C395.361 559.801 397.008 561.269 399.04 561.269Z" fill="white"/>
<path d="M455.52 561.269C457.552 561.269 459.199 559.801 459.199 557.989C459.199 556.178 457.552 554.709 455.52 554.709C453.488 554.709 451.841 556.178 451.841 557.989C451.841 559.801 453.488 561.269 455.52 561.269Z" fill="white"/>
<path opacity="0.35" d="M512 561.269C514.032 561.269 515.679 559.801 515.679 557.989C515.679 556.178 514.032 554.709 512 554.709C509.968 554.709 508.321 556.178 508.321 557.989C508.321 559.801 509.968 561.269 512 561.269Z" fill="white"/>
<path opacity="0.35" d="M568.48 561.269C570.512 561.269 572.159 559.801 572.159 557.989C572.159 556.178 570.512 554.709 568.48 554.709C566.449 554.709 564.802 556.178 564.802 557.989C564.802 559.801 566.449 561.269 568.48 561.269Z" fill="white"/>
<path opacity="0.35" d="M624.96 561.269C626.992 561.269 628.639 559.801 628.639 557.989C628.639 556.178 626.992 554.709 624.96 554.709C622.929 554.709 621.282 556.178 621.282 557.989C621.282 559.801 622.929 561.269 624.96 561.269Z" fill="white"/>
<path opacity="0.35" d="M681.44 561.269C683.472 561.269 685.119 559.801 685.119 557.989C685.119 556.178 683.472 554.709 681.44 554.709C679.408 554.709 677.761 556.178 677.761 557.989C677.761 559.801 679.408 561.269 681.44 561.269Z" fill="white"/>
<path d="M737.921 561.269C739.952 561.269 741.599 559.801 741.599 557.989C741.599 556.178 739.952 554.709 737.921 554.709C735.889 554.709 734.242 556.178 734.242 557.989C734.242 559.801 735.889 561.269 737.921 561.269Z" fill="white"/>
<path d="M794.401 561.269C796.433 561.269 798.08 559.801 798.08 557.989C798.08 556.178 796.433 554.709 794.401 554.709C792.369 554.709 790.722 556.178 790.722 557.989C790.722 559.801 792.369 561.269 794.401 561.269Z" fill="white"/>
<path d="M850.881 561.269C852.913 561.269 854.56 559.801 854.56 557.989C854.56 556.178 852.913 554.709 850.881 554.709C848.85 554.709 847.203 556.178 847.203 557.989C847.203 559.801 848.85 561.269 850.881 561.269Z" fill="white"/>
<path opacity="0.35" d="M907.361 561.269C909.393 561.269 911.04 559.801 911.04 557.989C911.04 556.178 909.393 554.709 907.361 554.709C905.33 554.709 903.683 556.178 903.683 557.989C903.683 559.801 905.33 561.269 907.361 561.269Z" fill="white"/>
<path opacity="0.35" d="M963.841 561.269C965.873 561.269 967.52 559.801 967.52 557.989C967.52 556.178 965.873 554.709 963.841 554.709C961.809 554.709 960.162 556.178 960.162 557.989C960.162 559.801 961.809 561.269 963.841 561.269Z" fill="white"/>
<path opacity="0.35" d="M1020.32 561.269C1022.35 561.269 1024 559.801 1024 557.989C1024 556.178 1022.35 554.709 1020.32 554.709C1018.29 554.709 1016.64 556.178 1016.64 557.989C1016.64 559.801 1018.29 561.269 1020.32 561.269Z" fill="white"/>
<path opacity="0.35" d="M3.6787 611.628C5.71036 611.628 7.35734 610.16 7.35734 608.348C7.35734 606.537 5.71036 605.068 3.6787 605.068C1.64704 605.068 6.10352e-05 606.537 6.10352e-05 608.348C6.10352e-05 610.16 1.64704 611.628 3.6787 611.628Z" fill="white"/>
<path d="M60.1587 611.628C62.1903 611.628 63.8373 610.16 63.8373 608.348C63.8373 606.537 62.1903 605.068 60.1587 605.068C58.127 605.068 56.48 606.537 56.48 608.348C56.48 610.16 58.127 611.628 60.1587 611.628Z" fill="white"/>
<path opacity="0.35" d="M116.639 611.628C118.67 611.628 120.317 610.16 120.317 608.348C120.317 606.537 118.67 605.068 116.639 605.068C114.607 605.068 112.96 606.537 112.96 608.348C112.96 610.16 114.607 611.628 116.639 611.628Z" fill="white"/>
<path opacity="0.35" d="M173.119 611.628C175.151 611.628 176.798 610.16 176.798 608.348C176.798 606.537 175.151 605.068 173.119 605.068C171.087 605.068 169.44 606.537 169.44 608.348C169.44 610.16 171.087 611.628 173.119 611.628Z" fill="white"/>
<path d="M229.599 611.628C231.631 611.628 233.278 610.16 233.278 608.348C233.278 606.537 231.631 605.068 229.599 605.068C227.568 605.068 225.921 606.537 225.921 608.348C225.921 610.16 227.568 611.628 229.599 611.628Z" fill="white"/>
<path opacity="0.35" d="M286.08 611.628C288.111 611.628 289.758 610.16 289.758 608.348C289.758 606.537 288.111 605.068 286.08 605.068C284.048 605.068 282.401 606.537 282.401 608.348C282.401 610.16 284.048 611.628 286.08 611.628Z" fill="white"/>
<path opacity="0.35" d="M342.56 611.628C344.592 611.628 346.239 610.16 346.239 608.348C346.239 606.537 344.592 605.068 342.56 605.068C340.528 605.068 338.881 606.537 338.881 608.348C338.881 610.16 340.528 611.628 342.56 611.628Z" fill="white"/>
<path opacity="0.35" d="M399.04 611.628C401.072 611.628 402.719 610.16 402.719 608.348C402.719 606.537 401.072 605.068 399.04 605.068C397.008 605.068 395.361 606.537 395.361 608.348C395.361 610.16 397.008 611.628 399.04 611.628Z" fill="white"/>
<path opacity="0.35" d="M455.52 611.628C457.552 611.628 459.199 610.16 459.199 608.348C459.199 606.537 457.552 605.068 455.52 605.068C453.488 605.068 451.841 606.537 451.841 608.348C451.841 610.16 453.488 611.628 455.52 611.628Z" fill="white"/>
<path opacity="0.35" d="M512 611.628C514.032 611.628 515.679 610.16 515.679 608.348C515.679 606.537 514.032 605.068 512 605.068C509.968 605.068 508.321 606.537 508.321 608.348C508.321 610.16 509.968 611.628 512 611.628Z" fill="white"/>
<path opacity="0.35" d="M568.48 611.628C570.512 611.628 572.159 610.16 572.159 608.348C572.159 606.537 570.512 605.068 568.48 605.068C566.449 605.068 564.802 606.537 564.802 608.348C564.802 610.16 566.449 611.628 568.48 611.628Z" fill="white"/>
<path opacity="0.35" d="M624.96 611.628C626.992 611.628 628.639 610.16 628.639 608.348C628.639 606.537 626.992 605.068 624.96 605.068C622.929 605.068 621.282 606.537 621.282 608.348C621.282 610.16 622.929 611.628 624.96 611.628Z" fill="white"/>
<path opacity="0.35" d="M681.44 611.628C683.472 611.628 685.119 610.16 685.119 608.348C685.119 606.537 683.472 605.068 681.44 605.068C679.408 605.068 677.761 606.537 677.761 608.348C677.761 610.16 679.408 611.628 681.44 611.628Z" fill="white"/>
<path opacity="0.35" d="M737.921 611.628C739.952 611.628 741.599 610.16 741.599 608.348C741.599 606.537 739.952 605.068 737.921 605.068C735.889 605.068 734.242 606.537 734.242 608.348C734.242 610.16 735.889 611.628 737.921 611.628Z" fill="white"/>
<path opacity="0.35" d="M794.401 611.628C796.433 611.628 798.08 610.16 798.08 608.348C798.08 606.537 796.433 605.068 794.401 605.068C792.369 605.068 790.722 606.537 790.722 608.348C790.722 610.16 792.369 611.628 794.401 611.628Z" fill="white"/>
<path opacity="0.35" d="M850.881 611.628C852.913 611.628 854.56 610.16 854.56 608.348C854.56 606.537 852.913 605.068 850.881 605.068C848.85 605.068 847.203 606.537 847.203 608.348C847.203 610.16 848.85 611.628 850.881 611.628Z" fill="white"/>
<path opacity="0.35" d="M907.361 611.628C909.393 611.628 911.04 610.16 911.04 608.348C911.04 606.537 909.393 605.068 907.361 605.068C905.33 605.068 903.683 606.537 903.683 608.348C903.683 610.16 905.33 611.628 907.361 611.628Z" fill="white"/>
<path opacity="0.35" d="M963.841 611.628C965.873 611.628 967.52 610.16 967.52 608.348C967.52 606.537 965.873 605.068 963.841 605.068C961.809 605.068 960.162 606.537 960.162 608.348C960.162 610.16 961.809 611.628 963.841 611.628Z" fill="white"/>
<path opacity="0.35" d="M1020.32 611.628C1022.35 611.628 1024 610.16 1024 608.348C1024 606.537 1022.35 605.068 1020.32 605.068C1018.29 605.068 1016.64 606.537 1016.64 608.348C1016.64 610.16 1018.29 611.628 1020.32 611.628Z" fill="white"/>
<path opacity="0.35" d="M3.6787 661.987C5.71036 661.987 7.35734 660.519 7.35734 658.707C7.35734 656.896 5.71036 655.427 3.6787 655.427C1.64704 655.427 6.10352e-05 656.896 6.10352e-05 658.707C6.10352e-05 660.519 1.64704 661.987 3.6787 661.987Z" fill="white"/>
<path d="M60.1587 661.987C62.1903 661.987 63.8373 660.519 63.8373 658.707C63.8373 656.896 62.1903 655.427 60.1587 655.427C58.127 655.427 56.48 656.896 56.48 658.707C56.48 660.519 58.127 661.987 60.1587 661.987Z" fill="white"/>
<path opacity="0.35" d="M116.639 661.987C118.67 661.987 120.317 660.519 120.317 658.707C120.317 656.896 118.67 655.427 116.639 655.427C114.607 655.427 112.96 656.896 112.96 658.707C112.96 660.519 114.607 661.987 116.639 661.987Z" fill="white"/>
<path opacity="0.35" d="M173.119 661.987C175.151 661.987 176.798 660.519 176.798 658.707C176.798 656.896 175.151 655.427 173.119 655.427C171.087 655.427 169.44 656.896 169.44 658.707C169.44 660.519 171.087 661.987 173.119 661.987Z" fill="white"/>
<path opacity="0.35" d="M229.599 661.987C231.631 661.987 233.278 660.519 233.278 658.707C233.278 656.896 231.631 655.427 229.599 655.427C227.568 655.427 225.921 656.896 225.921 658.707C225.921 660.519 227.568 661.987 229.599 661.987Z" fill="white"/>
<path opacity="0.35" d="M286.08 661.987C288.111 661.987 289.758 660.519 289.758 658.707C289.758 656.896 288.111 655.427 286.08 655.427C284.048 655.427 282.401 656.896 282.401 658.707C282.401 660.519 284.048 661.987 286.08 661.987Z" fill="white"/>
<path d="M342.56 661.987C344.592 661.987 346.239 660.519 346.239 658.707C346.239 656.896 344.592 655.427 342.56 655.427C340.528 655.427 338.881 656.896 338.881 658.707C338.881 660.519 340.528 661.987 342.56 661.987Z" fill="white"/>
<path opacity="0.35" d="M399.04 661.987C401.072 661.987 402.719 660.519 402.719 658.707C402.719 656.896 401.072 655.427 399.04 655.427C397.008 655.427 395.361 656.896 395.361 658.707C395.361 660.519 397.008 661.987 399.04 661.987Z" fill="white"/>
<path opacity="0.35" d="M455.52 661.987C457.552 661.987 459.199 660.519 459.199 658.707C459.199 656.896 457.552 655.427 455.52 655.427C453.488 655.427 451.841 656.896 451.841 658.707C451.841 660.519 453.488 661.987 455.52 661.987Z" fill="white"/>
<path opacity="0.35" d="M512 661.987C514.032 661.987 515.679 660.519 515.679 658.707C515.679 656.896 514.032 655.427 512 655.427C509.968 655.427 508.321 656.896 508.321 658.707C508.321 660.519 509.968 661.987 512 661.987Z" fill="white"/>
<path opacity="0.35" d="M568.48 661.987C570.512 661.987 572.159 660.519 572.159 658.707C572.159 656.896 570.512 655.427 568.48 655.427C566.449 655.427 564.802 656.896 564.802 658.707C564.802 660.519 566.449 661.987 568.48 661.987Z" fill="white"/>
<path opacity="0.35" d="M624.96 661.987C626.992 661.987 628.639 660.519 628.639 658.707C628.639 656.896 626.992 655.427 624.96 655.427C622.929 655.427 621.282 656.896 621.282 658.707C621.282 660.519 622.929 661.987 624.96 661.987Z" fill="white"/>
<path opacity="0.35" d="M681.44 661.987C683.472 661.987 685.119 660.519 685.119 658.707C685.119 656.896 683.472 655.427 681.44 655.427C679.408 655.427 677.761 656.896 677.761 658.707C677.761 660.519 679.408 661.987 681.44 661.987Z" fill="white"/>
<path d="M737.921 661.987C739.952 661.987 741.599 660.519 741.599 658.707C741.599 656.896 739.952 655.427 737.921 655.427C735.889 655.427 734.242 656.896 734.242 658.707C734.242 660.519 735.889 661.987 737.921 661.987Z" fill="white"/>
<path opacity="0.35" d="M794.401 661.987C796.433 661.987 798.08 660.519 798.08 658.707C798.08 656.896 796.433 655.427 794.401 655.427C792.369 655.427 790.722 656.896 790.722 658.707C790.722 660.519 792.369 661.987 794.401 661.987Z" fill="white"/>
<path opacity="0.35" d="M850.881 661.987C852.913 661.987 854.56 660.519 854.56 658.707C854.56 656.896 852.913 655.427 850.881 655.427C848.85 655.427 847.203 656.896 847.203 658.707C847.203 660.519 848.85 661.987 850.881 661.987Z" fill="white"/>
<path opacity="0.35" d="M907.361 661.987C909.393 661.987 911.04 660.519 911.04 658.707C911.04 656.896 909.393 655.427 907.361 655.427C905.33 655.427 903.683 656.896 903.683 658.707C903.683 660.519 905.33 661.987 907.361 661.987Z" fill="white"/>
<path opacity="0.35" d="M963.841 661.987C965.873 661.987 967.52 660.519 967.52 658.707C967.52 656.896 965.873 655.427 963.841 655.427C961.809 655.427 960.162 656.896 960.162 658.707C960.162 660.519 961.809 661.987 963.841 661.987Z" fill="white"/>
<path opacity="0.35" d="M1020.32 661.987C1022.35 661.987 1024 660.519 1024 658.707C1024 656.896 1022.35 655.427 1020.32 655.427C1018.29 655.427 1016.64 656.896 1016.64 658.707C1016.64 660.519 1018.29 661.987 1020.32 661.987Z" fill="white"/>
<path opacity="0.35" d="M3.67864 712.346C5.7103 712.346 7.35728 710.878 7.35728 709.066C7.35728 707.255 5.7103 705.786 3.67864 705.786C1.64698 705.786 0 707.255 0 709.066C0 710.878 1.64698 712.346 3.67864 712.346Z" fill="white"/>
<path opacity="0.35" d="M60.1587 712.346C62.1903 712.346 63.8373 710.878 63.8373 709.066C63.8373 707.255 62.1903 705.786 60.1587 705.786C58.127 705.786 56.48 707.255 56.48 709.066C56.48 710.878 58.127 712.346 60.1587 712.346Z" fill="white"/>
<path opacity="0.35" d="M116.639 712.346C118.67 712.346 120.317 710.878 120.317 709.066C120.317 707.255 118.67 705.786 116.639 705.786C114.607 705.786 112.96 707.255 112.96 709.066C112.96 710.878 114.607 712.346 116.639 712.346Z" fill="white"/>
<path opacity="0.35" d="M173.119 712.346C175.151 712.346 176.798 710.878 176.798 709.066C176.798 707.255 175.151 705.786 173.119 705.786C171.087 705.786 169.44 707.255 169.44 709.066C169.44 710.878 171.087 712.346 173.119 712.346Z" fill="white"/>
<path opacity="0.35" d="M229.599 712.346C231.631 712.346 233.278 710.878 233.278 709.066C233.278 707.255 231.631 705.786 229.599 705.786C227.568 705.786 225.921 707.255 225.921 709.066C225.921 710.878 227.568 712.346 229.599 712.346Z" fill="white"/>
<path opacity="0.35" d="M286.08 712.346C288.111 712.346 289.758 710.878 289.758 709.066C289.758 707.255 288.111 705.786 286.08 705.786C284.048 705.786 282.401 707.255 282.401 709.066C282.401 710.878 284.048 712.346 286.08 712.346Z" fill="white"/>
<path opacity="0.35" d="M342.56 712.346C344.592 712.346 346.239 710.878 346.239 709.066C346.239 707.255 344.592 705.786 342.56 705.786C340.528 705.786 338.881 707.255 338.881 709.066C338.881 710.878 340.528 712.346 342.56 712.346Z" fill="white"/>
<path opacity="0.35" d="M399.04 712.346C401.072 712.346 402.719 710.878 402.719 709.066C402.719 707.255 401.072 705.786 399.04 705.786C397.008 705.786 395.361 707.255 395.361 709.066C395.361 710.878 397.008 712.346 399.04 712.346Z" fill="white"/>
<path opacity="0.35" d="M455.52 712.346C457.552 712.346 459.199 710.878 459.199 709.066C459.199 707.255 457.552 705.786 455.52 705.786C453.488 705.786 451.841 707.255 451.841 709.066C451.841 710.878 453.488 712.346 455.52 712.346Z" fill="white"/>
<path d="M512 712.346C514.032 712.346 515.679 710.878 515.679 709.066C515.679 707.255 514.032 705.786 512 705.786C509.968 705.786 508.321 707.255 508.321 709.066C508.321 710.878 509.968 712.346 512 712.346Z" fill="white"/>
<path opacity="0.35" d="M568.48 712.346C570.512 712.346 572.159 710.878 572.159 709.066C572.159 707.255 570.512 705.786 568.48 705.786C566.449 705.786 564.802 707.255 564.802 709.066C564.802 710.878 566.449 712.346 568.48 712.346Z" fill="white"/>
<path opacity="0.35" d="M624.96 712.346C626.992 712.346 628.639 710.878 628.639 709.066C628.639 707.255 626.992 705.786 624.96 705.786C622.929 705.786 621.282 707.255 621.282 709.066C621.282 710.878 622.929 712.346 624.96 712.346Z" fill="white"/>
<path opacity="0.35" d="M681.44 712.346C683.472 712.346 685.119 710.878 685.119 709.066C685.119 707.255 683.472 705.786 681.44 705.786C679.408 705.786 677.761 707.255 677.761 709.066C677.761 710.878 679.408 712.346 681.44 712.346Z" fill="white"/>
<path opacity="0.35" d="M737.921 712.346C739.952 712.346 741.599 710.878 741.599 709.066C741.599 707.255 739.952 705.786 737.921 705.786C735.889 705.786 734.242 707.255 734.242 709.066C734.242 710.878 735.889 712.346 737.921 712.346Z" fill="white"/>
<path opacity="0.35" d="M794.401 712.346C796.433 712.346 798.08 710.878 798.08 709.066C798.08 707.255 796.433 705.786 794.401 705.786C792.369 705.786 790.722 707.255 790.722 709.066C790.722 710.878 792.369 712.346 794.401 712.346Z" fill="white"/>
<path opacity="0.35" d="M850.881 712.346C852.913 712.346 854.56 710.878 854.56 709.066C854.56 707.255 852.913 705.786 850.881 705.786C848.85 705.786 847.203 707.255 847.203 709.066C847.203 710.878 848.85 712.346 850.881 712.346Z" fill="white"/>
<path opacity="0.35" d="M907.361 712.346C909.393 712.346 911.04 710.878 911.04 709.066C911.04 707.255 909.393 705.786 907.361 705.786C905.33 705.786 903.683 707.255 903.683 709.066C903.683 710.878 905.33 712.346 907.361 712.346Z" fill="white"/>
<path opacity="0.35" d="M963.841 712.346C965.873 712.346 967.52 710.878 967.52 709.066C967.52 707.255 965.873 705.786 963.841 705.786C961.809 705.786 960.162 707.255 960.162 709.066C960.162 710.878 961.809 712.346 963.841 712.346Z" fill="white"/>
<path opacity="0.35" d="M1020.32 712.346C1022.35 712.346 1024 710.878 1024 709.066C1024 707.255 1022.35 705.786 1020.32 705.786C1018.29 705.786 1016.64 707.255 1016.64 709.066C1016.64 710.878 1018.29 712.346 1020.32 712.346Z" fill="white"/>
<path opacity="0.35" d="M3.6787 762.705C5.71036 762.705 7.35734 761.237 7.35734 759.425C7.35734 757.614 5.71036 756.145 3.6787 756.145C1.64704 756.145 6.10352e-05 757.614 6.10352e-05 759.425C6.10352e-05 761.237 1.64704 762.705 3.6787 762.705Z" fill="white"/>
<path opacity="0.35" d="M60.1587 762.705C62.1903 762.705 63.8373 761.236 63.8373 759.425C63.8373 757.613 62.1903 756.145 60.1587 756.145C58.127 756.145 56.48 757.613 56.48 759.425C56.48 761.236 58.127 762.705 60.1587 762.705Z" fill="white"/>
<path opacity="0.35" d="M116.639 762.705C118.67 762.705 120.317 761.236 120.317 759.425C120.317 757.613 118.67 756.145 116.639 756.145C114.607 756.145 112.96 757.613 112.96 759.425C112.96 761.236 114.607 762.705 116.639 762.705Z" fill="white"/>
<path opacity="0.35" d="M173.119 762.705C175.151 762.705 176.798 761.236 176.798 759.425C176.798 757.613 175.151 756.145 173.119 756.145C171.087 756.145 169.44 757.613 169.44 759.425C169.44 761.236 171.087 762.705 173.119 762.705Z" fill="white"/>
<path d="M229.599 762.705C231.631 762.705 233.278 761.236 233.278 759.425C233.278 757.613 231.631 756.145 229.599 756.145C227.568 756.145 225.921 757.613 225.921 759.425C225.921 761.236 227.568 762.705 229.599 762.705Z" fill="white"/>
<path opacity="0.35" d="M286.08 762.705C288.111 762.705 289.758 761.236 289.758 759.425C289.758 757.613 288.111 756.145 286.08 756.145C284.048 756.145 282.401 757.613 282.401 759.425C282.401 761.236 284.048 762.705 286.08 762.705Z" fill="white"/>
<path opacity="0.35" d="M342.56 762.705C344.592 762.705 346.239 761.236 346.239 759.425C346.239 757.613 344.592 756.145 342.56 756.145C340.528 756.145 338.881 757.613 338.881 759.425C338.881 761.236 340.528 762.705 342.56 762.705Z" fill="white"/>
<path opacity="0.35" d="M399.04 762.705C401.072 762.705 402.719 761.236 402.719 759.425C402.719 757.613 401.072 756.145 399.04 756.145C397.008 756.145 395.361 757.613 395.361 759.425C395.361 761.236 397.008 762.705 399.04 762.705Z" fill="white"/>
<path opacity="0.35" d="M455.52 762.705C457.552 762.705 459.199 761.236 459.199 759.425C459.199 757.613 457.552 756.145 455.52 756.145C453.488 756.145 451.841 757.613 451.841 759.425C451.841 761.236 453.488 762.705 455.52 762.705Z" fill="white"/>
<path d="M512 762.705C514.032 762.705 515.679 761.236 515.679 759.425C515.679 757.613 514.032 756.145 512 756.145C509.968 756.145 508.321 757.613 508.321 759.425C508.321 761.236 509.968 762.705 512 762.705Z" fill="white"/>
<path opacity="0.35" d="M568.48 762.705C570.512 762.705 572.159 761.236 572.159 759.425C572.159 757.613 570.512 756.145 568.48 756.145C566.449 756.145 564.802 757.613 564.802 759.425C564.802 761.236 566.449 762.705 568.48 762.705Z" fill="white"/>
<path opacity="0.35" d="M624.96 762.705C626.992 762.705 628.639 761.236 628.639 759.425C628.639 757.613 626.992 756.145 624.96 756.145C622.929 756.145 621.282 757.613 621.282 759.425C621.282 761.236 622.929 762.705 624.96 762.705Z" fill="white"/>
<path d="M681.44 762.705C683.472 762.705 685.119 761.236 685.119 759.425C685.119 757.613 683.472 756.145 681.44 756.145C679.408 756.145 677.761 757.613 677.761 759.425C677.761 761.236 679.408 762.705 681.44 762.705Z" fill="white"/>
<path opacity="0.35" d="M737.921 762.705C739.952 762.705 741.599 761.236 741.599 759.425C741.599 757.613 739.952 756.145 737.921 756.145C735.889 756.145 734.242 757.613 734.242 759.425C734.242 761.236 735.889 762.705 737.921 762.705Z" fill="white"/>
<path opacity="0.35" d="M794.401 762.705C796.433 762.705 798.08 761.236 798.08 759.425C798.08 757.613 796.433 756.145 794.401 756.145C792.369 756.145 790.722 757.613 790.722 759.425C790.722 761.236 792.369 762.705 794.401 762.705Z" fill="white"/>
<path d="M850.881 762.705C852.913 762.705 854.56 761.236 854.56 759.425C854.56 757.613 852.913 756.145 850.881 756.145C848.85 756.145 847.203 757.613 847.203 759.425C847.203 761.236 848.85 762.705 850.881 762.705Z" fill="white"/>
<path d="M907.361 762.705C909.393 762.705 911.04 761.236 911.04 759.425C911.04 757.613 909.393 756.145 907.361 756.145C905.33 756.145 903.683 757.613 903.683 759.425C903.683 761.236 905.33 762.705 907.361 762.705Z" fill="white"/>
<path d="M963.841 762.705C965.873 762.705 967.52 761.236 967.52 759.425C967.52 757.613 965.873 756.145 963.841 756.145C961.809 756.145 960.162 757.613 960.162 759.425C960.162 761.236 961.809 762.705 963.841 762.705Z" fill="white"/>
<path opacity="0.35" d="M1020.32 762.705C1022.35 762.705 1024 761.236 1024 759.425C1024 757.613 1022.35 756.145 1020.32 756.145C1018.29 756.145 1016.64 757.613 1016.64 759.425C1016.64 761.236 1018.29 762.705 1020.32 762.705Z" fill="white"/>
<path opacity="0.35" d="M3.6787 813.064C5.71036 813.064 7.35734 811.595 7.35734 809.784C7.35734 807.972 5.71036 806.504 3.6787 806.504C1.64704 806.504 6.10352e-05 807.972 6.10352e-05 809.784C6.10352e-05 811.595 1.64704 813.064 3.6787 813.064Z" fill="white"/>
<path opacity="0.35" d="M60.1587 813.064C62.1903 813.064 63.8373 811.595 63.8373 809.784C63.8373 807.972 62.1903 806.504 60.1587 806.504C58.127 806.504 56.48 807.972 56.48 809.784C56.48 811.595 58.127 813.064 60.1587 813.064Z" fill="white"/>
<path opacity="0.35" d="M116.639 813.064C118.67 813.064 120.317 811.595 120.317 809.784C120.317 807.972 118.67 806.504 116.639 806.504C114.607 806.504 112.96 807.972 112.96 809.784C112.96 811.595 114.607 813.064 116.639 813.064Z" fill="white"/>
<path opacity="0.35" d="M173.119 813.064C175.151 813.064 176.798 811.595 176.798 809.784C176.798 807.972 175.151 806.504 173.119 806.504C171.087 806.504 169.44 807.972 169.44 809.784C169.44 811.595 171.087 813.064 173.119 813.064Z" fill="white"/>
<path opacity="0.35" d="M229.599 813.064C231.631 813.064 233.278 811.595 233.278 809.784C233.278 807.972 231.631 806.504 229.599 806.504C227.568 806.504 225.921 807.972 225.921 809.784C225.921 811.595 227.568 813.064 229.599 813.064Z" fill="white"/>
<path opacity="0.35" d="M286.08 813.064C288.111 813.064 289.758 811.595 289.758 809.784C289.758 807.972 288.111 806.504 286.08 806.504C284.048 806.504 282.401 807.972 282.401 809.784C282.401 811.595 284.048 813.064 286.08 813.064Z" fill="white"/>
<path opacity="0.35" d="M342.56 813.064C344.592 813.064 346.239 811.595 346.239 809.784C346.239 807.972 344.592 806.504 342.56 806.504C340.528 806.504 338.881 807.972 338.881 809.784C338.881 811.595 340.528 813.064 342.56 813.064Z" fill="white"/>
<path d="M399.04 813.064C401.072 813.064 402.719 811.595 402.719 809.784C402.719 807.972 401.072 806.504 399.04 806.504C397.008 806.504 395.361 807.972 395.361 809.784C395.361 811.595 397.008 813.064 399.04 813.064Z" fill="white"/>
<path opacity="0.35" d="M455.52 813.064C457.552 813.064 459.199 811.595 459.199 809.784C459.199 807.972 457.552 806.504 455.52 806.504C453.488 806.504 451.841 807.972 451.841 809.784C451.841 811.595 453.488 813.064 455.52 813.064Z" fill="white"/>
<path d="M512 813.064C514.032 813.064 515.679 811.595 515.679 809.784C515.679 807.972 514.032 806.504 512 806.504C509.968 806.504 508.321 807.972 508.321 809.784C508.321 811.595 509.968 813.064 512 813.064Z" fill="white"/>
<path d="M568.48 813.064C570.512 813.064 572.159 811.595 572.159 809.784C572.159 807.972 570.512 806.504 568.48 806.504C566.449 806.504 564.802 807.972 564.802 809.784C564.802 811.595 566.449 813.064 568.48 813.064Z" fill="white"/>
<path opacity="0.35" d="M624.96 813.064C626.992 813.064 628.639 811.595 628.639 809.784C628.639 807.972 626.992 806.504 624.96 806.504C622.929 806.504 621.282 807.972 621.282 809.784C621.282 811.595 622.929 813.064 624.96 813.064Z" fill="white"/>
<path opacity="0.35" d="M681.44 813.064C683.472 813.064 685.119 811.595 685.119 809.784C685.119 807.972 683.472 806.504 681.44 806.504C679.408 806.504 677.761 807.972 677.761 809.784C677.761 811.595 679.408 813.064 681.44 813.064Z" fill="white"/>
<path opacity="0.35" d="M737.921 813.064C739.952 813.064 741.599 811.595 741.599 809.784C741.599 807.972 739.952 806.504 737.921 806.504C735.889 806.504 734.242 807.972 734.242 809.784C734.242 811.595 735.889 813.064 737.921 813.064Z" fill="white"/>
<path opacity="0.35" d="M794.401 813.064C796.433 813.064 798.08 811.595 798.08 809.784C798.08 807.972 796.433 806.504 794.401 806.504C792.369 806.504 790.722 807.972 790.722 809.784C790.722 811.595 792.369 813.064 794.401 813.064Z" fill="white"/>
<path opacity="0.35" d="M850.881 813.064C852.913 813.064 854.56 811.595 854.56 809.784C854.56 807.972 852.913 806.504 850.881 806.504C848.85 806.504 847.203 807.972 847.203 809.784C847.203 811.595 848.85 813.064 850.881 813.064Z" fill="white"/>
<path opacity="0.35" d="M907.361 813.064C909.393 813.064 911.04 811.595 911.04 809.784C911.04 807.972 909.393 806.504 907.361 806.504C905.33 806.504 903.683 807.972 903.683 809.784C903.683 811.595 905.33 813.064 907.361 813.064Z" fill="white"/>
<path opacity="0.35" d="M963.841 813.064C965.873 813.064 967.52 811.595 967.52 809.784C967.52 807.972 965.873 806.504 963.841 806.504C961.809 806.504 960.162 807.972 960.162 809.784C960.162 811.595 961.809 813.064 963.841 813.064Z" fill="white"/>
<path opacity="0.35" d="M1020.32 813.064C1022.35 813.064 1024 811.595 1024 809.784C1024 807.972 1022.35 806.504 1020.32 806.504C1018.29 806.504 1016.64 807.972 1016.64 809.784C1016.64 811.595 1018.29 813.064 1020.32 813.064Z" fill="white"/>
<path opacity="0.35" d="M3.6787 863.423C5.71036 863.423 7.35734 861.954 7.35734 860.143C7.35734 858.331 5.71036 856.863 3.6787 856.863C1.64704 856.863 6.10352e-05 858.331 6.10352e-05 860.143C6.10352e-05 861.954 1.64704 863.423 3.6787 863.423Z" fill="white"/>
<path opacity="0.35" d="M60.1587 863.423C62.1903 863.423 63.8373 861.954 63.8373 860.143C63.8373 858.331 62.1903 856.863 60.1587 856.863C58.127 856.863 56.48 858.331 56.48 860.143C56.48 861.954 58.127 863.423 60.1587 863.423Z" fill="white"/>
<path opacity="0.35" d="M116.639 863.423C118.67 863.423 120.317 861.954 120.317 860.143C120.317 858.331 118.67 856.863 116.639 856.863C114.607 856.863 112.96 858.331 112.96 860.143C112.96 861.954 114.607 863.423 116.639 863.423Z" fill="white"/>
<path d="M173.119 863.423C175.151 863.423 176.798 861.954 176.798 860.143C176.798 858.331 175.151 856.863 173.119 856.863C171.087 856.863 169.44 858.331 169.44 860.143C169.44 861.954 171.087 863.423 173.119 863.423Z" fill="white"/>
<path d="M229.599 863.423C231.631 863.423 233.278 861.954 233.278 860.143C233.278 858.331 231.631 856.863 229.599 856.863C227.568 856.863 225.921 858.331 225.921 860.143C225.921 861.954 227.568 863.423 229.599 863.423Z" fill="white"/>
<path d="M286.08 863.423C288.111 863.423 289.758 861.954 289.758 860.143C289.758 858.331 288.111 856.863 286.08 856.863C284.048 856.863 282.401 858.331 282.401 860.143C282.401 861.954 284.048 863.423 286.08 863.423Z" fill="white"/>
<path opacity="0.35" d="M342.56 863.423C344.592 863.423 346.239 861.954 346.239 860.143C346.239 858.331 344.592 856.863 342.56 856.863C340.528 856.863 338.881 858.331 338.881 860.143C338.881 861.954 340.528 863.423 342.56 863.423Z" fill="white"/>
<path opacity="0.35" d="M399.04 863.423C401.072 863.423 402.719 861.954 402.719 860.143C402.719 858.331 401.072 856.863 399.04 856.863C397.008 856.863 395.361 858.331 395.361 860.143C395.361 861.954 397.008 863.423 399.04 863.423Z" fill="white"/>
<path opacity="0.35" d="M455.52 863.423C457.552 863.423 459.199 861.954 459.199 860.143C459.199 858.331 457.552 856.863 455.52 856.863C453.488 856.863 451.841 858.331 451.841 860.143C451.841 861.954 453.488 863.423 455.52 863.423Z" fill="white"/>
<path opacity="0.35" d="M512 863.423C514.032 863.423 515.679 861.954 515.679 860.143C515.679 858.331 514.032 856.863 512 856.863C509.968 856.863 508.321 858.331 508.321 860.143C508.321 861.954 509.968 863.423 512 863.423Z" fill="white"/>
<path opacity="0.35" d="M568.48 863.423C570.512 863.423 572.159 861.954 572.159 860.143C572.159 858.331 570.512 856.863 568.48 856.863C566.449 856.863 564.802 858.331 564.802 860.143C564.802 861.954 566.449 863.423 568.48 863.423Z" fill="white"/>
<path d="M624.96 863.423C626.992 863.423 628.639 861.954 628.639 860.143C628.639 858.331 626.992 856.863 624.96 856.863C622.929 856.863 621.282 858.331 621.282 860.143C621.282 861.954 622.929 863.423 624.96 863.423Z" fill="white"/>
<path opacity="0.35" d="M681.44 863.423C683.472 863.423 685.119 861.954 685.119 860.143C685.119 858.331 683.472 856.863 681.44 856.863C679.408 856.863 677.761 858.331 677.761 860.143C677.761 861.954 679.408 863.423 681.44 863.423Z" fill="white"/>
<path opacity="0.35" d="M737.921 863.423C739.952 863.423 741.599 861.954 741.599 860.143C741.599 858.331 739.952 856.863 737.921 856.863C735.889 856.863 734.242 858.331 734.242 860.143C734.242 861.954 735.889 863.423 737.921 863.423Z" fill="white"/>
<path opacity="0.35" d="M794.401 863.423C796.433 863.423 798.08 861.954 798.08 860.143C798.08 858.331 796.433 856.863 794.401 856.863C792.369 856.863 790.722 858.331 790.722 860.143C790.722 861.954 792.369 863.423 794.401 863.423Z" fill="white"/>
<path opacity="0.35" d="M850.881 863.423C852.913 863.423 854.56 861.954 854.56 860.143C854.56 858.331 852.913 856.863 850.881 856.863C848.85 856.863 847.203 858.331 847.203 860.143C847.203 861.954 848.85 863.423 850.881 863.423Z" fill="white"/>
<path d="M907.361 863.423C909.393 863.423 911.04 861.954 911.04 860.143C911.04 858.331 909.393 856.863 907.361 856.863C905.33 856.863 903.683 858.331 903.683 860.143C903.683 861.954 905.33 863.423 907.361 863.423Z" fill="white"/>
<path d="M963.841 863.423C965.873 863.423 967.52 861.954 967.52 860.143C967.52 858.331 965.873 856.863 963.841 856.863C961.809 856.863 960.162 858.331 960.162 860.143C960.162 861.954 961.809 863.423 963.841 863.423Z" fill="white"/>
<path opacity="0.35" d="M1020.32 863.423C1022.35 863.423 1024 861.954 1024 860.143C1024 858.331 1022.35 856.863 1020.32 856.863C1018.29 856.863 1016.64 858.331 1016.64 860.143C1016.64 861.954 1018.29 863.423 1020.32 863.423Z" fill="white"/>
<path opacity="0.35" d="M3.6787 913.782C5.71036 913.782 7.35734 912.313 7.35734 910.502C7.35734 908.69 5.71036 907.222 3.6787 907.222C1.64704 907.222 6.10352e-05 908.69 6.10352e-05 910.502C6.10352e-05 912.313 1.64704 913.782 3.6787 913.782Z" fill="white"/>
<path opacity="0.35" d="M60.1587 913.782C62.1903 913.782 63.8373 912.313 63.8373 910.502C63.8373 908.691 62.1903 907.222 60.1587 907.222C58.127 907.222 56.48 908.691 56.48 910.502C56.48 912.313 58.127 913.782 60.1587 913.782Z" fill="white"/>
<path opacity="0.35" d="M116.639 913.782C118.67 913.782 120.317 912.313 120.317 910.502C120.317 908.691 118.67 907.222 116.639 907.222C114.607 907.222 112.96 908.691 112.96 910.502C112.96 912.313 114.607 913.782 116.639 913.782Z" fill="white"/>
<path opacity="0.35" d="M173.119 913.782C175.151 913.782 176.798 912.313 176.798 910.502C176.798 908.691 175.151 907.222 173.119 907.222C171.087 907.222 169.44 908.691 169.44 910.502C169.44 912.313 171.087 913.782 173.119 913.782Z" fill="white"/>
<path opacity="0.35" d="M229.599 913.782C231.631 913.782 233.278 912.313 233.278 910.502C233.278 908.691 231.631 907.222 229.599 907.222C227.568 907.222 225.921 908.691 225.921 910.502C225.921 912.313 227.568 913.782 229.599 913.782Z" fill="white"/>
<path opacity="0.35" d="M286.08 913.782C288.111 913.782 289.758 912.313 289.758 910.502C289.758 908.691 288.111 907.222 286.08 907.222C284.048 907.222 282.401 908.691 282.401 910.502C282.401 912.313 284.048 913.782 286.08 913.782Z" fill="white"/>
<path opacity="0.35" d="M342.56 913.782C344.592 913.782 346.239 912.313 346.239 910.502C346.239 908.691 344.592 907.222 342.56 907.222C340.528 907.222 338.881 908.691 338.881 910.502C338.881 912.313 340.528 913.782 342.56 913.782Z" fill="white"/>
<path opacity="0.35" d="M399.04 913.782C401.072 913.782 402.719 912.313 402.719 910.502C402.719 908.691 401.072 907.222 399.04 907.222C397.008 907.222 395.361 908.691 395.361 910.502C395.361 912.313 397.008 913.782 399.04 913.782Z" fill="white"/>
<path opacity="0.35" d="M455.52 913.782C457.552 913.782 459.199 912.313 459.199 910.502C459.199 908.691 457.552 907.222 455.52 907.222C453.488 907.222 451.841 908.691 451.841 910.502C451.841 912.313 453.488 913.782 455.52 913.782Z" fill="white"/>
<path opacity="0.35" d="M512 913.782C514.032 913.782 515.679 912.313 515.679 910.502C515.679 908.691 514.032 907.222 512 907.222C509.968 907.222 508.321 908.691 508.321 910.502C508.321 912.313 509.968 913.782 512 913.782Z" fill="white"/>
<path opacity="0.35" d="M568.48 913.782C570.512 913.782 572.159 912.313 572.159 910.502C572.159 908.691 570.512 907.222 568.48 907.222C566.449 907.222 564.802 908.691 564.802 910.502C564.802 912.313 566.449 913.782 568.48 913.782Z" fill="white"/>
<path opacity="0.35" d="M624.96 913.782C626.992 913.782 628.639 912.313 628.639 910.502C628.639 908.691 626.992 907.222 624.96 907.222C622.929 907.222 621.282 908.691 621.282 910.502C621.282 912.313 622.929 913.782 624.96 913.782Z" fill="white"/>
<path opacity="0.35" d="M681.44 913.782C683.472 913.782 685.119 912.313 685.119 910.502C685.119 908.691 683.472 907.222 681.44 907.222C679.408 907.222 677.761 908.691 677.761 910.502C677.761 912.313 679.408 913.782 681.44 913.782Z" fill="white"/>
<path opacity="0.35" d="M737.921 913.782C739.952 913.782 741.599 912.313 741.599 910.502C741.599 908.691 739.952 907.222 737.921 907.222C735.889 907.222 734.242 908.691 734.242 910.502C734.242 912.313 735.889 913.782 737.921 913.782Z" fill="white"/>
<path opacity="0.35" d="M794.401 913.782C796.433 913.782 798.08 912.313 798.08 910.502C798.08 908.691 796.433 907.222 794.401 907.222C792.369 907.222 790.722 908.691 790.722 910.502C790.722 912.313 792.369 913.782 794.401 913.782Z" fill="white"/>
<path opacity="0.35" d="M850.881 913.782C852.913 913.782 854.56 912.313 854.56 910.502C854.56 908.691 852.913 907.222 850.881 907.222C848.85 907.222 847.203 908.691 847.203 910.502C847.203 912.313 848.85 913.782 850.881 913.782Z" fill="white"/>
<path opacity="0.35" d="M907.361 913.782C909.393 913.782 911.04 912.313 911.04 910.502C911.04 908.691 909.393 907.222 907.361 907.222C905.33 907.222 903.683 908.691 903.683 910.502C903.683 912.313 905.33 913.782 907.361 913.782Z" fill="white"/>
<path opacity="0.35" d="M963.841 913.782C965.873 913.782 967.52 912.313 967.52 910.502C967.52 908.691 965.873 907.222 963.841 907.222C961.809 907.222 960.162 908.691 960.162 910.502C960.162 912.313 961.809 913.782 963.841 913.782Z" fill="white"/>
<path opacity="0.35" d="M1020.32 913.782C1022.35 913.782 1024 912.313 1024 910.502C1024 908.691 1022.35 907.222 1020.32 907.222C1018.29 907.222 1016.64 908.691 1016.64 910.502C1016.64 912.313 1018.29 913.782 1020.32 913.782Z" fill="white"/>
</g>
</svg>
