<svg width="40" height="40" viewBox="0 0 40 40" fill="none" xmlns="http://www.w3.org/2000/svg">
<path d="M19.9999 36.6666C29.2049 36.6666 36.6666 29.205 36.6666 20C36.6666 10.795 29.2049 3.33331 19.9999 3.33331C10.7949 3.33331 3.33325 10.795 3.33325 20C3.33325 29.205 10.7949 36.6666 19.9999 36.6666Z" fill="#C3FFD9"/>
<path d="M26.3484 12.0316H23.8651C22.0484 12.0316 20.6317 13.4483 20.6317 15.265V17.7483C20.6317 19.5649 22.0484 20.9816 23.8651 20.9816H27.0484C26.9151 23.9983 26.2151 24.4483 24.1984 25.6316C23.5984 25.9816 23.4151 26.7483 23.7651 27.3483C23.9984 27.7483 24.4151 27.9649 24.8484 27.9649C25.0651 27.9649 25.2817 27.915 25.4817 27.7983C28.4651 26.0316 29.5817 24.8816 29.5817 19.7483V15.2983C29.5817 13.4816 28.1317 12.0316 26.3484 12.0316ZM16.1334 12.0316H13.6501C11.8334 12.0316 10.4167 13.4483 10.4167 15.265V17.7483C10.4167 19.5649 11.8334 20.9816 13.6501 20.9816H16.8334C16.7001 23.9983 16.0001 24.4483 13.9834 25.6316C13.3834 25.9816 13.2001 26.7483 13.5501 27.3483C13.7834 27.7483 14.2001 27.9649 14.6334 27.9649C14.8501 27.9649 15.0667 27.915 15.2667 27.7983C18.2501 26.0316 19.3667 24.8816 19.3667 19.7483V15.2983C19.3501 13.4816 17.9001 12.0316 16.1334 12.0316Z" fill="#62B792"/>
</svg>
