<svg width="24" height="24" viewBox="0 0 24 24" fill="none" xmlns="http://www.w3.org/2000/svg">
<path d="M12 22C17.523 22 22 17.523 22 12C22 6.477 17.523 2 12 2C6.477 2 2 6.477 2 12C2 17.523 6.477 22 12 22Z" fill="black"/>
<path d="M10.58 15.5821C10.3811 15.5819 10.1905 15.5027 10.05 15.3621L7.21999 12.5321C7.08051 12.3909 7.00229 12.2005 7.00229 12.0021C7.00229 11.8036 7.08051 11.6132 7.21999 11.4721C7.50999 11.1821 7.98999 11.1821 8.27999 11.4721L10.58 13.7721L15.72 8.63205C16.01 8.34205 16.49 8.34205 16.78 8.63205C17.07 8.92205 17.07 9.40205 16.78 9.69205L11.11 15.3621C10.9695 15.5027 10.7788 15.5819 10.58 15.5821Z" fill="#C3FFD9"/>
</svg>
