<svg width="24" height="24" viewBox="0 0 24 24" fill="none" xmlns="http://www.w3.org/2000/svg">
<path d="M21.04 13.279L20.12 12.379L12.37 20.119L13.3 21.049C14.08 21.829 14.89 22.219 15.69 22.219C16.49 22.219 17.3 21.829 18.08 21.049L21.04 18.089C22.63 16.489 22.63 14.879 21.04 13.279ZM10.69 2.931C9.12001 1.361 7.47001 1.361 5.90001 2.931L2.93001 5.891C1.37001 7.461 1.37001 9.111 2.93001 10.681L3.85001 11.601L11.6 3.851L10.69 2.931ZM21.81 3.938C20.5 7.208 17.51 11.478 14.66 14.268C14.4574 13.0073 13.8555 11.845 12.9428 10.9521C12.0301 10.0592 10.8548 9.48287 9.59001 9.308C12.39 6.448 16.69 3.418 19.97 2.098C20.55 1.878 21.13 2.048 21.49 2.408C21.87 2.788 22.05 3.358 21.81 3.938Z" fill="#C3FFD9"/>
<path d="M13.78 15.09C13.58 15.26 13.38 15.43 13.18 15.59L11.39 17.02C11.39 16.99 11.38 16.95 11.38 16.91C11.24 15.84 10.74 14.85 9.93 14.04C9.13567 13.2342 8.09281 12.7198 6.97 12.58C6.94 12.58 6.9 12.57 6.87 12.57L8.31999 10.74C8.45999 10.56 8.61 10.39 8.77 10.21L9.45 10.3C11.6 10.6 13.33 12.29 13.67 14.43L13.78 15.09Z" fill="#C3FFD9"/>
<path d="M10.43 17.62C10.43 18.72 10.01 19.77 9.21001 20.56C8.60001 21.18 7.78001 21.6 6.78001 21.72L4.33001 21.99C2.99001 22.14 1.84001 20.99 1.99001 19.64L2.26001 17.18C2.50001 14.99 4.33001 13.59 6.27001 13.55C6.46001 13.54 6.67001 13.55 6.87001 13.57C7.72001 13.68 8.54001 14.07 9.23001 14.75C9.90001 15.42 10.28 16.21 10.39 17.04C10.41 17.24 10.43 17.43 10.43 17.62Z" fill="#C3FFD9"/>
</svg>
