<svg width="24" height="24" viewBox="0 0 24 24" fill="none" xmlns="http://www.w3.org/2000/svg">
<path d="M19.73 16.1C19.73 16.07 19.75 16.04 19.75 16V6.5C19.75 4.98 18.52 3.75 17 3.75H13.07L14.48 2.58C14.8 2.31 14.84 1.84 14.58 1.52C14.4519 1.36735 14.2689 1.27127 14.0705 1.25256C13.8721 1.23384 13.6744 1.294 13.52 1.42L10.52 3.92C10.4359 3.99144 10.3683 4.08031 10.322 4.18047C10.2757 4.28062 10.2517 4.38965 10.2517 4.5C10.2517 4.61035 10.2757 4.71938 10.322 4.81953C10.3683 4.91968 10.4359 5.00856 10.52 5.08L13.52 7.58C13.66 7.7 13.83 7.75 14 7.75C14.155 7.75093 14.3065 7.7038 14.4337 7.61509C14.5608 7.52637 14.6574 7.40044 14.71 7.25461C14.7626 7.10879 14.7688 6.95024 14.7276 6.80077C14.6864 6.65131 14.5999 6.51828 14.48 6.42L13.07 5.25H17C17.69 5.25 18.25 5.81 18.25 6.5V16C18.25 16.04 18.27 16.07 18.27 16.1C16.97 16.43 16 17.6 16 19C16 20.66 17.34 22 19 22C20.66 22 22 20.66 22 19C22 17.6 21.03 16.43 19.73 16.1ZM13.48 18.92L10.48 16.42C10.404 16.3566 10.3162 16.3089 10.2217 16.2796C10.1271 16.2503 10.0277 16.24 9.92918 16.2493C9.83064 16.2586 9.73492 16.2873 9.64753 16.3337C9.56014 16.3802 9.48281 16.4435 9.42 16.52C9.35661 16.596 9.30888 16.6838 9.27958 16.7783C9.25028 16.8729 9.23998 16.9723 9.24928 17.0708C9.25857 17.1694 9.28728 17.2651 9.33375 17.3525C9.38021 17.4399 9.44351 17.5172 9.52 17.58L10.93 18.75H7C6.31 18.75 5.75 18.19 5.75 17.5V8C5.75 7.96 5.73 7.93 5.73 7.9C7.03 7.57 8 6.4 8 5C8 3.34 6.66 2 5 2C3.34 2 2 3.34 2 5C2 6.4 2.97 7.57 4.27 7.9C4.27 7.93 4.25 7.96 4.25 8V17.5C4.25 19.02 5.48 20.25 7 20.25H10.93L9.52 21.42C9.2 21.69 9.16 22.16 9.42 22.48C9.57 22.66 9.78 22.75 10 22.75C10.17 22.75 10.34 22.69 10.48 22.58L13.48 20.08C13.5641 20.0086 13.6317 19.9197 13.678 19.8195C13.7243 19.7194 13.7483 19.6103 13.7483 19.5C13.7483 19.3896 13.7243 19.2806 13.678 19.1805C13.6317 19.0803 13.5641 18.9914 13.48 18.92Z" fill="#C3FFD9"/>
</svg>
