<svg width="40" height="40" viewBox="0 0 40 40" fill="none" xmlns="http://www.w3.org/2000/svg">
<path d="M20 36.6666C29.205 36.6666 36.6667 29.205 36.6667 20C36.6667 10.795 29.205 3.33331 20 3.33331C10.795 3.33331 3.33337 10.795 3.33337 20C3.33337 29.205 10.795 36.6666 20 36.6666Z" fill="#C3FFD9"/>
<path d="M26.3483 12.0316H23.865C22.0483 12.0316 20.6316 13.4483 20.6316 15.265V17.7483C20.6316 19.5649 22.0483 20.9816 23.865 20.9816H27.0483C26.915 23.9983 26.215 24.4483 24.1983 25.6316C23.5983 25.9816 23.415 26.7483 23.765 27.3483C23.9983 27.7483 24.415 27.9649 24.8483 27.9649C25.065 27.9649 25.2816 27.915 25.4816 27.7983C28.465 26.0316 29.5816 24.8816 29.5816 19.7483V15.2983C29.5816 13.4816 28.1316 12.0316 26.3483 12.0316ZM16.1333 12.0316H13.65C11.8333 12.0316 10.4166 13.4483 10.4166 15.265V17.7483C10.4166 19.5649 11.8333 20.9816 13.65 20.9816H16.8333C16.7 23.9983 16 24.4483 13.9833 25.6316C13.3833 25.9816 13.2 26.7483 13.55 27.3483C13.7833 27.7483 14.2 27.9649 14.6333 27.9649C14.85 27.9649 15.0666 27.915 15.2666 27.7983C18.25 26.0316 19.3666 24.8816 19.3666 19.7483V15.2983C19.35 13.4816 17.9 12.0316 16.1333 12.0316Z" fill="#62B792"/>
</svg>
