<svg width="279" height="239" viewBox="0 0 279 239" fill="none" xmlns="http://www.w3.org/2000/svg">
<g opacity="0.18">
<mask id="mask0_1_192" style="mask-type:alpha" maskUnits="userSpaceOnUse" x="0" y="0" width="279" height="239">
<rect width="279" height="239" fill="#D0E8F5"/>
</mask>
<g mask="url(#mask0_1_192)">
<path d="M-1.34605 225.88C0.90641 176.968 32.0842 141.319 57.138 112.666L58.9165 110.634C61.8213 107.574 68.527 99.3901 68.0015 89.5075C67.6824 83.4915 64.7025 78.0434 59.1465 73.3226C55.8147 70.493 52.7364 67.8463 49.8035 65.3311C36.8425 54.2049 26.6079 45.4156 10.7187 34.3974C4.9139 30.3711 -0.801703 26.5607 -6.38123 22.9802V23.5433C-0.890863 27.0722 4.73559 30.8263 10.4465 34.7868C26.3169 45.7957 36.5468 54.5756 49.4938 65.6924C52.4267 68.2077 55.505 70.8543 58.8368 73.684C64.2896 78.3156 67.2131 83.6511 67.5275 89.5309C68.0437 99.2306 61.4365 107.292 58.5646 110.315L56.7767 112.356C31.6806 141.056 0.441841 176.781 -1.82 225.856C-2.05932 231.084 -4.09592 234.279 -6.38123 235.363V235.931C-3.90822 234.918 -1.61353 231.68 -1.34605 225.88Z" fill="#64D582"/>
<path d="M9.74261 226.391C11.8167 181.356 41.582 147.321 65.4956 119.972L67.2835 117.926C72.3046 112.178 76.3731 107.086 79.3764 102.792C83.0976 97.471 90.0239 87.5602 73.6701 71.7742C56.0353 54.7494 36.9833 39.1042 17.0443 25.2751C8.91201 19.6345 1.08473 14.5524 -6.38123 9.99121V10.5449C1.00026 15.0639 8.73839 20.0944 16.7721 25.6645C36.6923 39.4796 55.7256 55.106 73.3417 72.1168C89.4045 87.6259 82.6283 97.3161 78.9869 102.52C75.993 106.8 71.9386 111.882 66.9268 117.612L65.139 119.658C41.1738 147.063 11.3522 181.164 9.26865 226.368C8.30197 247.33 4.58073 259.531 -2.44412 264.763C-3.83313 265.795 -5.15176 266.358 -6.38123 266.494V266.973C-5.04383 266.842 -3.65951 266.26 -2.16256 265.143C4.98429 259.821 8.77124 247.508 9.74261 226.391Z" fill="#64D582"/>
<path d="M-2.2705 154.571C2.00448 147.053 7.54176 140.235 12.9007 133.641C20.6295 124.13 28.621 114.298 32.9194 102.215C40.5027 80.9105 25.6365 71.0654 9.90215 60.6431C8.45213 59.6811 6.99273 58.7144 5.52394 57.7243C2.92892 55.9692 0.479374 54.3127 -1.93263 52.6422C-3.11986 51.821 -4.57927 50.7651 -6.38593 49.4512V50.0377C-4.71535 51.2531 -3.33103 52.248 -2.2048 53.027C0.211895 54.7022 2.66144 56.3587 5.27054 58.1231C6.72525 59.1039 8.18465 60.0753 9.63467 61.0372C25.2095 71.3516 39.9255 81.0982 32.469 102.051C28.194 114.054 20.2306 123.857 12.5253 133.336C7.15697 139.944 1.6056 146.776 -2.68814 154.327C-3.96923 156.593 -5.14238 159.535 -6.38123 162.651V163.937C-6.24984 163.613 -6.12314 163.289 -5.99644 162.97C-4.74351 159.812 -3.55628 156.832 -2.2705 154.571Z" fill="#64D582"/>
<path d="M36.4717 119.658C37.1803 118.813 37.903 117.964 38.6257 117.115C48.8321 105.106 59.3858 92.6942 47.3915 77.8467C38.1142 66.3639 24.1067 56.8942 11.751 48.5413C9.18887 46.8097 6.77217 45.1767 4.38832 43.5249C2.78814 42.4175 0.624845 40.8361 -1.88101 39.0059C-3.26064 38.0017 -4.77166 36.8942 -6.38593 35.7305V36.317C-4.8796 37.4104 -3.45773 38.4428 -2.16257 39.3907C0.347981 41.2208 2.51597 42.8069 4.11615 43.9144C6.5 45.5662 8.92139 47.2039 11.4836 48.9355C23.8111 57.2696 37.7857 66.7205 47.0208 78.147C58.7711 92.6895 48.3441 104.951 38.2643 116.81C37.537 117.664 36.819 118.513 36.1057 119.358C27.2414 129.921 15.9181 144.069 6.96457 159.822C1.53052 169.386 -2.94624 179.433 -6.38123 189.747V191.31C-2.904 180.531 1.71353 170.028 7.38221 160.057C16.317 144.332 27.6215 130.207 36.4717 119.658Z" fill="#64D582"/>
<path d="M143.679 143.384C142.886 144.693 142.14 145.936 141.493 146.851C133.468 158.156 123.97 168.184 113.29 179.184C111.849 180.662 110.371 182.159 108.879 183.67C100.057 192.581 90.9296 201.802 85.472 212.694C83.3557 216.917 82.7034 220.211 83.5856 222.22C83.9845 223.13 84.6837 223.735 85.6597 224.017C86.0633 224.134 86.5138 224.19 87.0018 224.19C88.9587 224.19 91.5537 223.247 94.5053 221.459C100.371 217.907 105.946 213.524 111.333 209.282C115.749 205.809 120.315 202.215 125.021 199.099C144.003 186.518 156.546 178.207 162.408 154.749C163.623 149.888 164.336 138.808 160.582 133.998C159.287 132.342 157.593 131.563 155.491 131.657C150.601 131.91 146.603 138.541 143.679 143.384ZM155.857 132.126C157.621 132.126 159.085 132.853 160.207 134.294C163.862 138.973 163.144 149.85 161.948 154.636C156.129 177.912 143.651 186.185 124.754 198.705C120.033 201.835 115.463 205.434 111.037 208.911C105.66 213.144 100.099 217.518 94.2566 221.056C90.6996 223.21 87.6682 224.106 85.7865 223.562C84.9512 223.322 84.3552 222.806 84.0173 222.032C83.2055 220.183 83.8719 216.94 85.8944 212.909C91.319 202.084 100.413 192.891 109.212 184.003C110.709 182.492 112.187 180.995 113.628 179.512C124.327 168.498 133.834 158.456 141.877 147.124C142.534 146.194 143.29 144.946 144.083 143.628C146.95 138.879 150.873 132.37 155.509 132.135C155.627 132.131 155.744 132.126 155.857 132.126Z" fill="#64D582"/>
<path d="M20.9908 226.907C22.8866 185.805 51.2113 153.412 73.9705 127.386L75.763 125.336C102.83 94.3504 101.732 83.5339 89.0338 71.0046C75.1108 57.2646 53.1634 36.6218 23.4591 16.0259C13.3184 8.99166 3.29026 2.56747 -6.38123 -3.15283V-2.23308C3.14948 3.41683 13.0227 9.75187 23.0039 16.6735C52.6566 37.2365 74.5711 57.8465 88.4753 71.5677C100.808 83.7357 101.812 94.3128 75.1671 124.815L73.3745 126.866C50.5308 152.985 22.103 185.495 20.1978 226.87C18.4052 265.711 3.77829 277.114 -6.38123 280.314V281.145C4.01292 277.977 19.1607 266.518 20.9908 226.907Z" fill="#64D582"/>
<path d="M153.238 116.992C146.284 118.71 140.197 128.339 135.308 136.077C133.6 138.785 131.981 141.342 130.563 143.172C122.694 153.337 113.811 162.482 105.219 171.328C102.98 173.632 100.169 176.236 97.1895 179C88.3392 187.198 77.3303 197.405 73.9845 206.748C71.1689 214.603 72.8301 222.093 74.435 229.333C75.7536 235.279 77.1145 241.426 76.0352 247.808C75.3688 251.769 72.9662 255.668 70.4275 259.798C67.3867 264.744 64.2426 269.854 64.0502 275.349C63.9845 277.217 64.2755 279.066 64.909 280.835C67.0113 286.71 69.1933 289.446 71.793 289.446C74.4068 289.446 77.1661 286.771 81.3144 280.216C85.2749 273.956 86.8329 266.705 88.3392 259.69C89.8502 252.646 91.4176 245.368 95.411 239.071C103.018 227.076 116.434 218.24 128.273 210.446C129.268 209.789 130.258 209.136 131.239 208.489C150.887 195.467 166.41 185.181 173.332 157.485C175.162 150.155 174.683 131.488 167.227 121.938C163.599 117.297 158.846 115.608 153.238 116.992ZM166.598 122.422C173.28 130.981 174.613 149.08 172.558 157.292C165.706 184.693 150.301 194.899 130.789 207.832C129.813 208.475 128.827 209.127 127.832 209.784C115.927 217.621 102.436 226.509 94.7399 238.648C90.6715 245.068 89.09 252.416 87.5649 259.526C86.0727 266.471 84.5288 273.655 80.6433 279.793C77.87 284.176 74.6508 288.658 71.793 288.658C69.611 288.658 67.6025 286.011 65.6551 280.572C65.0451 278.869 64.7823 277.17 64.8433 275.377C65.0263 270.094 68.114 265.072 71.1032 260.216C73.6842 256.02 76.1243 252.055 76.8188 247.94C77.9216 241.403 76.542 235.176 75.2093 229.16C73.5575 221.699 71.9948 214.65 74.7306 207.011C78.0108 197.855 88.9446 187.724 97.7291 179.578C100.714 176.809 103.534 174.195 105.786 171.877C114.393 163.017 123.295 153.853 131.192 143.656C132.633 141.793 134.256 139.221 135.979 136.499C140.793 128.883 146.781 119.399 153.426 117.762C154.627 117.466 155.805 117.316 156.917 117.316C160.695 117.316 163.951 119.033 166.598 122.422Z" fill="#64D582"/>
<path d="M160.53 82.5626C156.753 77.1239 153.468 76.42 149.996 75.6786C147.593 75.1671 145.11 74.6368 142.281 72.497L142.046 72.2342C133.951 63.1868 106.838 33.6609 97.6494 33.6609C96.5654 33.6609 95.7254 34.0457 95.1435 34.8012C93.914 36.4014 93.9797 39.6252 95.3312 44.651C96.1383 47.6402 103.815 51.7603 111.948 56.1244C118.724 59.7612 125.725 63.52 128.1 66.3403C130.23 68.8696 133.032 72.375 132.778 73.5904C132.708 73.9188 132.351 74.1112 131.727 74.421C130.31 75.1249 128.17 76.1901 129.31 81.1924C130.099 84.6509 132.239 88.0859 134.313 91.4129C136.241 94.5101 138.062 97.4335 138.804 100.277C140.836 108.072 128.058 122.394 119.601 131.868C116.814 134.993 114.402 137.692 112.872 139.728C106.711 147.903 99.0337 155.467 91.61 162.783C77.1708 177.016 62.2342 191.732 56.9831 212.055C49.1371 242.421 47.5698 269.235 52.3328 291.755C54.8715 303.768 63.6232 320.525 72.1074 320.525C77.3913 320.525 81.2393 314.176 83.5481 301.652C92.4265 253.411 116.65 237.363 140.075 221.84C160.831 208.085 180.432 195.096 188.864 161.366C192.041 148.639 187.152 129.066 180.798 118.236C177.964 113.403 174.388 110.686 170.934 108.053C167.898 105.744 165.031 103.562 162.816 100.085C161.248 97.6213 161.525 94.7494 161.821 91.7086C162.126 88.5645 162.44 85.3172 160.53 82.5626ZM161.877 100.681C164.2 104.327 167.142 106.565 170.258 108.94C173.628 111.502 177.114 114.153 179.836 118.799C186.082 129.442 190.896 148.644 187.785 161.098C179.456 194.411 160.028 207.288 139.456 220.915C115.838 236.565 91.4176 252.75 82.45 301.45C80.2867 313.205 76.7109 319.418 72.1028 319.418C64.8949 319.418 56.1385 304.425 53.4121 291.525C48.6866 269.179 50.2492 242.534 58.0531 212.337C63.229 192.314 78.0483 177.701 92.3843 163.576C99.8361 156.232 107.546 148.635 113.754 140.399C115.261 138.4 117.654 135.716 120.427 132.609C129.554 122.38 142.06 108.367 139.874 100C139.09 96.9925 137.222 93.9986 135.247 90.8264C133.224 87.5791 131.136 84.2239 130.385 80.9484C129.437 76.7954 130.911 76.0634 132.215 75.4158C132.933 75.0592 133.679 74.6884 133.858 73.8156C134.097 72.6519 133.36 70.878 128.94 65.627C126.429 62.6472 119.329 58.8321 112.464 55.1484C105.251 51.277 97.0769 46.8894 96.3964 44.3647C94.8479 38.6304 95.3359 36.3685 96.0163 35.4816C96.3777 35.0077 96.9126 34.7777 97.64 34.7777C104.571 34.7777 124.693 54.5149 141.206 72.9803C141.413 73.2103 141.525 73.3229 141.535 73.3276C144.627 75.6739 147.354 76.2558 149.756 76.772C153.154 77.4946 156.087 78.1234 159.615 83.2009C161.295 85.6176 161.009 88.527 160.713 91.6053C160.413 94.6931 160.103 97.8934 161.877 100.681Z" fill="#64D582"/>
<path d="M-6.38123 -20.3699C47.0912 9.8881 104.716 58.0344 115.209 81.962C121.511 96.3355 106.237 113.506 86.8986 135.247C64.9231 159.949 37.5792 190.695 35.8758 227.597C33.8064 272.581 11.5117 291.051 -6.38123 296.64V297.799C11.92 292.224 34.8716 273.51 36.9879 227.644C38.6726 191.136 65.871 160.554 87.7292 135.979C107.33 113.942 122.811 96.5373 116.227 81.5115C105.655 57.4055 47.4759 8.84634 -6.38123 -21.5571V-20.3699Z" fill="#64D582"/>
<path d="M8.43337 93.1256C7.6497 88.0153 4.12555 83.4447 -2.35027 79.1557C-3.67828 78.2782 -5.01098 77.3912 -6.38123 76.4668V77.0346C-5.11422 77.8887 -3.8566 78.7286 -2.61305 79.5499C3.74544 83.7591 7.2039 88.2218 7.96411 93.196C9.22173 101.417 2.97585 109.902 -4.69658 119.339C-5.21746 119.977 -5.78526 120.76 -6.38123 121.605V122.431C-5.64448 121.37 -4.94998 120.404 -4.32586 119.639C3.41696 110.113 9.72384 101.539 8.43337 93.1256Z" fill="#64D582"/>
<path d="M22.4643 98.4942C26.5844 86.9128 22.4408 82.2577 3.7736 69.8974C2.29073 68.9166 0.803172 67.9312 -0.721929 66.8988C-2.67875 65.5755 -4.54172 64.3085 -6.38123 63.0461V63.6233C-4.62619 64.8246 -2.84299 66.0353 -0.970638 67.3024C0.540385 68.3206 2.02794 69.3108 3.51081 70.2915C21.9293 82.4877 26.026 87.0583 22.0138 98.3299C18.3817 108.536 11.3569 117.185 3.91907 126.34C0.460611 130.596 -3.07293 134.946 -6.38123 139.597V140.418C-2.96969 135.575 0.695241 131.056 4.28979 126.636C11.751 117.452 18.8041 108.776 22.4643 98.4942Z" fill="#64D582"/>
<path d="M147.537 158.269H147.433C145.181 158.269 142.896 161.127 141.234 163.22C140.873 163.67 140.549 164.074 140.272 164.393C138.7 166.185 137.185 168.076 135.721 169.906C134.773 171.089 133.829 172.272 132.863 173.431L132.745 173.571C129.583 177.326 128.287 179.77 128.794 181.047C128.935 181.399 129.278 181.835 130.136 181.934C130.263 181.948 130.39 181.957 130.516 181.957H130.592C136.941 181.821 142.079 176.073 144.576 172.661C146.955 169.409 148.658 165.899 149.249 163.027C149.39 162.356 149.77 160.085 148.869 158.935C148.546 158.522 148.086 158.292 147.537 158.269ZM148.475 162.863C147.903 165.627 146.251 169.024 143.937 172.192C141.525 175.486 136.584 181.033 130.573 181.164L130.512 181.563V181.169C130.413 181.169 130.319 181.164 130.221 181.15C129.653 181.084 129.554 180.836 129.522 180.756C129.348 180.319 129.371 178.79 133.341 174.083L133.463 173.937C134.435 172.769 135.383 171.582 136.331 170.399C137.79 168.578 139.296 166.692 140.859 164.914C141.145 164.59 141.474 164.172 141.844 163.712C143.323 161.859 145.552 159.062 147.499 159.062C147.823 159.076 148.057 159.189 148.236 159.423C148.794 160.122 148.71 161.713 148.475 162.863Z" fill="#64D582"/>
<path d="M314.833 318.906C335.87 316.513 358.437 292.144 358.728 271.501C359.178 239.85 340.976 214.566 323.374 190.113C320.384 185.96 317.297 181.671 314.378 177.447L312.623 174.918C304.34 162.989 294.95 149.465 291.905 134.862C289.319 122.473 285.368 93.6746 289.671 83.7122C292.82 76.4246 301.797 72.2528 310.478 68.2172C316.476 65.4298 322.14 62.7972 326.114 59.1933L326.297 59.0243C339.906 46.6968 339.906 46.6968 349.183 46.3777C351.989 46.2839 355.481 46.1619 360.408 45.6973C367.015 45.0732 370.919 44.1112 373.772 43.412C375.584 42.9662 376.898 42.6424 378.061 42.6424C380.924 42.6424 383.312 44.6649 391.224 51.366C414.617 71.1735 414.176 105.617 413.749 138.926C413.214 180.845 412.66 224.19 460.093 237.912C466.916 239.883 473.556 240.887 479.835 240.887C497.672 240.887 512.857 232.919 523.748 217.846C539.731 195.73 543.978 161.215 534.316 131.962C512.012 64.4349 458.695 25.8241 401.351 -10.9614C349.23 -44.3962 299.591 -53.6126 257.156 -59.6238C254.087 -60.0602 251.164 -60.2808 248.47 -60.2808C231.262 -60.2808 223.078 -51.529 212.722 -40.4451C208.756 -36.1983 204.65 -31.8107 199.559 -27.3339C193.731 -22.2096 186.312 -18.6995 179.137 -15.3067C167.433 -9.77412 156.382 -4.54656 151.816 7.07236C142.126 31.7274 165.932 50.939 186.936 67.8934C196.659 75.7395 205.842 83.1538 211.22 90.5587C232.553 119.93 226.171 169.456 206.828 197.278C200.788 205.964 189.216 216.706 176.959 228.081C156.664 246.921 133.656 268.273 129.597 286.213C127.687 294.65 128.184 300.539 131.122 304.218C133.576 307.287 137.71 308.78 143.768 308.78C153.736 308.78 168.015 304.669 183.13 300.323C201.605 295.007 222.543 288.981 240.408 288.981C248.925 288.981 255.974 290.305 261.957 293.031C268.836 296.166 274.669 300.694 280.305 305.082C289.606 312.313 298.39 319.146 310.821 319.146C312.14 319.136 313.486 319.056 314.833 318.906ZM262.295 292.304C256.204 289.53 249.047 288.184 240.418 288.184C222.445 288.184 201.445 294.223 182.924 299.554C167.86 303.885 153.632 307.982 143.778 307.982C137.978 307.982 134.045 306.588 131.751 303.716C128.973 300.239 128.522 294.566 130.376 286.382C134.383 268.676 157.293 247.414 177.508 228.653C189.794 217.25 201.398 206.476 207.489 197.719C226.992 169.672 233.407 119.728 211.872 90.0801C206.434 82.5907 197.208 75.1482 187.443 67.2646C166.65 50.4838 143.083 31.4646 152.562 7.34924C157.016 -3.97874 167.931 -9.13593 179.484 -14.6028C186.711 -18.0191 194.181 -21.5526 200.089 -26.7473C205.209 -31.2522 209.324 -35.6539 213.308 -39.9148C223.534 -50.8533 231.61 -59.4971 248.479 -59.4971C251.136 -59.4971 254.021 -59.2765 257.058 -58.8495C299.413 -52.8477 348.953 -43.6501 400.938 -10.3044C458.155 26.4013 511.355 64.923 533.579 132.201C543.166 161.23 538.962 195.457 523.124 217.372C512.388 232.229 497.423 240.084 479.854 240.084C473.65 240.084 467.085 239.094 460.332 237.142C439.314 231.06 426.02 218.573 419.685 198.968C414.016 181.413 414.293 159.812 414.561 138.926C414.988 105.434 415.429 70.7981 391.754 50.7513C380.441 41.1689 380.14 41.0235 373.603 42.633C370.774 43.3275 366.902 44.2848 360.356 44.8996C355.452 45.3641 351.975 45.4815 349.178 45.5753C339.615 45.9038 339.615 45.9038 325.79 58.4284L325.603 58.5973C321.712 62.1215 316.105 64.7305 310.164 67.4898C301.347 71.5865 292.233 75.8239 288.963 83.3884C284.584 93.5198 288.545 122.544 291.145 135.012C294.228 149.775 303.665 163.369 311.989 175.359L313.744 177.888C316.668 182.112 319.76 186.41 322.75 190.563C340.276 214.913 358.399 240.089 357.954 271.478C357.667 291.783 335.462 315.753 314.763 318.108C313.449 318.259 312.13 318.334 310.854 318.334C298.695 318.334 290.014 311.586 280.821 304.439C275.129 300.037 269.263 295.476 262.295 292.304Z" fill="#64D582"/>
<path d="M274.148 206.762C273.088 205.8 272.14 205.336 271.253 205.336C269.033 205.336 267.475 208.156 265.124 212.426C262.689 216.847 259.352 222.905 253.58 229.043L251.886 230.84C245.27 237.855 242.248 241.056 242.989 242.773C243.327 243.557 244.35 243.904 246.302 243.904C247.963 243.904 250.413 243.66 254.481 243.092C256.161 242.858 257.874 242.736 259.573 242.736C273.327 242.736 284.786 250.446 293.158 256.077C298.057 259.371 301.928 261.975 304.702 261.975C305.865 261.975 306.818 261.511 307.531 260.596C316.307 249.324 285.598 217.147 274.148 206.762ZM306.903 260.108C306.339 260.83 305.617 261.182 304.697 261.182C302.168 261.182 298.385 258.639 293.599 255.415C285.148 249.728 273.566 241.938 259.573 241.938C257.841 241.938 256.091 242.06 254.373 242.299C250.342 242.862 247.926 243.106 246.302 243.106C244.772 243.106 243.904 242.886 243.716 242.454C243.182 241.215 246.875 237.302 252.464 231.38L254.158 229.582C260 223.374 263.364 217.269 265.819 212.806C268.034 208.785 269.498 206.124 271.253 206.124C271.938 206.124 272.712 206.523 273.618 207.349C287.836 220.249 314.688 250.113 306.903 260.108Z" fill="#64D582"/>
<path d="M274.369 219.986C268.817 219.986 261.67 228.733 261.633 232.891C261.619 234.589 262.675 235.589 264.528 235.617C272.707 235.762 281.347 240.948 287.658 244.73C291.398 246.973 294.101 248.592 295.701 248.592C296.213 248.592 296.616 248.432 296.912 248.118C297.278 247.724 297.428 247.119 297.362 246.279C296.776 238.658 282.299 223.388 276.424 220.45C275.8 220.141 275.11 219.986 274.369 219.986ZM296.255 246.363C296.307 247.034 296.18 247.278 296.1 247.367C296.072 247.395 295.992 247.485 295.706 247.485C294.411 247.485 291.548 245.767 288.235 243.777C281.816 239.929 273.031 234.66 264.556 234.509C263.299 234.486 262.74 233.989 262.75 232.9C262.783 229.193 269.427 221.093 274.373 221.093C274.941 221.093 275.462 221.211 275.927 221.445C282.252 224.608 295.72 239.456 296.255 246.363Z" fill="#64D582"/>
<path d="M254.749 76.1573C256.119 76.1573 257.203 74.2286 258.264 69.8973C262.243 53.7125 275.396 32.286 295.809 20.8923C316.466 9.36259 330.239 6.3687 337.639 4.76382C341.314 3.96608 343.158 3.56252 343.599 2.59584C343.768 2.22512 343.716 1.7934 343.435 1.27721C342.013 -1.32719 316.415 -15.6491 279.606 -18.6148L278.052 -18.7415C274.735 -19.0137 271.868 -19.2483 269.118 -19.2483C259.517 -19.2483 251.769 -16.5594 233.698 -1.29435C230.845 1.11766 227.921 3.35603 225.096 5.51933C216.354 12.2204 208.803 18.0064 209.296 24.5714C209.676 29.6159 214.669 34.6183 225.012 40.3245C236.466 46.6408 243.44 59.1606 248.057 67.4431C250.99 72.6895 252.923 76.1573 254.749 76.1573ZM225.246 39.9021C215.195 34.3602 210.136 29.3344 209.775 24.5338C209.301 18.2223 216.757 12.5114 225.392 5.89476C228.221 3.72677 231.145 1.48369 234.007 -0.933006C251.961 -16.1089 259.639 -18.779 269.122 -18.779C271.853 -18.779 274.711 -18.5444 278.02 -18.2722L279.573 -18.1455C315.537 -15.2455 341.675 -0.970546 343.026 1.50246C343.299 2.00457 343.242 2.25328 343.177 2.39876C342.834 3.14957 340.844 3.58129 337.545 4.29926C330.122 5.91352 316.307 8.91679 295.584 20.4794C275.049 31.9435 261.811 53.5014 257.808 69.7894C256.832 73.7547 255.833 75.6834 254.754 75.6834C253.205 75.6834 251.121 71.9433 248.484 67.2085C243.834 58.8744 236.818 46.2841 225.246 39.9021Z" fill="#64D582"/>
<path d="M257.747 103.384C259.122 103.384 260.075 101.732 260.746 98.1797C264.866 76.3496 273.791 45.4253 303.618 28.926C312.834 23.8252 323.242 19.7848 335.438 16.5704C337.893 15.9228 340.52 14.1537 343.059 12.4456C346.349 10.2306 349.746 7.94066 352.886 7.94066C353.247 7.94066 353.608 7.97351 353.951 8.02982C355.71 8.34423 357.024 9.35783 358.291 10.3386C359.723 11.446 361.074 12.4925 362.937 12.4925C363.641 12.4925 364.364 12.3423 365.138 12.0373C366.471 11.5117 367.165 10.4794 367.836 9.47983C368.784 8.06735 369.676 6.73935 372.369 6.96929C375.044 7.19453 376.485 9.23582 378.015 11.3944C379.084 12.9054 380.187 14.4681 381.75 15.3362C382.895 15.9697 384.955 16.6549 386.776 16.6549C388.047 16.6549 388.948 16.317 389.455 15.6553C389.934 15.0218 390.018 14.1255 389.699 12.9852C388.662 9.24521 380.642 5.75389 375.34 3.44513C373.772 2.7647 372.421 2.17343 371.548 1.71355C363.65 -2.46757 355.771 -6.01519 349.103 -8.9293C320.999 -21.224 295.382 -28.7275 270.793 -31.8621C268.024 -32.2141 265.626 -32.3877 263.454 -32.3877C251.347 -32.3877 241.957 -27.0897 223.271 -9.71766C218.686 -5.45676 213.97 -1.79183 209.404 1.7464C199.188 9.67692 191.117 15.9416 191.309 23.8252C191.464 30.0429 196.865 36.6736 208.306 44.6839C226.729 57.5792 238.963 77.1615 247.058 90.1178C252.055 98.1093 255.349 103.384 257.747 103.384ZM208.588 44.2991C197.278 36.3826 191.943 29.8739 191.793 23.8205C191.605 16.1762 199.592 9.97726 209.704 2.1312C214.275 -1.41642 219 -5.08606 223.599 -9.36103C242.182 -26.6392 251.492 -31.9044 263.458 -31.9044C265.608 -31.9044 267.987 -31.7354 270.737 -31.3835C295.284 -28.2535 320.854 -20.7641 348.916 -8.4882C355.574 -5.57408 363.444 -2.03585 371.328 2.14058C372.214 2.60984 373.575 3.20581 375.147 3.89093C380.37 6.16685 388.263 9.60184 389.239 13.1213C389.516 14.1114 389.46 14.8716 389.07 15.3784C388.559 16.0495 387.541 16.1903 386.771 16.1903C385.114 16.1903 383.106 15.5568 381.975 14.928C380.506 14.1115 379.432 12.5957 378.395 11.1269C376.87 8.97303 375.297 6.74404 372.402 6.50002C369.418 6.23724 368.418 7.76233 367.437 9.22174C366.78 10.2025 366.156 11.1269 364.96 11.6009C364.237 11.8871 363.575 12.0232 362.932 12.0232C361.234 12.0232 359.943 11.0284 358.578 9.97257C357.259 8.95428 355.903 7.9031 354.026 7.56993C353.655 7.50423 353.266 7.4714 352.876 7.4714C349.591 7.4714 346.133 9.80361 342.787 12.0561C340.164 13.8205 337.686 15.4911 335.312 16.1152C323.078 19.339 312.632 23.3934 303.378 28.5131C273.374 45.1062 264.406 76.1713 260.267 98.0952C259.657 101.338 258.827 102.91 257.738 102.91C255.603 102.91 252.191 97.443 247.461 89.8785C239.352 76.8846 227.086 57.2507 208.588 44.2991Z" fill="#64D582"/>
<path d="M316.325 302.346C327.165 301.112 337.386 293.66 342.36 283.36C346.902 273.956 349.357 258.006 335.274 235.42C329.225 225.725 322.632 215.932 316.255 206.462C298.019 179.39 280.798 153.815 273.684 128.161C265.64 99.1417 272.102 75.2046 294.012 52.8255C312.984 33.4497 338.066 22.3329 362.82 22.3329C381.421 22.3329 398.014 28.8744 409.549 40.7608C422.224 53.8204 428.554 72.9193 427.864 95.9976C427.705 101.357 427.451 106.894 427.179 112.75C426.222 133.585 425.133 157.199 428.498 176.847C432.369 199.437 441.548 213.393 456.555 219.512C464.589 222.787 472.205 224.444 479.192 224.444C491.895 224.444 502.707 218.902 510.459 208.414C523.641 190.577 526.799 160.033 518.319 132.408C500.126 73.1352 456.4 37.7481 391.75 -0.135358C342.642 -28.9105 301.164 -37.7936 263.655 -43.1103C260.859 -43.5045 258.198 -43.7063 255.739 -43.7063C240.075 -43.7063 232.618 -35.7289 223.182 -25.6303C219.554 -21.7542 215.81 -17.7421 211.154 -13.6501C205.795 -8.9387 201.131 -6.06683 197.011 -3.53751C190.404 0.526301 184.697 4.03169 178.419 13.4169C165.955 32.0513 182.633 43.4825 200.286 55.5848C209.615 61.9808 219.263 68.5927 224.43 76.4153C256.907 125.617 243.801 178.109 220.709 210.821C214.106 220.174 204.467 229 194.261 238.353C181.779 249.784 168.874 261.605 161.492 274.8C158.316 280.478 157.415 284.336 158.733 286.588C159.7 288.235 161.835 289.033 165.256 289.033H165.261C171.352 289.033 181.028 286.508 192.234 283.585C207.949 279.488 227.508 274.387 244.782 274.387C253.937 274.387 261.788 275.847 268.109 278.723C274.406 281.591 279.737 285.734 284.89 289.742C293.364 296.335 301.37 302.557 312.684 302.557C313.876 302.557 315.101 302.487 316.325 302.346ZM268.311 278.287C261.839 275.34 254.144 273.909 244.786 273.909C227.447 273.909 207.86 279.019 192.117 283.12C180.943 286.035 171.291 288.55 165.261 288.554H165.256C162.013 288.554 160.014 287.832 159.141 286.34C157.912 284.247 158.818 280.544 161.905 275.026C169.249 261.896 182.126 250.103 194.58 238.695C204.805 229.329 214.463 220.483 221.098 211.093C234.636 191.915 242.623 170.052 244.2 147.86C246.002 122.487 239.484 98.3627 224.824 76.1525C219.611 68.2502 209.92 61.6101 200.554 55.1906C183.097 43.2244 166.607 31.9246 178.813 13.6797C185.035 4.37894 190.699 0.897025 197.26 -3.13393C201.394 -5.67733 206.077 -8.5539 211.469 -13.2934C216.143 -17.4042 219.897 -21.4211 223.529 -25.3066C232.891 -35.3206 240.282 -43.2277 255.739 -43.2277C258.17 -43.2277 260.812 -43.0306 263.585 -42.6364C301.046 -37.329 342.473 -28.4553 391.506 0.277594C456.057 38.1048 499.708 73.4261 517.859 132.548C526.297 160.038 523.171 190.413 510.074 208.137C502.416 218.498 491.74 223.975 479.192 223.975C472.266 223.975 464.711 222.328 456.733 219.076C441.89 213.027 432.81 199.188 428.967 176.772C425.607 157.171 426.696 133.585 427.653 112.774C427.921 106.913 428.179 101.375 428.338 96.0117C429.033 72.802 422.655 53.5857 409.887 40.4323C398.263 28.4568 381.548 21.8636 362.82 21.8636C337.94 21.8636 312.736 33.0321 293.674 52.4971C282.032 64.3835 274.847 76.6499 271.699 90.0004C268.888 101.92 269.39 114.444 273.228 128.292C280.361 154.022 297.607 179.625 315.861 206.734C322.238 216.199 328.827 225.988 334.871 235.678C348.841 258.081 346.419 273.862 341.933 283.158C337.029 293.313 326.954 300.661 316.274 301.877C315.068 302.013 313.862 302.083 312.689 302.083C301.539 302.083 293.599 295.908 285.185 289.366C280.014 285.34 274.66 281.178 268.311 278.287Z" fill="#64D582"/>
<path d="M326.724 282.684C330.882 279.662 333.317 275.429 333.96 270.103C335.851 254.509 322.022 231.764 309.606 217.03C294.111 198.639 278.733 179.001 271.206 160.01C270.835 159.071 270.267 156.429 269.549 153.083C267.128 141.798 263.078 122.905 257.217 122.905C256.673 122.905 256.119 123.069 255.579 123.393C253.144 124.843 252.421 127.682 253.379 132.079C254.162 135.678 255.955 139.827 257.536 143.492C259.212 147.368 260.657 150.713 260.633 152.614C260.572 157.508 258.287 159.667 256.072 161.76C254.35 163.388 252.567 165.078 251.924 168.006C251.098 171.783 252.656 174.618 254.162 177.358C255.551 179.892 256.992 182.511 256.532 185.885C255.692 192.084 236.068 214.43 218.752 234.153C204.425 250.469 192.051 264.561 192.262 267.259C192.276 267.466 192.356 267.625 192.492 267.738C193.674 268.723 195.828 269.202 199.076 269.202C204.195 269.202 211.323 268.057 219.573 266.734C229.578 265.129 240.92 263.308 250.76 263.308C258.447 263.308 264.2 264.402 268.348 266.654C270.605 267.879 273.116 269.338 275.772 270.882C287.597 277.757 302.318 286.307 314.772 286.307C319.404 286.302 323.425 285.087 326.724 282.684ZM268.587 266.232C264.369 263.942 258.54 262.829 250.774 262.829C240.896 262.829 229.535 264.65 219.512 266.26C211.281 267.578 204.167 268.719 199.09 268.719C195.96 268.719 193.904 268.278 192.811 267.367C192.802 267.358 192.764 267.325 192.755 267.217C192.558 264.721 205.467 250.019 219.127 234.458C236.485 214.688 256.161 192.281 257.02 185.946C257.499 182.412 256.021 179.723 254.594 177.124C253.064 174.336 251.619 171.704 252.403 168.1C253.013 165.317 254.664 163.754 256.41 162.098C258.695 159.939 261.056 157.705 261.117 152.614C261.14 150.615 259.676 147.222 257.982 143.299C256.41 139.658 254.622 135.528 253.853 131.976C252.947 127.804 253.594 125.129 255.833 123.801C256.302 123.524 256.771 123.384 257.227 123.384C262.708 123.384 266.86 142.769 269.094 153.182C269.845 156.682 270.385 159.212 270.774 160.188C278.325 179.24 293.73 198.916 309.254 217.339C321.609 232.004 335.373 254.603 333.5 270.047C332.872 275.232 330.502 279.357 326.457 282.299C323.238 284.641 319.315 285.828 314.796 285.828C302.468 285.828 287.808 277.311 276.035 270.464C273.36 268.921 270.849 267.461 268.587 266.232Z" fill="#64D582"/>
<path d="M321.3 262.783C322.712 249.723 308.723 229.226 301.727 221.347C289.657 207.757 281.243 196.176 275.678 188.508C270.155 180.906 267.114 176.715 265.143 176.715C263.791 176.715 263.05 178.466 262.59 182.755C259.127 215.04 238.245 232.525 225.772 242.97C220.31 247.546 216.696 250.568 216.546 253.06C216.504 253.773 216.757 254.434 217.302 255.012C218.437 256.222 220.244 256.79 222.98 256.79C226.058 256.79 229.944 256.077 234.439 255.251C240.277 254.181 246.898 252.966 253.674 252.966C262.895 252.966 270.338 255.265 276.429 259.995C285.002 266.654 297.7 273.768 307.63 273.768C311.21 273.768 314.279 272.858 316.752 271.06C319.385 269.151 320.91 266.368 321.3 262.783ZM307.639 273.294C297.827 273.294 285.237 266.232 276.729 259.62C270.549 254.824 263.013 252.492 253.684 252.492C246.861 252.492 240.22 253.712 234.359 254.786C229.883 255.608 226.021 256.316 222.984 256.316C220.389 256.316 218.695 255.8 217.654 254.693C217.194 254.205 216.987 253.679 217.025 253.092C217.161 250.807 220.901 247.672 226.077 243.341C238.606 232.848 259.578 215.289 263.064 182.811C263.482 178.93 264.12 177.199 265.143 177.199C266.87 177.199 270.042 181.563 275.293 188.794C280.868 196.467 289.286 208.062 301.37 221.666C308.324 229.493 322.224 249.831 320.83 262.731C320.455 266.175 318.995 268.85 316.485 270.676C314.092 272.412 311.117 273.294 307.639 273.294Z" fill="#64D582"/>
<path d="M252.905 32.9428C257.4 32.9428 260.61 28.6162 264.05 22.1169C270.061 10.7561 282.614 5.26573 289.362 2.31876C292.778 0.82651 294.054 0.263398 293.895 -0.670433C293.759 -1.4541 292.881 -1.79197 288.212 -2.11107C274.167 -3.06367 242.647 10.3291 239.01 20.4229C238.17 22.7598 238.789 24.8762 240.812 26.5467C246.227 31.0282 249.845 32.9428 252.905 32.9428ZM240.056 20.7983C243.374 11.582 272.67 -1.05053 286.715 -1.05053C287.208 -1.05053 287.682 -1.03645 288.137 -1.0036C290.887 -0.8159 292.097 -0.618823 292.6 -0.459274C292.004 -0.0463235 290.441 0.634106 288.921 1.30046C282.051 4.30373 269.268 9.89734 263.074 21.6007C259.174 28.9634 256.326 31.8353 252.909 31.8353C250.127 31.8353 246.72 30.0005 241.52 25.6974C239.845 24.3084 239.367 22.7082 240.056 20.7983Z" fill="#64D582"/>
<path d="M266.706 32.3752C277.508 12.699 297.241 5.83373 313.228 2.04679C314.763 1.68545 314.908 0.897093 314.857 0.460679C314.481 -2.74438 299.516 -8.88232 277.17 -8.88232C274.65 -8.88232 272.069 -8.80255 269.507 -8.64769C259.296 -8.02827 235.223 6.20912 226.574 16.7487C224.327 19.4845 223.308 21.7652 223.548 23.5155C224.144 27.889 228.043 29.8318 232.557 32.0795C237.33 34.4587 242.745 37.1523 245.378 43.4357C246.912 47.0959 248.925 48.9495 251.366 48.9495C255.509 48.9495 260.671 43.3747 266.706 32.3752ZM246.11 43.1306C243.36 36.5751 237.809 33.8111 232.909 31.3709C228.597 29.2217 224.871 27.3681 224.331 23.4076C224.125 21.9012 225.11 19.7708 227.184 17.2509C235.739 6.83324 259.493 -7.24929 269.549 -7.85464C272.097 -8.0095 274.66 -8.08927 277.166 -8.08927C299.127 -8.08927 313.763 -2.01233 314.064 0.54984C314.11 0.958098 313.444 1.17864 313.041 1.27249C296.893 5.09698 276.959 12.0421 266.006 31.9904C256.912 48.5694 250.075 52.5816 246.11 43.1306Z" fill="#64D582"/>
<path d="M313.303 339.751C336.907 337.062 365.021 309.005 372.562 287.569C385.649 250.347 362.383 220.375 339.887 191.394C318.17 163.421 297.658 136.997 307.635 104.829C316.325 76.7999 344.392 61.6803 366.386 61.6803C378.24 61.6803 388.498 65.8849 395.26 73.5245C403.294 82.5953 406.452 96.3681 404.392 113.365C397.306 171.769 395.194 235.659 460.304 254.486C467.78 256.649 475.152 257.743 482.228 257.743C509.638 257.743 527.137 242.036 536.986 228.864C555.874 203.604 562.43 165.824 553.307 134.848C545.564 108.578 530.337 83.1068 506.742 56.9736C471.679 18.1281 423.922 -15.274 360.75 -45.1378L358.019 -46.433C331.445 -59.0045 303.96 -72.003 275.03 -79.1686C273.313 -79.5957 271.417 -80.0978 269.39 -80.6374C260.45 -83.0119 249.324 -85.9683 239.784 -85.9683C235.964 -85.9683 232.651 -85.4755 229.948 -84.5089C225.828 -83.0354 223.51 -80.2151 221.267 -77.484C219.592 -75.4521 217.865 -73.3451 215.387 -71.8388C213.778 -70.8627 210.652 -69.652 207.344 -68.3756C201.994 -66.3062 196.457 -64.171 194.702 -62.1157C191.323 -58.1551 192.253 -55.7713 193.154 -53.4625C193.801 -51.806 194.411 -50.2387 193.618 -47.9158L192.994 -46.0763C188.189 -31.9421 188.189 -31.9421 177.119 -28.7418C174.979 -28.1224 172.318 -27.3528 169.165 -26.3485C160.042 -23.4391 156.298 -18.9718 152.684 -14.6498C149.902 -11.3228 147.274 -8.18342 142.323 -5.64002C142.192 -5.65409 142.042 -5.65409 141.882 -5.65409C136.166 -5.65409 92.877 -2.80568 89.5547 7.84187C88.6584 10.7091 90.6058 13.8249 95.3406 17.1004C101.272 21.2017 105.768 21.6757 108.63 21.6757C110.029 21.6757 111.291 21.5537 112.511 21.4364C113.557 21.3332 114.543 21.2393 115.481 21.2393C118.963 21.2393 122.487 22.2248 127.321 34.1346C128.508 37.0675 129.428 39.4654 130.188 41.4598C133.928 51.2533 134.055 51.3847 143.562 55.4485C145.918 56.4574 148.851 57.7056 152.586 59.4278C164.824 65.073 167.335 71.4831 170.507 79.6014C172.187 83.8904 174.087 88.752 177.687 94.2142C181.539 100.066 186.063 104.773 190.441 109.329C198.193 117.4 205.519 125.026 207.851 137.757C211.891 159.808 199.916 180.868 186.377 200.342C179.812 209.784 166.321 220.779 152.037 232.416C127.781 252.177 100.287 274.575 100.188 295.321C100.132 307.165 103.173 316.255 109.231 322.336C115.829 328.962 125.852 332.186 139.878 332.186C160.216 332.186 185.214 325.326 207.274 319.277C224.636 314.514 239.634 310.398 249.221 310.398C251.389 310.398 253.224 310.619 254.683 311.051C263.928 313.801 271.257 319.666 278.348 325.34C287.757 332.867 296.645 339.976 309.352 339.976C310.633 339.981 311.966 339.906 313.303 339.751ZM254.979 309.995C253.397 309.526 251.511 309.296 249.202 309.296C239.465 309.296 224.402 313.425 206.959 318.212C184.97 324.242 160.047 331.079 139.86 331.083C126.143 331.083 116.373 327.968 109.996 321.562C104.158 315.696 101.225 306.87 101.277 295.335C101.371 275.115 128.649 252.89 152.717 233.28C167.063 221.595 180.615 210.554 187.269 200.985C200.943 181.314 213.031 160.019 208.921 137.565C206.528 124.505 199.094 116.762 191.22 108.569C186.88 104.05 182.393 99.3808 178.592 93.6136C175.054 88.2452 173.177 83.4446 171.521 79.2072C168.255 70.859 165.674 64.2612 153.032 58.4283C149.282 56.7014 146.345 55.4438 143.98 54.4349C134.815 50.5212 134.815 50.5212 131.206 41.0703C130.446 39.0759 129.526 36.6686 128.334 33.7264C123.726 22.3608 120.127 20.1365 115.467 20.1365C114.477 20.1365 113.464 20.2351 112.394 20.3383C111.197 20.4509 109.963 20.5729 108.621 20.5729C105.678 20.5729 101.577 20.0755 95.9648 16.1947C91.6757 13.229 89.8737 10.5308 90.6058 8.17975C93.4918 -1.07409 133.848 -4.53726 141.873 -4.53726C142.065 -4.53726 142.196 -4.53256 142.262 -4.52787L142.389 -5.03936L142.633 -4.55602C147.907 -7.22143 150.765 -10.633 153.529 -13.9366C157.208 -18.3336 160.681 -22.4818 169.498 -25.2927C172.637 -26.2922 175.289 -27.0618 177.424 -27.6766C188.944 -31.0083 189.099 -31.1772 194.045 -45.7197L194.669 -47.5545C195.594 -50.2621 194.848 -52.172 194.191 -53.8614C193.341 -56.0481 192.605 -57.9346 195.551 -61.3883C197.124 -63.2278 202.769 -65.4099 207.748 -67.3339C211.108 -68.629 214.28 -69.8585 215.969 -70.8862C218.602 -72.4911 220.394 -74.6684 222.126 -76.7707C224.374 -79.5018 226.495 -82.0828 230.328 -83.453C232.914 -84.3775 236.096 -84.8514 239.789 -84.8514C249.188 -84.8514 260.235 -81.9138 269.108 -79.5581C271.14 -79.0185 273.045 -78.5117 274.768 -78.0847C303.594 -70.9472 331.023 -57.9674 357.55 -45.4193L360.281 -44.1242C423.317 -14.3261 470.956 18.9915 505.921 57.7291C529.398 83.7356 544.551 109.066 552.242 135.171C561.275 165.828 554.79 203.219 536.099 228.212C526.4 241.182 509.183 256.644 482.228 256.644C475.26 256.644 467.986 255.565 460.614 253.435C396.339 234.847 398.46 171.464 405.49 113.51C407.592 96.1898 404.34 82.1119 396.09 72.7971C389.113 64.9182 378.559 60.5822 366.382 60.5822C343.988 60.5822 315.415 75.9787 306.569 104.514C296.424 137.231 318.071 165.12 339.005 192.088C361.323 220.835 384.396 250.563 371.511 287.212C364.073 308.352 336.391 336.015 313.172 338.662C311.877 338.808 310.586 338.883 309.333 338.883C297.015 338.883 288.273 331.891 279.024 324.49C271.853 318.742 264.434 312.806 254.979 309.995Z" fill="#64D582"/>
</g>
</g>
</svg>
