<svg width="89" height="24" viewBox="0 0 89 24" fill="none" xmlns="http://www.w3.org/2000/svg">
<g clip-path="url(#clip0_1_1011)">
<path d="M28.2417 4.79956C28.06 4.79956 27.9056 4.93482 27.8771 5.11899L25.7731 18.7956C25.7655 18.8456 25.7685 18.8967 25.7819 18.9453C25.7954 18.994 25.8189 19.0391 25.851 19.0775C25.8831 19.1159 25.9229 19.1468 25.9677 19.1679C26.0125 19.1891 26.0612 19.2001 26.1106 19.2001H28.6058C28.7873 19.2001 28.9419 19.0646 28.9704 18.8806L29.5884 14.8644C29.6166 14.6805 29.7712 14.545 29.953 14.545H32.2216C34.8722 14.545 37.1223 12.5626 37.5333 9.87648C37.9477 7.16761 35.883 4.80544 32.9568 4.79956H28.2417ZM30.6673 7.85272H32.4824C33.9767 7.85272 34.4633 8.75647 34.3095 9.75593C34.1556 10.7575 33.3998 11.4953 31.9543 11.4953H30.1069L30.6673 7.85272ZM42.6082 8.7824C41.9782 8.78481 41.2532 8.91712 40.4393 9.26462C38.5723 10.0623 37.6757 11.7107 37.295 12.9125C37.295 12.9125 36.0831 16.5792 38.8211 18.5936C38.8211 18.5936 41.3604 20.5329 44.2188 18.4741L44.1696 18.7956C44.1619 18.8456 44.1649 18.8966 44.1783 18.9452C44.1917 18.9938 44.2152 19.0389 44.2473 19.0773C44.2793 19.1157 44.319 19.1466 44.3638 19.1678C44.4085 19.189 44.4572 19.2 44.5065 19.2001H46.8752C47.057 19.2001 47.2114 19.0646 47.2398 18.8806L48.6807 9.51482C48.6884 9.46486 48.6855 9.41379 48.6721 9.3651C48.6587 9.31642 48.6352 9.27128 48.6032 9.2328C48.5712 9.19432 48.5314 9.1634 48.4866 9.14217C48.4418 9.12095 48.3931 9.10992 48.3437 9.10985H45.975C45.7932 9.10985 45.6386 9.24538 45.6104 9.42928L45.533 9.93342C45.533 9.93342 44.4987 8.77519 42.6082 8.7824ZM42.6857 11.7407C42.9577 11.7407 43.2065 11.7792 43.4297 11.8527C44.4517 12.1889 45.0312 13.1953 44.8635 14.2862C44.6567 15.6294 43.582 16.6184 42.2037 16.6184C41.932 16.6184 41.6832 16.5802 41.4597 16.5067C40.438 16.1704 39.8548 15.164 40.0225 14.0732C40.2293 12.73 41.3074 11.7407 42.6857 11.7407Z" fill="#003087"/>
<path d="M62.3526 4.79956C62.1709 4.79956 62.0165 4.93482 61.988 5.11899L59.884 18.7956C59.8764 18.8456 59.8794 18.8967 59.8928 18.9453C59.9063 18.994 59.9298 19.0391 59.9619 19.0775C59.994 19.1159 60.0338 19.1468 60.0786 19.1679C60.1234 19.1891 60.1721 19.2001 60.2215 19.2001H62.7167C62.8982 19.2001 63.0528 19.0646 63.0813 18.8806L63.6993 14.8644C63.7275 14.6805 63.8821 14.545 64.0639 14.545H66.3325C68.9831 14.545 71.2329 12.5626 71.6437 9.87648C72.0583 7.16761 69.9939 4.80544 67.0677 4.79956H62.3526ZM64.7782 7.85272H66.5933C68.0876 7.85272 68.5742 8.75647 68.4204 9.75593C68.2665 10.7575 67.511 11.4953 66.0652 11.4953H64.2178L64.7782 7.85272ZM76.7189 8.7824C76.0888 8.78481 75.3638 8.91712 74.5499 9.26462C72.6829 10.0623 71.7863 11.7107 71.4056 12.9125C71.4056 12.9125 70.1942 16.5792 72.9322 18.5936C72.9322 18.5936 75.471 20.5329 78.3298 18.4741L78.2805 18.7956C78.2728 18.8456 78.2758 18.8967 78.2893 18.9453C78.3027 18.994 78.3263 19.0391 78.3583 19.0775C78.3904 19.1159 78.4302 19.1468 78.475 19.1679C78.5198 19.1891 78.5686 19.2001 78.6179 19.2001H80.9864C81.1682 19.2001 81.3225 19.0646 81.351 18.8806L82.7923 9.51482C82.8001 9.46482 82.7971 9.4137 82.7837 9.36498C82.7703 9.31625 82.7468 9.27109 82.7147 9.2326C82.6826 9.1941 82.6428 9.1632 82.5979 9.14201C82.5531 9.12082 82.5043 9.10985 82.4549 9.10985H80.0861C79.9044 9.10985 79.7497 9.24538 79.7216 9.42928L79.6441 9.93342C79.6441 9.93342 78.6093 8.77519 76.7189 8.7824ZM76.7963 11.7407C77.0683 11.7407 77.3171 11.7792 77.5404 11.8527C78.5624 12.1889 79.1418 13.1953 78.9742 14.2862C78.7674 15.6294 77.6926 16.6184 76.3144 16.6184C76.0426 16.6184 75.7939 16.5802 75.5704 16.5067C74.5486 16.1704 73.9655 15.164 74.1332 14.0732C74.34 12.73 75.4181 11.7407 76.7963 11.7407Z" fill="#0070E0"/>
<path d="M49.8046 9.10989C49.6169 9.10989 49.4833 9.2978 49.5407 9.48091L52.1376 17.7409L49.7895 21.6334C49.6755 21.8224 49.808 22.0664 50.0247 22.0664H52.8C52.8794 22.0663 52.9574 22.0453 53.0265 22.0053C53.0957 21.9653 53.1535 21.9078 53.1946 21.8381L60.4474 9.54025C60.5587 9.35126 60.4257 9.10962 60.2103 9.10962H57.4353C57.3551 9.10969 57.2764 9.13114 57.2068 9.17187C57.1372 9.2126 57.0791 9.2712 57.0384 9.34191L54.1835 14.2822L52.7343 9.37853C52.6871 9.21895 52.5434 9.10962 52.381 9.10962L49.8046 9.10989Z" fill="#003087"/>
<path d="M85.4837 4.79956C85.3022 4.79956 85.1475 4.93508 85.1191 5.11899L83.0145 18.7951C83.0068 18.8451 83.0097 18.8962 83.0231 18.9449C83.0366 18.9937 83.0601 19.0388 83.0922 19.0773C83.1243 19.1158 83.1641 19.1467 83.2089 19.1679C83.2538 19.1891 83.3026 19.2001 83.352 19.2001H85.8472C86.0287 19.2001 86.1833 19.0646 86.2118 18.8806L88.3158 5.20399C88.3234 5.15408 88.3205 5.10306 88.307 5.05444C88.2936 5.00582 88.2701 4.96076 88.2381 4.92233C88.2061 4.88391 88.1663 4.85305 88.1216 4.83185C88.0769 4.81066 88.0282 4.79964 87.9789 4.79956H85.4837Z" fill="#0070E0"/>
<path d="M7.43972 4.79956C7.27898 4.7997 7.12357 4.85858 7.00139 4.96564C6.87921 5.07269 6.79827 5.22089 6.77314 5.38362L5.66559 12.5837C5.71722 12.2475 5.99991 11.9997 6.33215 11.9997H9.57765C12.844 11.9997 15.6156 9.55732 16.1221 6.24755C16.1598 6.00045 16.1811 5.75102 16.186 5.50097C15.3559 5.05484 14.3808 4.79956 13.3124 4.79956H7.43972Z" fill="#001C64"/>
<path d="M16.186 5.50122C16.1812 5.75127 16.1598 6.0007 16.1221 6.2478C15.6157 9.55757 12.8438 11.9999 9.57769 11.9999H6.3322C6.00021 11.9999 5.71727 12.2475 5.66563 12.584L4.64725 19.2003L4.00937 23.351C3.99692 23.4312 4.00159 23.5132 4.02306 23.5914C4.04453 23.6696 4.0823 23.742 4.13375 23.8038C4.18519 23.8655 4.24909 23.9151 4.32104 23.9491C4.393 23.9831 4.47129 24.0006 4.55051 24.0006H8.07322C8.23395 24.0005 8.38937 23.9416 8.51155 23.8345C8.63372 23.7275 8.71465 23.5793 8.73978 23.4165L9.66766 17.3843C9.69281 17.2214 9.77382 17.0732 9.8961 16.9661C10.0184 16.859 10.1739 16.8002 10.3348 16.8002H12.4088C15.6752 16.8002 18.4468 14.3578 18.9533 11.0481C19.3129 8.69899 18.1586 6.56135 16.186 5.50122Z" fill="#0070E0"/>
<path d="M3.43748 0.000244141C3.10549 0.000244141 2.82255 0.247769 2.77091 0.583771L0.00655933 18.5509C-0.0458589 18.892 0.211284 19.2005 0.548221 19.2005H4.64753L5.66539 12.5842L6.77294 5.38403C6.79807 5.22131 6.87901 5.0731 7.00119 4.96605C7.12337 4.85899 7.27878 4.80011 7.43952 4.79997H13.3122C14.3809 4.79997 15.3557 5.05551 16.1858 5.50138C16.2427 2.48805 13.8168 0.000244141 10.4816 0.000244141H3.43748Z" fill="#003087"/>
</g>
<defs>
<clipPath id="clip0_1_1011">
<rect width="88.32" height="24" fill="white"/>
</clipPath>
</defs>
</svg>
