<svg width="32" height="32" viewBox="0 0 32 32" fill="none" xmlns="http://www.w3.org/2000/svg">
<mask id="mask0_1_411" style="mask-type:alpha" maskUnits="userSpaceOnUse" x="0" y="0" width="32" height="32">
<rect width="32" height="32" fill="#D9D9D9"/>
</mask>
<g mask="url(#mask0_1_411)">
<path d="M7.33336 16.5333L2.13336 11.3333L7.33336 6.13331L12.5334 11.3333L7.33336 16.5333ZM12 29.3333V22.6666C10.6445 22.5555 9.30003 22.3944 7.9667 22.1833C6.63336 21.9722 5.31114 21.6889 4.00003 21.3333L4.6667 18.6666C6.53336 19.1778 8.40558 19.5278 10.2834 19.7166C12.1611 19.9055 14.0667 20 16 20C17.9334 20 19.8389 19.9055 21.7167 19.7166C23.5945 19.5278 25.4667 19.1778 27.3334 18.6666L28 21.3333C26.6889 21.6889 25.3667 21.9722 24.0334 22.1833C22.7 22.3944 21.3556 22.5555 20 22.6666V29.3333H12ZM16 9.33331C14.8889 9.33331 13.9445 8.94442 13.1667 8.16665C12.3889 7.38887 12 6.44442 12 5.33331C12 4.2222 12.3889 3.27776 13.1667 2.49998C13.9445 1.7222 14.8889 1.33331 16 1.33331C17.1111 1.33331 18.0556 1.7222 18.8334 2.49998C19.6111 3.27776 20 4.2222 20 5.33331C20 6.44442 19.6111 7.38887 18.8334 8.16665C18.0556 8.94442 17.1111 9.33331 16 9.33331ZM16 18.6666C15.2667 18.6666 14.6389 18.4055 14.1167 17.8833C13.5945 17.3611 13.3334 16.7333 13.3334 16C13.3334 15.2666 13.5945 14.6389 14.1167 14.1166C14.6389 13.5944 15.2667 13.3333 16 13.3333C16.7334 13.3333 17.3611 13.5944 17.8834 14.1166C18.4056 14.6389 18.6667 15.2666 18.6667 16C18.6667 16.7333 18.4056 17.3611 17.8834 17.8833C17.3611 18.4055 16.7334 18.6666 16 18.6666ZM22.7334 16L20.4667 12L22.7334 7.99998H27.2667L29.5334 12L27.2667 16H22.7334Z" fill="#64D582"/>
</g>
</svg>
