<svg width="32" height="32" viewBox="0 0 32 32" fill="none" xmlns="http://www.w3.org/2000/svg">
<mask id="mask0_1_403" style="mask-type:alpha" maskUnits="userSpaceOnUse" x="0" y="0" width="32" height="32">
<rect width="32" height="32" fill="#D9D9D9"/>
</mask>
<g mask="url(#mask0_1_403)">
<path d="M8.00001 29.3334C7.26668 29.3334 6.6389 29.0722 6.11668 28.55C5.59445 28.0278 5.33334 27.4 5.33334 26.6667V5.33335C5.33334 4.60002 5.59445 3.97224 6.11668 3.45002C6.6389 2.9278 7.26668 2.66669 8.00001 2.66669H18.6667L26.6667 10.6667V26.6667C26.6667 27.4 26.4056 28.0278 25.8833 28.55C25.3611 29.0722 24.7333 29.3334 24 29.3334H8.00001ZM14.6667 25.3334H17.3333V24H18.6667C19.0445 24 19.3611 23.8722 19.6167 23.6167C19.8722 23.3611 20 23.0445 20 22.6667V18.6667C20 18.2889 19.8722 17.9722 19.6167 17.7167C19.3611 17.4611 19.0445 17.3334 18.6667 17.3334H14.6667V16H20V13.3334H17.3333V12H14.6667V13.3334H13.3333C12.9556 13.3334 12.6389 13.4611 12.3833 13.7167C12.1278 13.9722 12 14.2889 12 14.6667V18.6667C12 19.0445 12.1278 19.3611 12.3833 19.6167C12.6389 19.8722 12.9556 20 13.3333 20H17.3333V21.3334H12V24H14.6667V25.3334ZM17.5667 10.6667H22.9L17.5667 5.33335V10.6667Z" fill="#64D582"/>
</g>
</svg>
