<svg width="32" height="32" viewBox="0 0 32 32" fill="none" xmlns="http://www.w3.org/2000/svg">
<mask id="mask0_1_418" style="mask-type:alpha" maskUnits="userSpaceOnUse" x="0" y="0" width="32" height="32">
<rect width="32" height="32" fill="#D9D9D9"/>
</mask>
<g mask="url(#mask0_1_418)">
<path d="M20.6667 14.6667C21.2222 14.6667 21.6944 14.4722 22.0833 14.0834C22.4722 13.6945 22.6667 13.2222 22.6667 12.6667C22.6667 12.1111 22.4722 11.6389 22.0833 11.25C21.6944 10.8611 21.2222 10.6667 20.6667 10.6667C20.1111 10.6667 19.6389 10.8611 19.25 11.25C18.8611 11.6389 18.6667 12.1111 18.6667 12.6667C18.6667 13.2222 18.8611 13.6945 19.25 14.0834C19.6389 14.4722 20.1111 14.6667 20.6667 14.6667ZM11.3333 14.6667C11.8889 14.6667 12.3611 14.4722 12.75 14.0834C13.1389 13.6945 13.3333 13.2222 13.3333 12.6667C13.3333 12.1111 13.1389 11.6389 12.75 11.25C12.3611 10.8611 11.8889 10.6667 11.3333 10.6667C10.7778 10.6667 10.3056 10.8611 9.91667 11.25C9.52778 11.6389 9.33334 12.1111 9.33334 12.6667C9.33334 13.2222 9.52778 13.6945 9.91667 14.0834C10.3056 14.4722 10.7778 14.6667 11.3333 14.6667ZM16 23.3334C17.5111 23.3334 18.8833 22.9056 20.1167 22.05C21.35 21.1945 22.2444 20.0667 22.8 18.6667H20.6C20.1111 19.4889 19.4611 20.1389 18.65 20.6167C17.8389 21.0945 16.9556 21.3334 16 21.3334C15.0444 21.3334 14.1611 21.0945 13.35 20.6167C12.5389 20.1389 11.8889 19.4889 11.4 18.6667H9.2C9.75556 20.0667 10.65 21.1945 11.8833 22.05C13.1167 22.9056 14.4889 23.3334 16 23.3334ZM16 29.3334C14.1556 29.3334 12.4222 28.9834 10.8 28.2834C9.17778 27.5834 7.76667 26.6334 6.56667 25.4334C5.36667 24.2334 4.41667 22.8222 3.71667 21.2C3.01667 19.5778 2.66667 17.8445 2.66667 16C2.66667 14.1556 3.01667 12.4222 3.71667 10.8C4.41667 9.1778 5.36667 7.76669 6.56667 6.56669C7.76667 5.36669 9.17778 4.41669 10.8 3.71669C12.4222 3.01669 14.1556 2.66669 16 2.66669C17.8444 2.66669 19.5778 3.01669 21.2 3.71669C22.8222 4.41669 24.2333 5.36669 25.4333 6.56669C26.6333 7.76669 27.5833 9.1778 28.2833 10.8C28.9833 12.4222 29.3333 14.1556 29.3333 16C29.3333 17.8445 28.9833 19.5778 28.2833 21.2C27.5833 22.8222 26.6333 24.2334 25.4333 25.4334C24.2333 26.6334 22.8222 27.5834 21.2 28.2834C19.5778 28.9834 17.8444 29.3334 16 29.3334Z" fill="#64D582"/>
</g>
</svg>
