<svg width="63" height="20" viewBox="0 0 63 20" fill="none" xmlns="http://www.w3.org/2000/svg">
<g clip-path="url(#clip0_1_1020)">
<path d="M27.0195 19.7116H21.9685L25.1278 0.351074H30.1785L27.0195 19.7116Z" fill="#00579F"/>
<path d="M45.33 0.824255C44.3337 0.432522 42.7535 0 40.7996 0C35.8116 0 32.299 2.63619 32.2775 6.40515C32.236 9.18588 34.7923 10.7304 36.7043 11.6575C38.6584 12.605 39.3227 13.2234 39.3227 14.0679C39.3028 15.3649 37.7436 15.9628 36.2894 15.9628C34.2728 15.9628 33.1923 15.6545 31.5502 14.9329L30.8851 14.6236L30.1783 18.9696C31.3629 19.5045 33.5455 19.9792 35.8116 20C41.1114 20 44.5618 17.4046 44.6027 13.3882C44.6229 11.1842 43.2731 9.49549 40.3629 8.11552C38.5963 7.22968 37.5144 6.63236 37.5144 5.72598C37.5351 4.902 38.4295 4.05804 40.4237 4.05804C42.0657 4.0167 43.2722 4.40789 44.1862 4.79934L44.643 5.00493L45.33 0.824255Z" fill="#00579F"/>
<path d="M52.0432 12.8529C52.4592 11.7406 54.0598 7.43594 54.0598 7.43594C54.0388 7.47727 54.475 6.30317 54.7244 5.58239L55.0774 7.25061C55.0774 7.25061 56.0339 11.8849 56.2416 12.8529C55.4522 12.8529 53.0409 12.8529 52.0432 12.8529ZM58.2781 0.351074H54.3711C53.1663 0.351074 52.2509 0.700924 51.7311 1.95743L44.2285 19.7113H49.5283C49.5283 19.7113 50.4009 17.3218 50.5884 16.8071C51.1699 16.8071 56.3256 16.8071 57.0735 16.8071C57.2185 17.4869 57.6762 19.7113 57.6762 19.7113H62.353L58.2781 0.351074Z" fill="#00579F"/>
<path d="M17.7497 0.351074L12.8031 13.5531L12.2626 10.8756C11.348 7.78606 8.47988 4.42937 5.27917 2.76033L9.8101 19.6911H15.1514L23.0908 0.351074H17.7497Z" fill="#00579F"/>
<path d="M8.20974 0.351074H0.0831384L0 0.742259C6.33926 2.34888 10.5376 6.22159 12.2626 10.8764L10.4959 1.9785C10.2051 0.741986 9.31126 0.391863 8.20974 0.351074Z" fill="#FAA61A"/>
</g>
<defs>
<clipPath id="clip0_1_1020">
<rect width="62.3529" height="20" fill="white"/>
</clipPath>
</defs>
</svg>
